<svg width="209" height="466" viewBox="0 0 209 466" fill="none" xmlns="http://www.w3.org/2000/svg">
<mask id="mask0_1_9728" style="mask-type:alpha" maskUnits="userSpaceOnUse" x="0" y="0" width="209" height="466">
<rect width="209" height="466" fill="#D9D9D9"/>
</mask>
<g mask="url(#mask0_1_9728)">
<g opacity="0.17">
<path d="M78.2476 442.767C65.9908 446.793 53.3249 449.532 40.4991 450.925L24.0459 452.712C0.4397 455.275 -22.8358 460.287 -45.405 467.666L-97.3001 484.634C-160.133 505.178 -227.163 509.378 -292.069 496.838V496.838L-413.593 478.936C-442.296 474.708 -471.118 485.812 -489.565 508.205V508.205C-532.962 560.886 -617.881 541.381 -633.941 475.043L-673.563 311.38C-687.447 254.031 -631.313 204.63 -576.193 225.69V225.69C-555.638 233.544 -532.641 231.744 -513.557 220.787L-460.094 190.093C-428.573 171.996 -392.774 162.685 -356.431 163.132L-302.59 163.793C-292.139 163.921 -281.726 165.081 -271.503 167.256V167.256C-226.719 176.784 -180.002 166.513 -143.344 139.08L-126.379 126.384C-96.9092 104.33 -62.0552 90.5982 -25.4617 86.6245L1.19825 83.7295C36.7447 79.8696 72.6471 86.4165 104.543 102.575V102.575C251.171 176.856 234.407 391.468 78.2476 442.767V442.767Z" fill="#FFEC43"/>
<path d="M-489.565 508.205C-532.962 560.886 -617.881 541.381 -633.941 475.043L-673.563 311.38C-687.447 254.031 -631.313 204.63 -576.193 225.69V225.69C-555.638 233.544 -532.641 231.744 -513.557 220.787L-460.094 190.093C-428.573 171.996 -392.774 162.685 -356.431 163.132L-302.59 163.793C-292.139 163.921 -281.726 165.081 -271.503 167.256V167.256C-226.719 176.784 -180.002 166.513 -143.344 139.08L-126.379 126.384C-96.9092 104.33 -62.0552 90.5982 -25.4617 86.6245L1.19825 83.7295C36.7447 79.8696 72.6471 86.4165 104.543 102.575V102.575C251.171 176.856 234.407 391.468 78.2476 442.767V442.767C65.9908 446.793 53.3249 449.532 40.4991 450.925L24.0459 452.712C0.4397 455.275 -22.8358 460.287 -45.405 467.666L-97.3001 484.634C-160.133 505.178 -227.163 509.378 -292.069 496.838V496.838L-413.593 478.936C-442.296 474.708 -471.118 485.812 -489.565 508.205V508.205Z" fill="#FFEC43"/>
</g>
<path d="M24.4425 12.9816C30.5725 12.6218 36.6575 12.1972 37.9344 12.0324C39.4507 11.7978 42.9022 12.1417 47.7953 12.9743C51.9651 13.7321 57.8408 15.0833 60.9083 15.981C63.931 16.8137 67.5771 18.27 68.9488 19.1428C70.3853 19.9708 72.56 21.1029 73.8818 21.6266C75.2136 22.0953 77.8821 23.3172 79.9222 24.2549C81.9622 25.1925 84.8253 26.9032 86.3117 28.0803C87.7981 29.2575 90.7261 31.5469 92.7562 33.1629C94.8412 34.7889 97.3701 37.4026 98.4825 39.0786C99.5949 40.7546 101.046 43.6827 101.715 45.6182C102.338 47.4888 103.102 49.2147 103.401 49.4391C103.7 49.6636 104.114 50.8159 104.399 52.058C104.693 53.2452 105.167 55.3153 105.551 56.6323C105.88 57.9392 106.145 59.291 106.095 59.5654C106.045 59.8398 106.534 61.5158 107.252 63.1769C107.961 64.8929 108.529 67.3771 108.499 68.7888C108.415 70.1906 108.4 72.4553 108.37 73.867C108.34 75.2788 108.475 76.7204 108.645 77.0347C108.869 77.3589 108.844 80.3021 108.595 83.5446C108.291 86.7772 108.122 91.4513 108.122 93.9456C108.097 96.8888 107.404 102.261 106.117 109.34C104.801 116.583 103.864 120.495 103.275 121.238C102.677 122.036 101.983 124.914 101.156 130.093C100.318 135.326 99.575 138.478 98.8119 139.87C98.2084 141.008 96.2035 143.307 94.4179 145.024C92.5775 146.73 91.0663 148.496 90.9865 148.935C90.9068 149.374 90.3781 150.412 89.7148 151.255C89.1063 152.108 88.5128 153.19 88.4131 153.739C88.3233 154.233 88.0041 154.742 87.645 154.847C87.2859 154.951 86.7672 155.934 86.3932 157.057C86.0292 158.124 85.2761 159.461 84.7274 159.985C84.1788 160.509 83.6901 161.327 83.5554 161.756C83.4756 162.195 82.6228 164.081 81.6603 165.946C80.6977 167.812 79.3811 170.067 78.7626 170.975C78.1542 171.828 77.5806 172.801 77.5208 173.13C77.4609 173.46 76.3737 175.076 75.047 176.762C73.7652 178.513 71.6755 180.968 70.4635 182.335C69.2067 183.637 67.7004 185.064 67.072 185.403C66.4436 185.742 65.2416 187.054 64.3887 188.316C63.471 189.624 60.3887 192.238 57.2216 194.383C54.1742 196.494 50.0195 199.083 47.9496 200.181C45.8897 201.223 41.9345 202.715 39.1364 203.454C36.1537 204.272 32.5326 204.861 30.3879 204.812C28.3628 204.727 25.5148 204.493 23.9785 204.214C22.4971 203.945 19.5792 202.847 17.614 201.81C15.6488 200.773 12.5413 198.847 10.7356 197.556C8.93995 196.209 5.31866 193.056 2.67001 190.478C0.0213669 187.899 -4.60259 182.467 -7.61542 178.462C-10.6183 174.401 -13.9803 169.822 -15.0926 168.146C-16.3497 166.331 -17.8811 162.594 -19.1482 158.339C-20.3305 154.553 -21.8221 150.598 -22.5404 149.56C-23.2587 148.523 -23.7924 147.405 -23.7326 147.076C-23.7276 146.737 -24.5058 144.781 -25.4835 142.676C-26.5061 140.506 -27.2943 138.606 -27.2544 138.386C-27.2045 138.112 -27.6485 137.124 -28.1922 136.062C-28.6811 135.009 -29.5042 132.989 -29.9681 131.488C-30.4869 129.976 -31.0955 128.335 -31.4546 127.816C-31.7589 127.308 -31.9036 125.921 -31.7491 124.758C-31.5497 123.037 -31.7442 122.549 -32.7268 122.03C-33.4002 121.681 -35.0313 119.74 -36.3681 117.74C-37.6401 115.695 -38.7426 113.341 -38.7576 112.488C-38.8175 111.57 -39.047 110.338 -39.3213 109.664C-39.5957 108.991 -40.1345 106.342 -40.5187 103.778C-40.9977 100.8 -41.0777 97.4975 -40.7336 94.6691C-40.4594 92.2247 -39.7264 89.1268 -39.083 87.7699C-38.3699 86.0288 -38.1255 84.9962 -38.4298 84.4874C-38.7241 83.9237 -37.9512 79.3592 -36.2259 71.1132C-34.7399 64.1841 -33.3336 58.3175 -33.0643 58.083C-32.795 57.8485 -31.8524 55.4689 -30.9697 52.7951C-30.1419 50.1112 -29.0148 47.6518 -28.5509 47.2826C-28.0322 46.9234 -27.4587 45.9505 -27.3091 45.1274C-27.1495 44.2495 -26.8453 43.5111 -26.551 43.4512C-26.3116 43.3814 -25.8229 42.5632 -25.379 41.6802C-24.99 40.7873 -23.9327 39.3355 -23.0499 38.5323C-22.1571 37.6742 -20.8604 36.1526 -20.1771 35.1997C-19.4938 34.2468 -18.5312 33.0046 -18.0375 32.4708C-17.5437 31.937 -15.9976 30.2906 -14.6011 28.8439C-13.2046 27.3971 -10.3267 24.9724 -8.23194 23.4258C-6.14713 21.934 -2.33657 19.6788 0.212119 18.4414C2.76081 17.204 5.41924 15.9866 6.09258 15.7122C6.75594 15.4926 7.54898 15.1832 7.90809 15.0784C8.25724 15.0285 9.15004 14.794 9.978 14.6043C10.796 14.4696 11.8733 14.1552 12.3621 13.9606C12.8509 13.766 18.3125 13.3414 24.4425 12.9816Z" fill="black"/>
<path d="M58.6325 38.4691C59.2759 38.3593 62.4182 38.5336 65.6403 38.8924C68.8724 39.1964 73.7206 39.9641 76.399 40.5076C79.4616 41.1208 81.9705 41.9736 83.0778 42.7417C84.0405 43.3702 86.2402 44.6769 87.951 45.5547C90.5896 46.9412 91.1583 47.5547 91.8616 49.6099C92.3555 50.9468 93.029 53.1666 93.4031 54.5383C93.7673 55.965 94.0118 57.4266 93.9519 57.7558C93.8821 58.14 94.2862 59.9707 94.8649 61.7764C95.6431 64.3554 95.7729 66.1362 95.3941 70.0921C95.1249 72.8208 95.0303 76.1481 95.2498 77.4351C95.4693 78.7221 95.3298 81.361 94.9708 83.3365C94.6118 85.3119 94.5072 88.0706 94.6968 89.5222C94.9662 91.1584 94.7219 94.0617 94.1236 97.3541C93.492 100.829 93.291 103.911 93.5205 106.598C93.7451 108.793 93.865 111.875 93.87 113.407C93.8302 114.874 93.9749 116.26 94.2293 116.42C94.4288 116.57 94.1845 118.849 93.7058 121.483C93.2172 124.172 92.8782 127.285 92.8882 128.477C92.9082 129.614 93.0679 130.607 93.3422 130.657C93.5617 130.697 95.0879 129.784 99.6665 126.421L98.355 132.702C97.0186 138.808 96.9239 139.017 94.5698 141.367C93.2581 142.659 91.1184 144.765 89.8167 146.002C88.3852 147.329 86.5448 148.412 85.1831 148.731C83.5372 149.055 83.0185 149.415 83.1632 150.178C83.2829 150.766 83.2082 152.737 82.9888 154.568C82.7844 156.628 82.0314 159.212 81.0838 161.307C80.231 163.193 79.1787 165.553 78.7698 166.555C78.306 167.548 76.8197 170.112 75.4233 172.183C74.0268 174.253 72.371 176.503 71.7924 177.191C71.159 177.87 68.3361 180.928 65.4583 183.976C62.2463 187.304 58.2513 190.886 55.2787 192.897C52.5554 194.783 48.7998 197.048 46.9344 197.956C45.059 198.919 42.1263 200.086 40.5053 200.585C38.8294 201.074 36.3256 201.753 34.8442 202.107C33.2431 202.497 30.2804 202.582 27.4423 202.293C23.497 201.859 22.1453 201.5 19.362 199.974C17.4965 199.011 15.242 197.695 14.3342 197.076C13.4812 196.468 11.8751 195.326 10.8127 194.622C9.81508 193.874 8.27379 192.687 7.5156 191.869C6.69258 191.096 5.12135 189.45 4.03893 188.233C2.94655 187.071 1.88909 186.028 1.61476 185.978C1.39529 185.938 -0.0213245 184.377 -1.48783 182.467C-3.0092 180.546 -5.73273 176.82 -7.52846 174.226C-9.33417 171.687 -11.1997 169.478 -11.6386 169.398C-12.0776 169.318 -12.4217 169.029 -12.3619 168.7C-12.3021 168.37 -12.6213 167.632 -13.0703 166.984C-13.4743 166.4 -14.2774 164.894 -14.8561 163.711C-15.3798 162.539 -16.4075 159.461 -17.1308 156.893C-17.8642 154.378 -19.1013 151.206 -19.8894 149.929C-20.7574 148.467 -21.4209 146.193 -21.6155 143.833C-21.86 141.748 -21.8602 138.007 -21.6958 135.542C-21.5313 133.078 -21.3619 129.651 -21.2822 127.965C-21.1377 124.987 -21.1726 124.867 -22.9782 124.199C-23.9908 123.845 -25.4921 123.062 -26.3351 122.398C-27.188 121.79 -28.7892 120.932 -29.9563 120.493C-31.5624 119.975 -32.6298 118.987 -34.2011 116.717C-35.4132 114.966 -36.391 112.861 -36.386 111.899C-36.4359 110.926 -36.88 108.691 -37.4038 106.895C-37.9276 105.1 -38.4864 101.937 -38.676 99.8618C-38.8857 97.2728 -38.6962 94.9831 -37.9881 92.3342C-37.4994 90.2689 -36.4421 87.5701 -35.709 86.3428C-34.6467 84.5519 -34.128 84.1926 -32.5967 84.1875C-31.4146 84.2323 -30.3472 84.5963 -29.7786 85.2098C-29.2548 85.7585 -28.1475 87.1502 -27.4042 88.3623C-26.6061 89.5844 -25.1945 92.1084 -24.2866 93.974C-23.3787 95.8396 -22.2064 99.057 -21.6128 101.092C-21.0839 103.172 -20.3955 104.998 -20.0963 105.223C-19.797 105.447 -19.2333 107.023 -18.7993 108.689C-18.4301 110.4 -17.9811 112.296 -17.8514 112.83C-17.7865 113.408 -17.3176 113.947 -16.8787 114.027C-16.4398 114.107 -15.0981 113.273 -13.9809 112.116C-12.8188 111.023 -11.6866 109.472 -11.3625 108.624C-11.0483 107.831 -10.5795 107.122 -10.2204 107.017C-9.86124 106.913 -9.55202 106.459 -9.47224 106.02C-9.39246 105.581 -8.84386 104.433 -8.28029 103.515C-7.67182 102.662 -6.23549 99.7488 -5.03357 97.1896C-3.52743 93.8921 -2.21087 89.7665 -0.734806 83.5158C0.447042 78.5721 1.63886 73.5736 1.9231 72.3215C2.42177 70.2013 2.56142 70.0567 5.64383 69.3131C8.07285 68.7342 10.033 67.6165 13.8734 64.5732C16.6465 62.4129 19.5044 60.098 20.1827 59.4843C20.9159 58.8807 22.4171 57.1695 23.5842 55.7377C24.6864 54.3508 25.6989 52.8342 25.7687 52.4501C25.8285 52.1208 26.9906 50.4047 28.3172 48.7185C30.2424 46.234 31.1701 45.4956 33.3796 44.8768C34.871 44.4676 36.492 43.9686 36.9808 43.774C37.4596 43.6343 38.2975 43.3898 38.7664 43.3049C39.2352 43.2201 40.9659 42.741 42.6219 42.3617C44.2329 41.9176 47.3253 41.1191 49.46 40.6001C51.5948 40.0811 54.2632 39.4323 55.3954 39.1279C56.5177 38.8784 57.989 38.5789 58.6325 38.4691Z" fill="white"/>
<path d="M63.5552 86.8668C65.7896 85.1755 67.645 84.3223 69.9244 83.9429C72.3883 83.4837 74.184 83.5833 77.7852 84.3512C80.3439 84.9296 82.8628 85.7275 83.4065 86.1664C83.9502 86.6053 85.3867 87.4333 86.6437 88.0018C88.0552 88.6552 89.6015 90.1266 91.103 92.1567C92.3251 93.8527 93.2978 95.6734 93.198 96.2221C93.1083 96.716 92.6694 97.2598 92.3103 97.3645C91.8963 97.4594 90.6593 96.7811 89.5619 95.9581C88.4745 95.0802 85.811 93.5191 83.6612 92.5616C81.5214 91.5491 78.5287 90.5517 76.9924 90.2725C75.3464 89.9734 72.8326 90.0834 70.7178 90.4927C68.7776 90.877 65.6951 90.997 63.9195 90.7877C62.0341 90.5584 60.5726 90.1794 60.5227 89.8302C60.4728 89.4811 61.8394 88.1989 63.5552 86.8668Z" fill="black"/>
<path d="M3.08275 76.5568C3.43686 76.1677 5.71622 75.1648 8.17516 74.4213L12.6791 73.029L19.9314 74.2904C25.9217 75.3224 27.6475 75.8061 29.4083 77.033C30.5705 77.8111 31.9422 78.684 32.4509 79.0032C32.9148 79.2575 33.7478 80.5993 34.2966 81.9462C34.8453 83.293 35.1995 84.7745 35.1197 85.2135C35.0399 85.6525 34.7307 86.1065 34.3716 86.2113C34.0125 86.3161 32.7905 85.8672 31.6083 85.1989C30.3713 84.5206 28.2515 83.3984 26.805 82.6254C25.149 81.7575 22.2361 80.9447 18.7246 80.3066C15.707 79.7581 12.1008 79.3295 10.6693 79.4095C9.24779 79.4345 6.9185 79.4647 5.45209 79.4249C3.19761 79.3553 2.77863 79.1658 2.69878 78.3577C2.57904 77.7691 2.7835 76.9559 3.08275 76.5568Z" fill="black"/>
<path d="M11.4576 84.4277C13.6123 83.799 16.1012 83.5144 18.665 83.7536C20.7898 83.913 23.8273 84.3517 25.2888 84.7306C26.8051 85.1196 29.1943 86.0073 30.6059 86.6606C32.0623 87.3788 33.9328 88.6257 34.8107 89.4088C35.6886 90.1919 36.4119 91.5138 36.4269 92.3668C36.4868 93.2847 36.2026 94.5368 35.7886 95.2552C35.2998 96.0733 33.8484 96.8866 31.7486 97.5253C29.5939 98.1541 27.0601 98.3739 24.267 98.1497C21.9676 98.0152 18.3464 97.3571 16.3114 96.7038C13.9471 95.9907 11.4981 94.8087 9.80217 93.5368C7.90674 92.1153 6.98892 90.9281 6.79434 89.8157C6.60808 88.7615 6.78759 87.7738 7.33287 86.8526C7.87815 85.9313 9.25308 85.123 11.4576 84.4277Z" fill="black"/>
<path d="M62.8523 94.165C64.0393 93.8705 66.5532 93.7605 68.4036 93.8701C70.2541 93.9796 72.8428 94.3934 74.1945 94.7524C75.5462 95.1115 77.9254 96.054 79.4916 96.7922C81.2125 97.6151 82.8435 98.9319 83.6067 100.034C84.4497 101.321 84.6992 102.444 84.4499 103.815C84.1806 105.297 83.6569 105.995 82.2055 106.809C81.188 107.417 78.8139 108.006 77.0233 108.191C75.1778 108.366 71.816 108.152 69.5665 107.743C67.317 107.334 64.1497 106.362 62.5835 105.623C60.9175 104.81 59.1319 103.409 58.2689 102.232C57.2264 100.795 56.8572 99.7077 57.0667 98.5554C57.2561 97.5128 57.9594 96.4502 58.9868 95.7866C59.8946 95.158 61.6103 94.4494 62.8523 94.165Z" fill="black"/>
<path d="M11.169 97.8667C9.66768 97.0836 8.7449 96.2357 8.83465 95.7418C8.91443 95.3028 9.09397 94.9386 9.25857 94.9686C9.42317 94.9985 10.3958 95.572 11.4583 96.2753C12.4758 96.9137 15.3738 98.1206 17.9026 98.8637C21.8729 100.095 23.0999 100.205 27.0552 99.9602C29.5791 99.7953 32.1128 99.5756 32.6914 99.5106C33.3249 99.4557 33.6241 99.6802 33.5244 100.229C33.4147 100.833 31.8336 101.112 28.1177 101.287C23.8781 101.537 21.873 101.343 18.192 100.39C15.6532 99.7019 12.5058 98.6198 11.169 97.8667Z" fill="black"/>
<path d="M59.6358 107.185C58.728 106.567 58.1145 105.888 58.3289 105.644C58.4985 105.335 59.5759 105.644 60.8677 106.332C62.1048 107.01 65.5065 108.252 68.4842 109.02C72.6391 110.172 74.4597 110.446 76.4897 110.191C77.9411 110.002 79.3576 109.692 79.7367 109.478C80.0709 109.198 80.7692 109.099 81.3178 109.198C81.8665 109.298 82.2755 109.542 82.2356 109.762C82.1857 110.036 81.4376 110.41 80.5348 110.7C79.642 110.934 77.8115 111.339 76.5346 111.503C74.6044 111.833 73.0582 111.609 67.7162 110.127C64.1648 109.085 60.4888 107.794 59.6358 107.185Z" fill="black"/>
<path d="M53.9007 123.149C53.3769 121.977 53.1374 120.799 53.3519 120.555C53.6312 120.265 54.0552 120.116 54.4492 120.131C54.8333 120.2 55.7062 121.323 56.3746 122.635C57.043 123.947 57.8611 125.682 58.1056 126.521C58.35 127.359 58.365 128.835 58.1955 129.768C58.016 130.756 57.6469 131.539 57.3178 131.479C56.9886 131.419 56.9087 130.611 57.0683 129.733C57.2777 128.581 56.9884 127.678 56.0955 126.665C55.3373 125.847 54.3696 124.311 53.9007 123.149Z" fill="black"/>
<path d="M22.4127 120.204C22.4924 119.141 23.2206 118.253 24.7667 117.23C25.9887 116.432 27.2905 115.818 27.6745 115.888C28.0586 115.958 28.328 116.347 28.2681 116.676C28.1983 117.06 27.4253 117.884 26.5175 118.512C25.6098 119.141 24.8168 120.074 24.727 120.568C24.6273 121.116 25.3356 122.209 26.2684 123.002C27.3557 123.88 27.9094 124.887 27.7898 125.546C27.6801 126.149 27.3509 126.713 26.9918 126.818C26.6327 126.923 25.9892 126.409 25.4954 125.696C25.0016 124.982 24.2135 124.329 23.7745 124.249C23.3356 124.169 22.8218 123.566 22.6023 122.902C22.3828 122.239 22.3179 121.037 22.4127 120.204Z" fill="black"/>
<path d="M30.3585 125.446C30.2886 124.583 30.5828 123.899 31.0617 123.76C31.4856 123.61 32.7874 123.62 33.9396 123.829C35.5856 124.128 36.239 124.587 37.2666 126.418C38.3141 128.139 38.4289 129.067 38.0848 130.648C37.5612 132.594 37.4315 132.683 35.4913 132.444C33.5959 132.27 33.2068 131.916 31.8849 129.521C31.0719 128.07 30.3834 126.244 30.3585 125.446Z" fill="black"/>
<path d="M48.8335 131.071C48.8285 130.787 49.9208 130.078 51.2126 129.519C52.5593 128.97 54.0406 128.616 54.5893 128.716C55.0831 128.806 55.5619 129.289 55.6468 129.758C55.7316 130.227 54.9336 131.499 53.8912 132.557C52.5795 133.849 51.572 134.403 50.749 134.253C50.0357 134.124 49.3574 133.49 49.1379 132.827C48.9184 132.163 48.7737 131.4 48.8335 131.071Z" fill="black"/>
<path d="M29.9801 139.379C30.6284 137.059 31.3865 135.383 32.1097 134.834C32.7132 134.32 33.571 133.966 33.9551 134.036C34.394 134.115 34.6634 134.504 34.6036 134.834C34.4789 135.208 33.9801 136.081 33.4016 136.769C32.8231 137.458 32.2146 138.934 31.9603 140.022C31.7509 141.174 31.8208 142.661 32.0951 143.334C32.4393 144.247 32.3695 144.631 31.776 145.09C31.1276 145.539 30.7535 145.415 29.9804 144.367C29.1174 143.19 29.1074 142.621 29.9801 139.379Z" fill="black"/>
<path d="M63.119 141.036C62.8347 141.041 63.0691 140.687 63.5978 140.273C64.0617 139.904 64.8996 139.659 65.3934 139.749C65.8872 139.839 67.3087 140.437 68.6006 141.126C70.4013 142.133 71.0597 142.876 71.5585 144.497C71.8529 145.685 72.0225 147.246 71.8829 148.014C71.7433 148.783 71.4541 149.75 71.2097 150.159C70.9653 150.568 70.5663 150.893 70.2371 150.833C69.9079 150.773 69.838 149.91 70.0175 148.922C70.1971 147.935 69.8728 146.289 69.2941 145.106C68.5808 143.73 67.6031 142.872 66.2814 142.348C65.1693 141.919 64.122 141.446 63.9122 141.351L63.9121 141.351C63.6577 141.191 63.3385 141.076 63.119 141.036Z" fill="black"/>
<path d="M4.48238 135.595C4.9063 134.822 6.27289 133.54 7.38512 132.721C9.0809 131.499 9.78916 131.344 11.3603 131.743C12.6206 132.086 13.2009 132.531 13.1011 133.08C13.0214 133.519 12.338 133.848 11.55 133.818C10.7619 133.788 9.50001 134.183 8.66708 134.712C7.88901 135.25 6.80673 136.528 6.28805 137.51C5.76938 138.493 5.35049 140.174 5.34555 141.137C5.32067 142.21 5.10624 143.078 4.74712 143.182C4.38801 143.287 3.82437 142.958 3.45525 142.494C2.9764 142.01 2.85663 140.798 3.18076 139.326C3.41013 138.064 3.99362 136.413 4.48238 135.595Z" fill="black"/>
<path d="M38.0354 140.276C38.1601 139.278 38.6339 138.23 39.1426 137.926C39.6513 137.622 40.2499 137.447 40.4693 137.487C40.6888 137.527 40.7487 138.445 40.5592 139.487C40.3498 140.64 40.6691 142.625 41.3575 144.451C41.9661 146.092 42.3552 147.693 42.1308 147.992C41.9163 148.237 41.3727 148.421 40.9338 148.342C40.4948 148.262 39.572 146.79 38.9634 145.149C38.3099 143.443 37.9108 141.273 38.0354 140.276Z" fill="black"/>
<path d="M10.932 144.08C11.3459 141.491 11.8296 139.141 12.0191 138.722C12.2535 138.368 12.8071 138.128 13.3009 138.218C13.7398 138.298 14.8173 139.23 15.6453 140.288C16.4284 141.281 17.6854 142.473 18.4136 142.832C19.1419 143.191 20.1395 143.939 20.6732 144.433C21.1969 144.982 21.9601 145.46 22.3441 145.53C22.6733 145.59 23.7657 146.129 24.6735 146.747C25.5264 147.356 26.9729 148.129 27.8658 148.518C28.7686 148.852 30.9932 149.71 32.9185 150.343C34.8338 151.031 39.2481 152.003 42.7246 152.522C47.1438 153.155 49.7275 153.284 51.1639 152.865C52.2961 152.561 53.6777 152.132 54.1566 151.992C54.6453 151.797 55.7327 151.428 56.5706 151.184C57.4185 150.884 59.1592 150.35 60.5308 149.976C61.8576 149.537 63.4337 148.973 64.0073 148.624C64.8302 148.15 65.1045 148.2 65.5984 148.913C65.9027 149.422 66.3366 150.464 66.5262 151.292C66.7707 152.13 66.8805 154.021 66.8207 155.597C66.7111 158.072 66.6164 158.281 66.0876 157.448C65.7285 156.929 65.2396 155.253 64.551 150.933L61.4387 151.842C59.698 152.375 58.1219 152.939 57.9174 153.129C57.7229 153.264 55.8425 153.942 49.7625 155.898L39.6123 154.054C30.5693 152.353 29.1079 151.974 26.1251 150.299C24.2696 149.281 21.5063 147.645 19.98 146.688C18.4637 145.675 16.4136 144.169 13.7999 141.71L12.8574 145.337C12.1293 148.095 11.6854 148.978 11.0819 148.869C10.4235 148.749 10.3736 147.776 10.932 144.08Z" fill="black"/>
<path d="M34.5268 193.887C37.3 193.597 40.7565 192.978 42.2578 192.514C43.7591 192.05 45.44 191.845 45.9886 191.945C46.5822 192.11 47.081 192.484 47.1309 192.833C47.1359 193.117 46.273 193.811 45.1658 194.29C44.1233 194.724 40.1781 195.537 36.522 196.007C30.7063 196.82 29.3496 196.801 26.0427 195.973C23.1098 195.27 20.9251 194.193 16.411 191.275C13.2237 189.165 10.4006 187.235 10.1212 186.901C9.84189 186.566 9.85683 186.172 10.1711 186.003C10.4404 185.768 12.3358 186.566 14.4008 187.678C16.4109 188.781 19.5483 190.541 21.339 191.603C23.0748 192.656 25.5987 193.738 26.9703 193.987C28.342 194.237 31.6988 194.167 34.5268 193.887Z" fill="black"/>
<path d="M9.64149 86.9321C10.3447 86.4931 12.3149 85.9442 14.0706 85.6397C16.2951 85.2504 18.7591 85.4147 22.2256 85.988C24.9141 86.4766 27.6275 87.1398 28.2011 87.4141C29.1488 87.8131 29.1787 88.272 28.4656 91.2602C27.8672 93.9291 27.8623 94.8918 28.5008 95.7448C29.2739 96.7923 29.1991 96.8921 26.5057 96.7427C24.9844 96.693 21.3533 96.0897 18.5302 95.4066C14.6646 94.534 12.7492 93.8458 10.9985 92.564C9.18285 91.327 8.54436 90.474 8.53433 89.2818C8.50434 88.1993 8.79859 87.5159 9.64149 86.9321Z" fill="white"/>
<path d="M60.3179 96.8789C61.1508 96.3501 62.9464 95.8261 64.3978 95.6364C65.8393 95.5016 69.0913 95.6958 71.67 96.1644C74.2587 96.5782 77.0719 97.3162 79.4361 98.6529L77.6659 106.834L75.0274 106.695C73.5061 106.645 70.259 106.112 67.7102 105.478C64.119 104.656 62.5877 104.037 60.8668 102.591C59.1809 101.264 58.6521 100.431 58.8067 99.2686C58.8765 98.2609 59.4201 97.4527 60.3179 96.8789Z" fill="white"/>
</g>
</svg>
