<svg width="1440" height="333" viewBox="0 0 1440 333" fill="none" xmlns="http://www.w3.org/2000/svg">
<path opacity="0.7" d="M-385 59.9837L-139.346 38.5129C-45.6604 30.3247 48.6072 31.4814 142.063 41.966V41.966C177.522 45.9441 213.362 44.9709 248.553 39.0743L457.683 4.03242C481.59 0.0264982 505.904 -0.976511 530.06 1.04668L641.595 10.3883C711.772 16.266 781.065 30.0283 848.163 51.4148L937.841 79.9986C1033.69 110.55 1137.55 103.763 1228.61 60.9957V60.9957C1298.38 28.2282 1375.36 13.8257 1452.26 19.154L1710.83 37.0713L1740 279.337H1381.14L988.611 326.295C847.223 343.21 703.839 327.711 569.331 280.975L455.5 241.424L221 265.046L17 297.91L-78.8046 311.792C-147.178 321.7 -216.945 314.305 -281.722 290.285V290.285L-385 59.9837Z" fill="#FACFBB"/>
</svg>
