<svg width="151" height="45" viewBox="0 0 151 45" fill="none" xmlns="http://www.w3.org/2000/svg">
<path d="M28.0982 9.06045C25.9294 7.27062 22.9604 6.38623 19.1701 6.38623H9.73667V7.71281H19.0017C22.2234 7.71281 25.1292 8.36557 26.919 9.92377C28.7089 11.482 30.0354 13.7561 30.0354 16.5777C30.0354 19.3151 28.8563 21.3155 27.0243 22.8527C25.1924 24.3898 21.8654 25.0636 18.5595 25.0636H7.92578V26.3902H18.6437C22.6234 26.3902 25.7398 25.5269 27.9929 23.8002C30.225 22.0736 31.362 19.631 31.362 16.4935C31.362 13.2929 30.2671 10.8292 28.0982 9.06045Z" fill="#1C1E1D"/>
<path d="M27.2988 10.9553C25.9512 9.92351 24.414 9.10229 20.0342 9.10229H12.7485V10.3868C12.7485 10.3868 16.0123 10.3446 19.8657 10.3868C23.5928 10.4289 24.9615 10.85 26.2249 11.7765C27.8252 12.9557 28.8359 14.4297 28.8359 16.4722C28.8359 18.4515 27.8252 19.8413 26.2038 21.0415C24.5614 22.2628 22.0346 22.2628 21.0028 22.3049C20.6238 22.3049 15.5912 22.3049 15.5912 22.3049V23.5894C15.5912 23.5894 18.0759 23.6315 19.6341 23.5894C23.1717 23.5052 25.2773 23.2946 27.2356 21.8417C29.0676 20.473 30.0362 18.6831 30.0362 16.409C30.0362 13.4189 28.5201 11.9239 27.2988 10.9553Z" fill="#1C1E1D"/>
<path d="M26.6458 12.661C25.6351 12.0293 24.7507 11.6082 20.5604 11.6082H15.3173V12.4504H20.413C24.119 12.4504 25.5088 13.1032 25.951 13.3769C26.7932 13.8823 27.8882 14.7246 27.8882 16.4091C27.8882 17.483 27.2565 18.8517 26.3089 19.3781C25.4456 19.8624 23.8663 20.3046 21.1079 20.3046H4.00977V21.1469H21.15C24.4981 21.1469 25.6351 20.7679 26.8143 20.1151C27.9935 19.4624 28.7936 18.1147 28.7936 16.4091C28.7936 14.4719 27.7197 13.3348 26.6458 12.661Z" fill="#1C1E1D"/>
<path d="M29.9742 21.9889C27.8053 20.1991 24.8363 19.3147 21.0461 19.3147H14.7291V20.6413H20.8566C24.0783 20.6413 26.9841 21.3151 28.774 22.8522C30.5638 24.3894 31.9114 26.6846 31.9114 29.5062C31.9114 32.2436 30.7533 34.244 28.9003 35.7811C27.0473 37.3183 23.7414 37.9921 20.4355 37.9921H9.80176V39.3187H20.5197C24.4994 39.3187 27.6158 38.4553 29.8689 36.7287C32.122 35.002 33.238 32.5594 33.238 29.422C33.2169 26.2424 32.143 23.7787 29.9742 21.9889Z" fill="#1C1E1D"/>
<path d="M29.173 23.8843C27.8254 22.8735 26.2882 22.0312 21.9084 22.0312H12.0117V23.3157C12.0117 23.3157 17.8866 23.2736 21.74 23.3157C25.467 23.3578 26.8357 23.779 28.0991 24.7055C29.6994 25.8847 30.7102 27.3586 30.7102 29.4011C30.7102 31.3805 29.6994 32.7702 28.0781 33.9705C26.4356 35.1918 23.9088 35.1918 22.877 35.2339C22.498 35.2339 17.4654 35.2339 17.4654 35.2339V36.5183C17.4654 36.5183 19.9712 36.5605 21.5083 36.5183C25.0459 36.4341 27.1516 36.2235 29.1099 34.7706C30.9418 33.4019 31.9104 31.6121 31.9104 29.338C31.9104 26.369 30.4154 24.8529 29.173 23.8843Z" fill="#1C1E1D"/>
<path d="M14.1187 28.2643H23.4047V27.5483H14.1187V28.2643Z" fill="#1C1E1D"/>
<path d="M17.9507 30.7698H23.3412V30.1592H17.9507V30.7698Z" fill="#1C1E1D"/>
<path d="M9.80176 28.2643H12.5391V27.5483H9.80176V28.2643Z" fill="#1C1E1D"/>
<path d="M8.0752 30.8116H16.4348V30.0957H8.0752V30.8116Z" fill="#1C1E1D"/>
<path d="M10.1377 12.387H13.4015V11.7974H10.1377V12.387Z" fill="#1C1E1D"/>
<path d="M7.88477 17.1882H15.3178V16.5144H7.88477V17.1882Z" fill="#1C1E1D"/>
<path d="M8.0752 36.4341H15.9294V35.5918H8.0752V36.4341Z" fill="#1C1E1D"/>
<path d="M6.13721 39.2345H8.09549V37.9922H6.13721V39.2345Z" fill="#1C1E1D"/>
<path d="M11.0225 15.0823H23.3618V14.4084H11.0225V15.0823Z" fill="#1C1E1D"/>
<path d="M17.1919 17.1882H23.1299V16.5144H17.1919V17.1882Z" fill="#1C1E1D"/>
<path d="M28.5208 25.7164C27.5101 25.1057 26.6257 24.6846 22.4354 24.6846H15.7815V25.5058H22.3091C26.0151 25.5058 27.4259 26.1375 27.847 26.3902C28.6682 26.8745 29.7843 27.6746 29.7843 29.3171C29.7843 30.3699 29.1525 31.6754 28.205 32.1808C27.3417 32.644 25.7624 33.0652 23.004 33.0652H5.88477V33.8864H23.025C26.3731 33.8864 27.5101 33.5284 28.6893 32.8967C29.8685 32.265 30.6476 30.9806 30.6476 29.3171C30.6686 27.4851 29.5947 26.3902 28.5208 25.7164Z" fill="#1C1E1D"/>
<path d="M46.083 23.8842V31.4015H50.189C51.9578 31.4015 53.3476 31.0646 54.3162 30.3908C55.2637 29.7801 55.8112 28.7273 55.7902 27.5902C55.7902 25.1266 53.7055 23.8842 49.5573 23.8842H46.083ZM46.083 14.9351V21.6733H49.1783C50.8418 21.6733 52.1263 21.3574 53.0738 20.7047C54.0003 20.1151 54.5478 19.0622 54.5057 17.9673C54.5057 15.9458 52.8633 14.914 49.5573 14.914L46.083 14.9351ZM43.0508 33.6125V12.7241H50.3996C52.6316 12.7241 54.4004 13.1663 55.7059 14.0507C57.0115 14.9351 57.6642 16.0932 57.6642 17.504C57.6853 18.6411 57.2641 19.7571 56.485 20.5994C55.6849 21.4838 54.611 22.0944 53.2212 22.4734V22.5366C54.9689 22.7051 56.3587 23.2315 57.3905 24.1369C58.4223 25.0002 58.9908 26.2847 58.9487 27.6324C58.9487 29.4222 58.1485 30.854 56.5693 31.9701C54.99 33.0861 52.9896 33.6335 50.5681 33.6335H43.0508V33.6125Z" fill="#1C1E1D"/>
<path d="M62.317 33.6123H65.265V18.7041H62.317V33.6123ZM63.8121 14.8928C63.3278 14.9138 62.8435 14.7454 62.4644 14.4506C62.1065 14.1979 61.8959 13.7768 61.917 13.3556C61.917 12.9134 62.1275 12.4923 62.4644 12.2396C62.8435 11.9448 63.3278 11.7764 63.8121 11.7974C64.3174 11.7764 64.8018 11.9448 65.1808 12.2396C65.7914 12.6818 65.9178 13.5241 65.4966 14.1347C65.4124 14.2611 65.3071 14.3664 65.1808 14.4506C64.8018 14.7664 64.3174 14.9138 63.8121 14.8928Z" fill="#1C1E1D"/>
<path d="M78.2996 33.4653C77.6047 33.7812 76.6782 33.9285 75.5411 33.9285C72.3194 33.9285 70.6981 32.4756 70.6981 29.5487V20.7259H67.5396V18.6834H70.6981V15.0406L73.646 14.2615V18.6834H78.2785V20.7259H73.646V29.1276C73.646 30.1173 73.8566 30.8332 74.2777 31.2754C74.6989 31.7176 75.3937 31.9071 76.3624 31.9071C77.0362 31.9281 77.71 31.7597 78.2785 31.4017L78.2996 33.4653Z" fill="#1C1E1D"/>
<path d="M105.104 33.6123H102.346V20.7256C102.367 19.4832 102.43 18.2198 102.577 16.9774H102.514C102.346 17.6091 102.093 18.2408 101.798 18.8304L93.6912 33.5913H92.3225L84.2366 18.9357C83.9208 18.304 83.6892 17.6513 83.5207 16.9564H83.4575C83.5628 18.1987 83.6049 19.4621 83.5839 20.7256V33.5913H80.9097V14.3875H84.5946L91.8803 27.7796C92.3014 28.5166 92.6804 29.2957 92.9752 30.0958H93.0805C93.5648 29.043 93.9438 28.2639 94.2176 27.7375L101.651 14.3875H105.125V33.6123" fill="#1C1E1D"/>
<path d="M120.097 26.0527L115.654 26.5581C114.285 26.7055 113.253 26.9792 112.558 27.3793C111.863 27.7794 111.505 28.4743 111.505 29.464C111.505 30.1799 111.863 30.8537 112.474 31.2538C113.106 31.717 113.969 31.9487 115.043 31.9487C116.517 31.9487 117.717 31.5275 118.665 30.7063C119.591 29.9272 120.118 28.7691 120.097 27.5478V26.0527ZM123.044 33.6121H120.097V31.2748H120.033C118.749 33.0647 116.854 33.9491 114.369 33.9491C112.537 33.9491 111.105 33.549 110.052 32.7699C109.042 32.0539 108.473 30.8748 108.494 29.6324C108.494 26.8529 110.516 25.2315 114.58 24.7683L120.097 24.1366C120.097 21.6098 118.833 20.3463 116.306 20.3463C114.158 20.3253 112.074 20.957 110.305 22.1783V19.7357C112.116 18.8092 114.201 18.3459 116.559 18.3459C120.897 18.3459 123.044 20.1989 123.044 23.9049V33.6121Z" fill="#1C1E1D"/>
<path d="M136.732 21.1046C136.206 20.7888 135.469 20.6203 134.5 20.6203C133.279 20.5993 132.121 21.1257 131.342 22.0733C130.499 23.0419 130.078 24.3474 130.078 26.0109V33.6124H127.13V18.7042H130.078V21.7785H130.141C130.521 20.7888 131.194 19.9255 132.079 19.3148C132.921 18.7252 133.932 18.4304 134.985 18.4304C135.574 18.4094 136.185 18.4725 136.753 18.641L136.732 21.1046Z" fill="#1C1E1D"/>
<path d="M147.008 33.4653C146.313 33.7812 145.386 33.9285 144.249 33.9285C141.027 33.9285 139.406 32.4756 139.406 29.5487V20.7259H136.248V18.6834H139.406V15.0406L142.354 14.2615V18.6834H146.987V20.7259H142.354V29.1276C142.354 30.1173 142.565 30.8332 142.986 31.2754C143.407 31.7176 144.102 31.9071 145.07 31.9071C145.744 31.9281 146.418 31.7597 146.987 31.4017L147.008 33.4653Z" fill="#1C1E1D"/>
</svg>
