<svg width="151" height="35" viewBox="0 0 151 35" fill="none" xmlns="http://www.w3.org/2000/svg">
<path d="M3.46366 8.21821L12.2435 16.9032L18.2664 10.9684L24.2893 16.9032L28.4282 12.8131L26.4093 10.8001H34.2489V18.6132L32.1963 16.5665L24.2893 24.3459L18.2664 18.4112L12.2772 24.3796L5.8836 18.0746C5.95101 20.8922 7.09357 23.7097 9.24725 25.854C13.4198 30.0114 20.0123 30.3143 24.5556 26.7932L28.3237 30.55C25.196 33.1655 21.2931 34.5087 17.4238 34.5087C13.0828 34.5087 8.7754 32.8659 5.47915 29.5771C-0.341524 23.777 -1.0156 14.7521 3.46029 8.21484L3.46366 8.21821ZM5.92067 5.33333C12.2132 -0.466737 21.8357 -0.635059 28.2967 4.79808L24.4949 8.52116C22.4086 6.91209 19.9179 6.10756 17.3969 6.10756C14.6365 6.10756 11.8795 7.11408 9.69215 9.05978L5.92405 5.3367L5.92067 5.33333Z" fill="#7650FF"/>
<path d="M64.6939 27.1367C62.0684 29.7085 58.6811 30.9035 54.9973 30.9035C45.5197 30.9035 41.509 24.4201 41.4719 17.8256C41.4348 11.1941 45.7725 4.45483 54.9973 4.45483C58.4587 4.45483 61.7415 5.76093 64.367 8.33275L61.1584 11.4129C59.4833 9.78025 57.2218 9.01948 54.9973 9.01948C48.8362 9.01948 46.177 13.5841 46.2107 17.8256C46.2478 22.0267 48.6913 26.4129 54.9973 26.4129C57.2218 26.4129 59.7361 25.5074 61.4145 23.8411L64.6939 27.14V27.1367ZM70.3057 21.4107C70.3057 24.1272 71.947 26.6654 75.1894 26.6654C78.4317 26.6654 80.0764 24.1306 80.0764 21.4107C80.0764 18.6907 78.1789 16.1223 75.1894 16.1223C71.9807 16.1223 70.3057 18.7311 70.3057 21.4107ZM84.5591 21.4107C84.5591 26.5543 81.0235 30.7217 75.1894 30.7217C69.3552 30.7217 65.8567 26.5543 65.8567 21.4107C65.8567 16.267 69.4294 12.0996 75.1523 12.0996C80.8752 12.0996 84.5557 16.3041 84.5557 21.4107M87.616 30.3245H92.0616V12.3891H87.616V30.3245ZM92.4626 7.42723C92.4626 10.8675 87.2149 10.8675 87.2149 7.42723C87.2149 3.98691 92.4626 3.98354 92.4626 7.42723ZM106.133 12.1737C110.359 12.1737 113.75 15.3245 113.75 20.9428V30.3279H109.305V20.9798C109.305 18.2632 107.808 16.1963 104.967 16.1963C102.126 16.1963 100.373 18.4787 100.373 21.1952V30.3245H95.9611V12.4261H99.9348L100.228 14.8532C102.051 13.0792 103.875 12.1737 106.133 12.1737ZM118.051 4.96312L124.067 23.2621L130.265 4.96312H133.399L139.78 23.2621L145.614 4.96312H151.01L141.825 30.3245H137.741L134.569 22.3532L131.869 14.3449L129.21 22.4239L126.113 30.3245H122.028L112.661 4.96312H118.057H118.051Z" fill="black"/>
</svg>
