<svg width="143" height="41" viewBox="0 0 143 41" fill="none" xmlns="http://www.w3.org/2000/svg">
<path d="M23.0453 4.37966C23.0453 4.73762 23.0032 5.09559 22.8979 5.4325L30.2467 9.6228C31.8049 8.02249 34.3528 8.00143 35.9531 9.55963C37.5535 11.1178 37.5745 13.6657 36.0163 15.266C35.5109 15.7925 34.8582 16.1715 34.1422 16.361V24.6784C36.3111 25.2259 37.5956 27.4369 37.0481 29.6057C36.5006 31.7746 34.2896 33.059 32.1208 32.5116C31.4049 32.3221 30.7521 31.943 30.2257 31.4166L22.8768 35.6069C23.4664 37.7547 22.182 39.9657 20.0342 40.5553C17.8864 41.1449 15.6754 39.8604 15.0858 37.7126C15.0016 37.3757 14.9384 37.0177 14.9384 36.6598C14.9384 36.3018 14.9805 35.9438 15.0858 35.6069L7.73699 31.4166C6.17879 33.0169 3.63091 33.038 2.0306 31.4798C0.430277 29.9216 0.409221 27.3737 1.96743 25.7734C2.47279 25.247 3.12555 24.8679 3.84148 24.6784V16.361C1.67263 15.8135 0.388164 13.6025 0.935641 11.4337C1.48312 9.26484 3.69408 7.98037 5.86294 8.52785C6.57887 8.71736 7.23163 9.09638 7.75805 9.6228L15.1069 5.4325C14.5173 3.2847 15.8018 1.07374 17.9496 0.484145C20.0973 -0.105446 22.3083 1.17902 22.8979 3.32682C23.0032 3.68478 23.0453 4.04275 23.0453 4.37966ZM17.9917 8.29622C17.2757 8.10671 16.623 7.72769 16.1176 7.20127L8.78983 11.3916C9.37943 13.5394 8.11602 15.7503 5.96822 16.3399C5.94716 16.3399 5.92611 16.3399 5.92611 16.361V24.6784C6.64204 24.8679 7.2948 25.247 7.80016 25.7734L15.149 21.562C14.5594 19.4142 15.8228 17.2033 17.9706 16.6137C17.9917 16.6137 18.0127 16.6137 18.0338 16.5926L17.9917 8.29622ZM20.0131 8.29622V16.6137C21.8029 17.0769 23.0453 18.6772 23.0453 20.5302C23.0453 20.8882 23.0032 21.2462 22.8979 21.5831L30.2467 25.7944C30.7521 25.268 31.4049 24.889 32.1208 24.6995V16.361C30.331 15.8977 29.0886 14.2974 29.0886 12.4444C29.0886 12.0865 29.1307 11.7285 29.236 11.3916L21.9082 7.18022C21.3818 7.74875 20.7291 8.12777 20.0131 8.29622ZM19.0024 24.5731C17.9074 24.5731 16.8757 24.131 16.1176 23.3519L8.78983 27.5422C8.97935 28.237 8.97935 28.974 8.78983 29.6689L16.1387 33.8592C17.6969 32.2589 20.2658 32.2378 21.8451 33.796C21.8661 33.8171 21.8872 33.8381 21.9082 33.8592L29.2571 29.6689C29.0676 28.974 29.0676 28.237 29.2571 27.5422L21.9082 23.3519C21.1502 24.131 20.0973 24.5731 19.0024 24.5731Z" fill="#050505"/>
<path d="M45.2598 7.2857C45.2387 7.39099 45.2176 7.47521 45.2387 7.5805V33.4383C45.2176 33.5646 45.2387 33.6699 45.2808 33.7962C45.3019 33.8594 45.365 33.9015 45.4282 33.9436C45.5335 33.9858 45.6598 33.9858 45.7862 33.9858H58.5466C63.0949 33.9858 66.7798 30.3008 66.7798 25.7525C66.7798 23.3731 65.7691 21.12 63.9793 19.5618C66.5061 16.0032 65.6638 11.0759 62.1052 8.54911C60.7786 7.60156 59.1783 7.09619 57.5359 7.09619H45.7651C45.6598 7.09619 45.5756 7.09619 45.4703 7.11725C45.365 7.13831 45.3019 7.20148 45.2598 7.2857ZM50.6292 22.8888H58.5256C60.1048 22.8467 61.4103 24.089 61.4525 25.6683C61.4946 27.2476 60.2522 28.5531 58.673 28.5952C58.6308 28.5952 58.5677 28.5952 58.5256 28.5952H50.6292V22.8888ZM57.5148 12.4657C58.9046 12.4657 60.0417 13.6028 60.0417 14.9925C60.0417 16.3823 58.9046 17.5193 57.5148 17.5193H50.6292V12.4657H57.5148Z" fill="#050505"/>
<path d="M72.3183 11.7914C74.0871 11.7914 75.5189 10.3595 75.5189 8.59077C75.5189 6.822 74.0871 5.39014 72.3183 5.39014C70.5495 5.39014 69.1177 6.822 69.1177 8.59077C69.1177 10.3595 70.5495 11.7914 72.3183 11.7914Z" fill="#050505"/>
<path d="M69.4972 13.9815C69.455 14.0867 69.455 14.2131 69.455 14.3394V33.438C69.434 33.5643 69.455 33.6696 69.4972 33.7959C69.5182 33.8591 69.5814 33.9012 69.6446 33.9433C69.7498 33.9854 69.8762 33.9854 70.0025 33.9854H74.635C74.7614 34.0065 74.8666 33.9854 74.993 33.9433C75.0562 33.9223 75.0983 33.8591 75.1404 33.7959C75.1825 33.6906 75.1825 33.5643 75.1825 33.438V14.3394C75.2036 14.2131 75.1825 14.1078 75.1404 13.9815C75.1193 13.9183 75.0562 13.8762 74.993 13.8341C74.8877 13.792 74.7614 13.792 74.635 13.792H70.0025C69.8762 13.7709 69.7709 13.792 69.6446 13.8341C69.5814 13.8762 69.5182 13.9183 69.4972 13.9815Z" fill="#050505"/>
<path d="M78.5293 7.62239C78.5082 7.49605 78.5293 7.39076 78.5714 7.26442C78.5924 7.20125 78.6556 7.15914 78.7188 7.11702C78.8241 7.07491 78.9504 7.07491 79.0767 7.07491H83.3723C83.4987 7.05385 83.604 7.07491 83.7303 7.11702C83.7935 7.13808 83.8356 7.20125 83.8777 7.26442C83.9198 7.36971 83.9198 7.49605 83.9198 7.62239V14.6764C85.5412 13.6657 87.3942 13.1393 89.3103 13.1393C95.0589 13.1393 99.7335 17.9613 99.7335 23.8993C99.7335 29.8373 95.0589 34.6593 89.3103 34.6593C87.2468 34.6593 85.2464 34.0276 83.5408 32.8695L81.7088 33.9224C81.6878 33.9434 81.6457 33.9645 81.6246 33.9645C81.6036 33.9645 81.5825 33.9855 81.5614 33.9855H79.0978C78.9715 34.0066 78.8662 33.9855 78.7398 33.9434C78.6767 33.9224 78.6345 33.8592 78.5924 33.796C78.5503 33.6907 78.5503 33.5644 78.5503 33.438L78.5293 7.62239ZM89.1208 29.2688C92.0056 29.2688 94.3429 26.8473 94.3429 23.8783C94.3429 20.9092 92.0056 18.5088 89.1208 18.5088C86.2361 18.5088 83.8987 20.9303 83.8987 23.8993C83.8987 26.8683 86.2571 29.2688 89.1208 29.2688Z" fill="#050505"/>
<path d="M122.602 13.813H129.088L132.709 19.1404L136.331 13.813H142.775L135.931 23.8992L142.775 33.9854H136.289L132.667 28.658L129.046 33.9854H122.56L129.404 23.8992L122.602 13.813Z" fill="#050505"/>
<path d="M112.515 34.6595C118.453 34.6595 123.275 29.8375 123.275 23.8994C123.275 17.9614 118.453 13.1394 112.515 13.1394C106.577 13.1394 101.755 17.9614 101.755 23.8994C101.755 29.8375 106.556 34.6595 112.515 34.6595Z" fill="#247BFF"/>
<path d="M112.389 16.4454C112.199 16.4033 112.031 16.4876 111.968 16.6771L111.525 18.2984L109.904 17.8562C109.715 17.8141 109.546 17.8984 109.483 18.0879L109.146 19.3934C109.104 19.5829 109.188 19.7514 109.378 19.8145L110.346 20.0672L108.788 25.921L107.819 25.6683C107.63 25.6262 107.461 25.7104 107.398 25.9L107.061 27.2055C107.019 27.395 107.104 27.5634 107.293 27.6266L108.914 28.0688L108.472 29.6902C108.43 29.8797 108.514 30.0481 108.704 30.1113L109.357 30.2798C109.546 30.3219 109.715 30.2377 109.778 30.0482L110.22 28.4268L111.504 28.7637L111.062 30.3851C111.02 30.5535 111.125 30.743 111.294 30.8062L111.947 30.9746C112.136 31.0168 112.305 30.9325 112.368 30.743L112.81 29.1216L113.252 29.248C114.873 29.7112 116.579 28.7637 117.042 27.1423C117.316 26.1526 117.106 25.0998 116.432 24.3207C117.653 23.2889 117.8 21.457 116.748 20.2357C116.39 19.8356 115.947 19.5197 115.421 19.3513L115.863 17.7299C115.905 17.5615 115.8 17.3719 115.632 17.3088L114.979 17.1403C114.81 17.0771 114.621 17.1824 114.558 17.3719L114.115 18.9933L112.81 18.6564L113.252 17.035C113.294 16.8455 113.21 16.6771 113.02 16.6139L112.389 16.4454ZM111.336 24.2575L114.305 25.0577C114.916 25.2261 115.274 25.8368 115.105 26.4474C114.937 27.0581 114.326 27.416 113.715 27.2476L110.767 26.4474L111.336 24.2575ZM114.705 21.2464C115.21 21.3938 115.526 21.9202 115.379 22.4256C115.231 22.9309 114.705 23.2468 114.2 23.0994L111.799 22.4677L112.305 20.5936L114.705 21.2464Z" fill="white"/>
</svg>
