<svg width="114" height="34" viewBox="0 0 114 34" fill="none" xmlns="http://www.w3.org/2000/svg">
<path fill-rule="evenodd" clip-rule="evenodd" d="M24.1543 15.6534C27.1424 19.6414 31.1779 21.7632 36.0869 22.288C37.8831 22.4815 37.8863 22.4388 37.8863 24.2196C37.8863 26.0201 37.8371 27.8239 37.906 29.6211C37.9422 30.5426 37.581 30.7328 36.7568 30.6771C30.2487 30.2376 24.5648 27.9223 19.8495 23.3506C19.5836 23.0947 19.3865 22.6684 18.8874 22.7799C18.5624 22.6258 18.3883 22.3142 18.1519 22.0682C17.8137 21.5894 17.4558 21.1336 17.0815 20.681C15.988 19.1363 14.8946 17.5949 14.0704 15.8863C11.4107 12.0984 7.63783 10.147 3.19184 9.32384C2.29214 9.15658 1.0575 9.39928 0.55183 8.88439C-0.0425007 8.28095 0.384367 7.04454 0.361382 6.08363C0.331829 4.76196 0.42377 3.43703 0.331829 2.12192C0.256307 1.07246 0.58795 0.774015 1.63542 0.842886C8.03843 1.25939 13.5877 3.60755 18.2636 8.00545C18.5492 8.27437 18.8513 8.5269 19.1468 8.78927C19.6755 8.96309 20.0236 9.35664 20.3552 9.77642C20.5982 10.1765 20.9167 10.5209 21.2024 10.8882C22.2728 12.423 23.3958 13.9218 24.1576 15.6469L24.1543 15.6534Z" fill="#2A54FE"/>
<path fill-rule="evenodd" clip-rule="evenodd" d="M113.376 25.4331C112 25.4331 110.648 25.4102 109.295 25.443C108.717 25.4561 108.566 25.0428 108.339 24.6821C107.338 23.0816 106.343 21.478 105.21 19.6611C104.159 21.3468 103.138 22.8914 102.225 24.4984C101.795 25.2527 101.289 25.5118 100.442 25.4528C99.3159 25.3774 98.183 25.4331 96.8564 25.4331C98.7051 22.4684 100.429 19.6316 102.235 16.8472C102.708 16.1192 102.734 15.6239 102.245 14.8762C100.445 12.1181 98.7412 9.30091 96.8597 6.27715C98.449 6.27715 99.8675 6.26731 101.289 6.28043C101.779 6.28371 101.89 6.74613 102.091 7.06097C103.125 8.68435 104.143 10.3209 105.213 12.0295C106.284 10.3176 107.315 8.74012 108.257 7.11345C108.645 6.4477 109.091 6.21485 109.843 6.25421C110.976 6.31324 112.115 6.27062 113.228 6.27062C113.468 6.76256 113.104 6.99538 112.94 7.2643C111.373 9.80596 109.817 12.3575 108.182 14.8532C107.702 15.5813 107.679 16.0929 108.162 16.8275C109.748 19.2544 111.262 21.7272 112.785 24.1934C113.005 24.5509 113.353 24.8592 113.373 25.4331H113.376Z" fill="black"/>
<path fill-rule="evenodd" clip-rule="evenodd" d="M67.567 18.4113C67.567 16.4304 67.6426 14.4463 67.5375 12.472C67.4817 11.4094 67.8691 11.1274 68.7951 11.2946C69.8229 11.4816 70.9721 10.8191 71.9047 11.7669C71.9966 11.8587 72.3873 11.6652 72.6369 11.5931C76.5312 10.4911 80.3534 12.4523 80.1531 17.329C80.0578 19.6575 80.1104 21.9926 80.1531 24.3243C80.1662 25.1213 80.0414 25.4657 79.099 25.4591C76.0354 25.4361 76.0354 25.482 76.0354 22.4156C76.0354 20.7004 76.0453 18.9819 76.0354 17.2667C76.0223 15.7351 75.2244 14.7841 73.9471 14.7316C72.6238 14.6791 71.7109 15.6401 71.6847 17.2438C71.6453 19.6182 71.6518 21.9959 71.6847 24.3735C71.6945 25.0983 71.6223 25.4558 70.7193 25.4591C67.5703 25.4755 67.5703 25.5181 67.5703 22.3697V18.408L67.567 18.4113Z" fill="black"/>
<path fill-rule="evenodd" clip-rule="evenodd" d="M24.6532 4.53267C28.4064 2.11891 32.5634 1.05306 36.9798 0.849729C37.6399 0.820212 37.919 0.997317 37.9025 1.71882C37.8599 3.91613 37.8763 6.11015 37.896 8.30746C37.8993 8.84859 37.7449 9.08145 37.1572 9.10113C34.8521 9.17656 32.6619 9.78655 30.521 10.6097C29.8676 10.0588 29.5359 9.27165 29.05 8.59606C28.1338 7.32687 26.9485 6.36267 25.6514 5.51326C25.2541 5.2509 24.7747 5.0738 24.6499 4.53267H24.6532ZM13.4036 27.06C9.68658 29.4606 5.52954 30.3756 1.18863 30.6806C0.564744 30.7233 0.338176 30.5068 0.348027 29.8706C0.377579 27.6766 0.380863 25.4793 0.348027 23.282C0.338176 22.6129 0.522057 22.3604 1.22803 22.3571C3.50028 22.3374 5.64447 21.7012 7.73284 20.8518C8.39941 21.1437 8.56031 21.8455 8.93135 22.3702C9.89673 23.7345 10.9081 25.0431 12.3726 25.9318C12.8126 26.1975 13.2756 26.4893 13.4069 27.06H13.4036Z" fill="#2A54FE"/>
<path fill-rule="evenodd" clip-rule="evenodd" d="M61.6109 18.3001C61.6109 16.2799 61.6405 14.2597 61.5945 12.2394C61.5781 11.4819 61.8276 11.2884 62.5697 11.272C65.7154 11.2031 65.7154 11.1801 65.7154 14.3712C65.7154 17.5622 65.6826 21.0451 65.7384 24.3837C65.7515 25.2528 65.5085 25.4627 64.6548 25.4561C61.6109 25.4332 61.6109 25.4692 61.6109 22.3832V18.3001Z" fill="#010101"/>
<path fill-rule="evenodd" clip-rule="evenodd" d="M65.7152 7.76597C65.7152 9.12371 64.891 9.80257 63.2427 9.80257C62.1525 9.80257 61.6074 8.96741 61.6074 7.29702C61.6074 6.20164 62.4852 5.65505 64.2409 5.65723C65.2238 5.65723 65.7152 6.36123 65.7152 7.76925V7.76597Z" fill="#040404"/>
<path fill-rule="evenodd" clip-rule="evenodd" d="M13.4035 27.06C10.9179 25.5318 8.93129 23.5509 7.72949 20.8518L8.80323 20.3435C9.75876 21.5143 10.4614 22.8721 11.5877 23.9248C12.5465 24.8201 13.7319 25.3875 14.7039 26.25C14.3558 26.6567 13.9027 26.8928 13.4035 27.06ZM24.6532 4.53271C26.8006 5.76583 28.738 7.2187 29.9923 9.42912C30.209 9.80955 30.4783 10.1572 30.5242 10.6098C30.1696 10.7869 29.815 10.9672 29.4636 11.1443C28.1896 9.00933 26.5905 7.19244 24.4135 5.92653C24.0949 5.7396 23.6878 5.53626 23.8815 5.01808C24.0752 4.75572 24.3314 4.58847 24.6564 4.53271H24.6532Z" fill="#2952F7"/>
<path fill-rule="evenodd" clip-rule="evenodd" d="M21.5605 6.68385C21.7313 6.40509 21.9776 6.22797 22.2829 6.12958C22.6803 5.89345 23.0973 5.83772 23.5307 6.02137C25.7767 6.96589 27.5236 8.45809 28.6301 10.6521C28.7845 10.9571 28.9388 11.2916 28.6663 11.6261C28.4003 11.8 28.1376 11.9738 27.8716 12.1443C27.3824 11.8721 27.2149 11.3408 26.8964 10.9342C25.78 9.51082 24.5421 8.24163 22.8214 7.52996C22.3585 7.33975 21.774 7.27414 21.5605 6.68709V6.68385Z" fill="#274EEB"/>
<path fill-rule="evenodd" clip-rule="evenodd" d="M28.6659 11.6195C27.474 8.70392 25.4907 6.70339 22.2793 6.12618C22.7521 5.67032 23.2217 5.21118 23.8751 5.0144C25.2739 6.18193 26.8796 7.11006 28.0453 8.55307C28.6757 9.33033 29.431 10.0354 29.4572 11.1407L28.6659 11.6162V11.6195Z" fill="#2850F1"/>
<path fill-rule="evenodd" clip-rule="evenodd" d="M20.1912 9.85183C19.7544 9.58618 19.3998 9.23855 19.147 8.79253C19.3965 8.58264 19.6461 8.37273 19.8923 8.16284C22.6112 8.42521 24.6273 9.78954 26.036 12.0918C26.2625 12.4624 26.4924 12.8494 26.3085 13.3184C26.1312 13.6693 25.8324 13.889 25.4975 14.0726C25.1133 13.9742 24.9622 13.6496 24.798 13.3446C23.7965 11.4752 22.3222 10.2323 20.1912 9.84854V9.85183Z" fill="#2448D9"/>
<path fill-rule="evenodd" clip-rule="evenodd" d="M16.527 24.9148C16.3628 25.2001 16.1198 25.3837 15.8013 25.4657C15.5091 25.5576 15.23 25.6658 14.9049 25.5969C12.6556 25.1214 10.0156 22.2747 9.62158 19.8774C9.8186 19.6019 10.101 19.4478 10.4162 19.3494C10.8595 19.4281 11.0729 19.7724 11.2699 20.1135C12.3371 21.9632 13.8082 23.3636 15.7816 24.2261C16.1034 24.3671 16.4285 24.5278 16.5303 24.9148H16.527Z" fill="#274EEB"/>
<path fill-rule="evenodd" clip-rule="evenodd" d="M9.61755 19.8774C9.96562 20.4874 10.3235 21.0909 10.665 21.7041C11.7979 23.7506 13.5776 24.9115 15.8006 25.4658C15.5083 25.8265 15.1537 26.1053 14.7038 26.2496C11.8734 25.1411 9.89009 23.1898 8.80322 20.3464C9.07576 20.1923 9.34502 20.0349 9.61755 19.8807V19.8774Z" fill="#2850F1"/>
<path fill-rule="evenodd" clip-rule="evenodd" d="M18.3589 21.9864C18.7004 22.1405 18.8778 22.4094 18.8909 22.7833C18.6906 22.9571 18.4936 23.1309 18.2933 23.3048C16.113 23.4491 14.5533 22.2946 13.2694 20.75C12.6455 19.9989 11.7425 19.2775 12.0117 18.0673C12.2416 17.864 12.4715 17.6639 12.7013 17.4606C13.381 17.3327 13.4828 17.9263 13.6667 18.31C14.6255 20.3204 16.2837 21.4092 18.3557 21.9864H18.3589Z" fill="#2448DA"/>
<path fill-rule="evenodd" clip-rule="evenodd" d="M21.5599 6.68395C24.3871 7.66782 26.6659 9.28789 27.8743 12.1411C27.6083 12.3346 27.339 12.5281 27.0731 12.7216C26.6396 12.6134 26.482 12.2329 26.2817 11.9017C25.0504 9.8651 23.3495 8.47785 20.9623 8.01871C20.7456 7.97608 20.5453 7.89738 20.4106 7.70389C20.7062 7.26443 21.0838 6.91679 21.5599 6.68066V6.68395Z" fill="#264CE6"/>
<path fill-rule="evenodd" clip-rule="evenodd" d="M20.411 7.70703C23.7472 7.90053 25.6976 9.93055 27.0735 12.7215C26.8206 12.9215 26.5645 13.1216 26.3117 13.3216C25.1887 10.7636 23.2743 9.15328 20.5424 8.53017C20.2797 8.47113 20.0301 8.43178 19.8955 8.16614C19.994 7.93001 20.1582 7.76934 20.411 7.70703Z" fill="#254AE0"/>
<path fill-rule="evenodd" clip-rule="evenodd" d="M12.0111 18.0704C13.1505 20.9597 15.2849 22.6552 18.2926 23.3079C18.1646 23.7014 17.8362 23.8982 17.5112 24.0983C16.7067 24.4853 16.0762 23.9671 15.4228 23.6686C13.7744 22.9209 12.4807 21.7665 11.6401 20.1431C11.3807 19.6413 11.0622 19.1297 11.4628 18.5459C11.6434 18.3852 11.8272 18.2246 12.0078 18.0671L12.0111 18.0704Z" fill="#264AE0"/>
<path fill-rule="evenodd" clip-rule="evenodd" d="M11.4665 18.5496C12.0083 21.3175 14.0179 22.7146 16.3788 23.7706C16.7334 23.9281 17.134 23.9937 17.5116 24.0986C17.2588 24.4626 16.9206 24.7217 16.5232 24.9152C13.7026 23.9182 11.7752 21.9407 10.4092 19.3498L11.4632 18.5496H11.4665Z" fill="#264CE5"/>
<path fill-rule="evenodd" clip-rule="evenodd" d="M18.3589 21.9861C16.9536 22.3403 16.0768 21.3302 15.0688 20.6907C13.867 19.9265 13.624 18.4409 12.7046 17.4603C13.0362 16.988 13.3679 16.5158 13.8538 16.178C14.4022 17.3881 14.5861 18.7852 15.7813 19.6609C16.2739 20.0216 16.7139 20.4512 17.3049 20.6644C17.8598 20.9432 18.1028 21.4712 18.3622 21.9861H18.3589Z" fill="#2446D4"/>
<path fill-rule="evenodd" clip-rule="evenodd" d="M20.1909 9.85185C21.4518 9.36319 22.299 10.2028 23.1626 10.8423C24.2691 11.6622 24.9751 12.8133 25.4972 14.0759C25.3002 14.4137 25.0769 14.7253 24.719 14.9122C24.2396 14.6204 24.0885 14.0956 23.8685 13.6365C23.2512 12.3509 22.0659 11.6852 20.9823 10.9013C20.5718 10.6619 20.227 10.3733 20.1909 9.85185Z" fill="#2346D4"/>
<path fill-rule="evenodd" clip-rule="evenodd" d="M17.3021 20.6643C16.977 21.1103 16.629 20.7857 16.4024 20.6086C14.9773 19.4739 13.6901 18.2375 13.851 16.1812C13.9266 16.0861 13.9988 15.9877 14.0743 15.8926C15.4502 17.2798 16.2546 19.0573 17.3021 20.6676V20.6643Z" fill="#2244CF"/>
<path fill-rule="evenodd" clip-rule="evenodd" d="M20.9819 10.9011C23.1524 11.3799 24.0948 12.9968 24.7154 14.912L24.1539 15.6532C22.8503 14.2332 21.9998 12.5114 20.9819 10.9011Z" fill="#2244CE"/>
<path fill-rule="evenodd" clip-rule="evenodd" d="M95.3364 15.5451C95.2477 15.3188 94.9095 15.0039 95.1853 14.8564C96.5874 14.1119 95.6089 12.8624 95.8618 11.8818C96.0095 11.3013 95.5367 11.2915 95.1164 11.2948C94.0131 11.3013 92.9131 11.2948 91.8098 11.2948C91.8098 11.3144 91.8098 11.3341 91.8098 11.3538C90.5752 11.3538 89.334 11.2554 88.1125 11.3735C84.3757 11.7375 81.6077 14.8826 81.7357 18.5131C81.8703 22.3567 84.8321 25.3182 88.6674 25.4297C89.288 25.4461 89.8955 25.4625 90.4898 25.6757C91.8525 26.1709 92.171 27.3548 91.2352 28.483C89.8692 30.1293 86.8942 29.8309 86.1883 27.8139C85.768 26.6071 85.1704 26.4234 84.1327 26.5283C83.6501 26.5775 83.1641 26.5775 82.6781 26.5283C81.9262 26.4529 81.7259 26.6825 81.7948 27.4761C82.1954 31.8839 87.0519 34.8191 91.3238 33.1793C95.54 31.5625 97.0865 26.9383 94.568 23.3373C94.2265 22.8487 94.4728 22.6552 94.6731 22.3469C96.0818 20.1955 96.2525 17.926 95.3364 15.5484V15.5451ZM88.7725 21.3302C87.2193 21.3106 85.8271 19.9004 85.8304 18.3524C85.8336 16.7552 87.3145 15.3385 88.9169 15.3942C90.4898 15.45 91.8065 16.8504 91.7737 18.4311C91.7375 20.0086 90.3519 21.3499 88.7725 21.3302Z" fill="black"/>
<path fill-rule="evenodd" clip-rule="evenodd" d="M57.9453 15.6207C57.5578 15.2469 57.4035 15.0468 57.745 14.4598C60.1716 10.298 57.5316 5.72626 52.6948 5.66395C50.2715 5.63115 47.8482 5.69676 45.4249 5.63773C44.5909 5.61805 44.384 5.88371 44.3939 6.68065C44.4366 9.62898 44.4103 12.5773 44.4103 15.5256C44.4103 18.5166 44.4333 21.5108 44.3939 24.5018C44.384 25.2561 44.6106 25.4627 45.356 25.4529C48.2193 25.4102 51.0826 25.4594 53.9459 25.4266C56.4775 25.3971 58.382 24.2394 59.3277 21.8913C60.2668 19.5595 59.7907 17.395 57.942 15.6207H57.9453ZM48.5148 11.4327C48.5148 9.87385 49.281 9.0944 50.8133 9.0944C51.3847 9.0944 51.9593 9.05502 52.5274 9.11078C53.8736 9.24196 54.7865 10.3046 54.7307 11.6C54.6748 12.8462 53.7554 13.7547 52.4289 13.8399C51.9462 13.8727 51.4635 13.8498 50.9808 13.8498C49.339 13.8498 48.5181 13.0441 48.5181 11.4327H48.5148ZM55.8142 19.7399C55.7486 21.0418 54.7701 21.9503 53.368 21.9962C52.708 22.0159 52.048 21.9995 51.3847 21.9995C49.4692 21.9995 48.5115 21.0637 48.5115 19.1922C48.5115 17.8935 49.1836 17.2441 50.5276 17.2441C51.4963 17.2441 52.4683 17.2047 53.4336 17.2638C54.8653 17.349 55.8799 18.4412 55.811 19.7431L55.8142 19.7399Z" fill="black"/>
</svg>
