<svg width="151" height="42" viewBox="0 0 151 42" fill="none" xmlns="http://www.w3.org/2000/svg">
<path d="M27.4039 15.482C24.1956 12.3479 19.0705 12.3479 15.8622 15.482C12.6953 18.6409 12.6953 23.7638 15.858 26.9268C15.8705 26.9392 15.8829 26.9516 15.8953 26.9641C19.0954 30.1354 24.2535 30.1519 27.4743 27.0013C27.5322 26.9434 27.7558 26.6994 28.149 26.2612L24.2991 22.4407C23.9016 22.8996 23.6946 23.1353 23.6698 23.156C22.581 24.2352 20.8216 24.2352 19.737 23.156C18.6565 22.0975 18.64 20.3651 19.6998 19.2818C20.7927 18.2316 22.5272 18.244 23.6036 19.3149L33.895 29.5193C31.0096 33.6416 26.2944 36.1059 21.2604 36.1183C12.8236 36.1183 5.98469 29.2919 5.98055 20.8695C5.98055 12.443 12.8153 5.61251 21.248 5.60837C26.0833 5.60837 30.6371 7.89486 33.5183 11.7732C33.0671 12.2983 31.9079 13.6131 30.0368 15.7094L33.8495 19.4555L40.1378 12.4141C35.4723 1.99051 23.231 -2.68168 12.7987 1.97811C2.36238 6.63791 -2.31556 18.8642 2.34996 29.2836C5.68248 36.7302 13.0927 41.5264 21.2604 41.5182C26.4641 41.5182 30.7695 39.9015 34.9797 36.3209C37.4014 34.1915 39.3264 31.5577 40.6222 28.6097L27.408 15.482H27.4039Z" fill="url(#paint0_linear_4688_49933)"/>
<path d="M112.431 23.6562V33.5298H108.345V23.4412C107.811 20.6957 105.153 18.9013 102.404 19.4346C100.339 19.8357 98.7323 21.473 98.3763 23.5445V33.5505H94.2903V15.5935L97.4117 17.5575C99.0759 16.1517 101.183 15.3868 103.361 15.3909C108.084 15.3496 112.038 18.955 112.431 23.6562ZM69.5759 13.3194C68.2263 14.0141 67.0134 14.9444 65.995 16.069C63.3786 12.3271 58.2205 11.4092 54.474 14.0223C50.7275 16.6355 49.8085 21.7873 52.4248 25.5292C53.9772 27.7495 56.519 29.0685 59.2306 29.0643C60.663 29.0767 62.0787 28.717 63.3331 28.0265C63.7802 29.4695 64.484 30.8133 65.4154 32.0041C63.5153 33.0336 61.3833 33.5712 59.2223 33.5629C52.2095 33.7035 46.4056 28.1423 46.2648 21.134C46.1241 14.1298 51.6921 8.33299 58.709 8.19241C58.8787 8.19241 59.0526 8.19241 59.2223 8.19241C63.2793 8.18414 67.1044 10.0861 69.5428 13.3277H69.58L69.5759 13.3194ZM75.6489 33.5546C70.6978 33.4967 66.7277 29.4406 66.7857 24.4955C66.8436 19.5504 70.9047 15.5852 75.8559 15.6431C80.7657 15.701 84.7192 19.691 84.7192 24.5989C84.6902 29.5729 80.6291 33.5835 75.6489 33.5546ZM75.6489 29.5729C78.3977 29.5398 80.6001 27.2823 80.567 24.5368C80.5339 21.7914 78.2736 19.5918 75.5247 19.6248C72.8008 19.6579 70.6067 21.8741 70.6067 24.5989C70.6191 27.3608 72.8753 29.5853 75.6407 29.5729C75.6407 29.5729 75.6489 29.5729 75.6531 29.5729H75.6489ZM87.2444 15.6473H91.2766V33.5546H87.2444V15.6473ZM131.093 12.476H119.56V18.984H130.758V23.0235H119.56V29.5109H131.093V33.5546H115.217V8.43636H131.093V12.4801V12.476ZM139.575 24.5617L133.366 15.6473H138.495C138.644 15.8953 138.872 16.2385 139.161 16.6851L141.281 19.8729C141.62 20.3939 141.861 20.7577 141.997 21.0017L142.204 21.3531L145.893 15.6638H150.778L144.688 24.4128L151.009 33.5546H145.942L142.034 27.704L141.819 28.01C141.649 28.2581 141.393 28.6509 141.049 29.176C140.705 29.7011 140.345 30.2551 139.956 30.8381L138.859 32.5127C138.569 32.9592 138.338 33.3065 138.197 33.5505H133.353L139.567 24.5658L139.575 24.5617Z" fill="#4A4A4A"/>
<path d="M86.4823 10.8921C86.4782 10.1726 86.7721 9.48627 87.2937 8.9901C88.3783 7.91508 90.1253 7.91508 91.2141 8.9901C91.7481 9.48627 92.0462 10.185 92.0296 10.9127C92.0213 12.4302 90.7877 13.6582 89.2642 13.6582C88.5232 13.6706 87.8112 13.3811 87.2937 12.856C86.7638 12.3433 86.4699 11.6322 86.4823 10.8921Z" fill="url(#paint1_linear_4688_49933)"/>
<defs>
<linearGradient id="paint0_linear_4688_49933" x1="39.9669" y1="20.8064" x2="-0.0845577" y2="20.8064" gradientUnits="userSpaceOnUse">
<stop stop-color="#22E6B8"/>
<stop offset="1" stop-color="#00C1CE"/>
</linearGradient>
<linearGradient id="paint1_linear_4688_49933" x1="91.6164" y1="10.9261" x2="86.0722" y2="10.9261" gradientUnits="userSpaceOnUse">
<stop stop-color="#22E6B8"/>
<stop offset="1" stop-color="#00C1CE"/>
</linearGradient>
</defs>
</svg>
