<svg width="1280" height="383" viewBox="0 0 1280 383" fill="none" xmlns="http://www.w3.org/2000/svg">
<path d="M-436 69.789L-190.469 44.9343C-96.7808 35.4503 -2.31149 36.7885 91.0709 48.9221C126.467 53.5213 162.372 52.3994 197.412 45.5993L401.205 6.04984C428.714 0.711266 456.849 -0.625932 484.74 2.07964L575.591 10.8926C655.662 18.6598 734.401 36.6955 809.869 64.5554L884.033 91.9338C980.577 127.574 1087.81 119.81 1178.21 70.6355C1247.24 33.0849 1325.71 16.4374 1404.04 22.7239L1659.83 43.252L1689 323.842H1330.14L970.045 373.735C807.998 396.188 642.896 375.868 491.129 314.793L404.5 279.932L170 307.29L-34 345.354L-128.048 361.137C-197.221 372.746 -268.274 364.201 -332.722 336.522L-436 69.789Z" fill="#FFEEF6"/>
</svg>
