<svg width="1280" height="498" viewBox="0 0 1280 498" fill="none" xmlns="http://www.w3.org/2000/svg">
<g opacity="0.17">
<path d="M-189 467.024C-15.6513 409.234 168.045 389.15 349.785 408.118L425.119 415.981C449.701 418.546 474.51 417.958 498.942 414.231L662.065 389.345L866.42 363.044C955.357 351.597 1045.7 366.28 1126.44 405.301L1318.23 498L1445 15.7263L1195.68 78.8893C1147.93 90.9858 1098.25 93.4126 1049.55 86.0271C875.698 59.661 697.928 84.3882 537.87 157.2L524.759 163.165L320.895 122.293C274.029 112.897 226.514 107.097 178.764 104.943L132.687 102.865C50.5593 99.1619 -29.2487 74.4699 -99.1187 31.1467L-149.351 0L-189 467.024Z" fill="#FF0000"/>
<path d="M-189 467.024C-15.6513 409.234 168.045 389.15 349.785 408.118L425.119 415.981C449.701 418.546 474.51 417.958 498.942 414.231L662.065 389.345L866.42 363.044C955.357 351.597 1045.7 366.28 1126.44 405.301L1318.23 498L1445 15.7263L1195.68 78.8893C1147.93 90.9858 1098.25 93.4126 1049.55 86.0271C875.698 59.661 697.928 84.3882 537.87 157.2L524.759 163.165L320.895 122.293C274.029 112.897 226.514 107.097 178.764 104.943L132.687 102.865C50.5593 99.1619 -29.2487 74.4699 -99.1187 31.1467L-149.351 0L-189 467.024Z" fill="#FFEC43"/>
</g>
</svg>
