<svg width="688" height="383" viewBox="0 0 688 383" fill="none" xmlns="http://www.w3.org/2000/svg">
<g opacity="0.17">
<path d="M161.394 370.556C174.187 372.229 187.141 372.56 200.002 371.539L216.5 370.23C240.17 368.351 263.972 368.939 287.521 371.985L341.668 378.988C407.228 387.468 473.867 379.107 535.301 354.696L651.364 314.47C678.777 304.968 709.162 310.509 731.458 329.073C783.909 372.748 863.708 337.765 867.129 269.597L875.569 101.418C878.527 42.4859 814.173 4.40681 763.941 35.366C745.208 46.9115 722.279 49.4271 701.488 42.2176L643.243 22.0197C608.902 10.1115 571.996 7.63267 536.372 14.8415L483.597 25.5208C473.353 27.5938 463.339 30.6734 453.7 34.7147C411.474 52.4183 363.662 51.0298 322.535 30.9056L303.502 21.5925C270.439 5.41424 233.637 -1.58442 196.944 1.32833L170.212 3.45039C134.568 6.27979 100.514 19.4002 72.1863 41.2176C-58.0375 141.513 -1.58781 349.245 161.394 370.556Z" fill="#FFEC43"/>
<path d="M731.458 329.073C783.909 372.748 863.708 337.765 867.129 269.597L875.569 101.418C878.527 42.4859 814.173 4.40681 763.941 35.366C745.208 46.9115 722.279 49.4271 701.488 42.2176L643.243 22.0197C608.902 10.1115 571.996 7.63267 536.372 14.8415L483.597 25.5208C473.353 27.5938 463.339 30.6734 453.7 34.7147C411.474 52.4183 363.662 51.0298 322.535 30.9056L303.502 21.5925C270.439 5.41424 233.637 -1.58442 196.944 1.32833L170.212 3.45039C134.568 6.27979 100.514 19.4002 72.1863 41.2176C-58.0375 141.513 -1.58781 349.245 161.394 370.556C174.187 372.229 187.141 372.56 200.002 371.539L216.5 370.23C240.17 368.351 263.972 368.939 287.521 371.985L341.668 378.988C407.228 387.468 473.867 379.107 535.301 354.696L651.364 314.47C678.777 304.968 709.162 310.509 731.458 329.073Z" fill="#FFEC43"/>
</g>
</svg>
