<svg width="174" height="44" viewBox="0 0 174 44" fill="none" xmlns="http://www.w3.org/2000/svg">
<path d="M24.376 0.34082C25.0788 0.519987 25.7816 0.699154 26.4934 0.869362C36.7743 3.28811 43.6222 12.2464 43.2888 22.8442C42.9735 32.8058 35.3146 41.3162 25.0608 43.0989C24.8265 43.1437 24.6012 43.2602 24.376 43.3408H18.7445C18.4111 43.2244 18.0867 43.0542 17.7443 42.9914C8.67983 41.1371 2.26441 34.7587 0.408268 25.7467C0.336185 25.4062 0.173997 25.0837 0.0478516 24.7523C0.0478516 22.8083 0.0478516 20.8733 0.0478516 18.9294C0.183008 18.5262 0.354206 18.1231 0.45332 17.711C2.40858 9.12894 7.67967 3.62853 16.0954 1.05749C16.9694 0.788737 17.8614 0.573737 18.7445 0.34082C20.6186 0.34082 22.5018 0.34082 24.376 0.34082ZM17.5911 10.9475C15.6989 12.9273 14.1672 14.486 11.7344 14.4233C11.419 14.4233 11.0946 14.6204 10.7883 14.7637C7.62561 16.2508 5.91363 19.6819 6.64348 23.0144C7.40035 26.4364 10.3558 28.7477 13.9599 28.8014C14.3564 28.8014 14.888 29.0164 15.1313 29.3121C17.3298 32.0175 19.4653 34.7587 21.6188 37.4821C22.5198 36.3981 23.3758 35.4127 24.1868 34.3914C25.5744 32.6356 26.9079 30.8529 28.3135 29.115C28.5118 28.8642 28.9803 28.7298 29.3227 28.7119C31.9718 28.6044 34.1343 27.5742 35.612 25.3704C37.1528 23.0771 37.333 20.6314 36.0535 18.1679C34.6929 15.561 32.4583 14.2621 29.548 14.0471C29.1875 14.0202 28.728 14.0471 28.5027 13.8321C27.7279 13.0975 27.0341 12.2823 26.2141 11.3864C26.8088 10.7773 27.4756 10.2219 27.9711 9.54103C28.2324 9.17374 28.4397 8.48394 28.2685 8.14353C27.9621 7.55228 27.2954 7.64186 26.8268 8.08082C26.124 8.74374 25.4933 9.48728 24.7814 10.1412C24.5292 10.3652 24.1147 10.5175 23.7813 10.5175C22.5559 10.5175 21.3305 10.4817 20.114 10.3652C19.6635 10.3204 19.1589 10.1412 18.7985 9.86353C18.1588 9.36186 17.6452 8.69895 17.0145 8.18832C16.5189 7.7852 15.8792 7.64186 15.4286 8.25999C14.9601 8.89603 15.3295 9.3529 15.8972 9.72915C16.4829 10.1233 17.0505 10.5444 17.6001 10.9385L17.5911 10.9475Z" fill="#2B65FA"/>
<path d="M173.048 36.1742C171.777 36.1742 170.516 36.21 169.245 36.1383C165.47 35.9502 163.461 33.9525 163.371 30.19C163.299 27.171 163.353 24.1521 163.353 21.0167H159.893V16.0358H163.326V8.0629H168.444V15.8746C170.047 16 171.543 16.1164 173.048 16.2329V20.936H168.516C168.516 23.9281 168.489 26.7589 168.525 29.5898C168.534 30.5842 169.137 31.2023 170.137 31.265C171.102 31.3277 172.075 31.2471 173.039 31.2381V36.1652L173.048 36.1742Z" fill="#2B65FA"/>
<path d="M123.743 8.05395H128.834V17.9439C129.032 17.9439 129.122 17.9708 129.158 17.9439C134.357 13.5006 141.701 15.346 144.35 21.7692C146.575 27.1621 144.206 33.6389 139.07 35.8069C135.402 37.3567 131.978 36.8371 128.915 33.9346C128.879 34.6423 128.852 35.2514 128.825 35.9323H123.743V8.05395ZM139.953 26.105C139.971 22.7546 137.691 20.4164 134.384 20.4164C131.194 20.4164 128.897 22.6471 128.861 25.7914C128.825 29.2583 131.068 31.6681 134.339 31.695C137.538 31.7129 139.926 29.3389 139.944 26.1139L139.953 26.105Z" fill="#2B65FA"/>
<path d="M73.6449 25.6302C73.6449 19.646 78.2312 15.0862 84.2412 15.0862C90.2511 15.0862 94.8825 19.7267 94.8735 25.7467C94.8645 31.5696 90.161 36.1831 84.2502 36.1742C78.2402 36.1742 73.6449 31.5964 73.6539 25.6302H73.6449ZM78.8259 25.6123C78.8259 28.8194 81.0335 31.0948 84.1691 31.1127C87.3678 31.1306 89.6745 28.8283 89.6835 25.6302C89.6835 22.4679 87.3137 20.0671 84.1871 20.085C81.0785 20.1029 78.8349 22.4231 78.8259 25.6123Z" fill="#2B65FA"/>
<path d="M108.407 15.0862C114.426 15.0773 119.03 19.7087 119.021 25.7646C119.012 31.5785 114.3 36.1742 108.344 36.1742C102.487 36.1742 97.8019 31.5516 97.7929 25.7646C97.7838 19.6908 102.343 15.1042 108.407 15.0862ZM113.84 25.6571C113.84 22.45 111.543 20.076 108.398 20.085C105.299 20.085 102.992 22.4142 102.974 25.5585C102.956 28.8014 105.217 31.1127 108.407 31.1127C111.543 31.1127 113.822 28.8194 113.831 25.6571H113.84Z" fill="#2B65FA"/>
<path d="M61.6701 13.3304H54.1914V8.04499H74.7442V13.2767H67.2385V35.9054H61.6701V13.3304Z" fill="#2B65FA"/>
<path d="M155.162 35.9412H150.116V16.1075H155.162V35.9412Z" fill="#2B65FA"/>
<path d="M155.559 10.9564C155.577 12.5958 154.198 13.9754 152.567 13.9575C151.008 13.9485 149.621 12.56 149.621 11.0102C149.621 9.45144 150.981 8.04499 152.522 8.0002C154.135 7.94645 155.541 9.31707 155.559 10.9564Z" fill="#2B65FA"/>
<path d="M17.5911 10.9475C17.0415 10.5533 16.4738 10.1323 15.8882 9.73811C15.3205 9.36186 14.9511 8.90499 15.4196 8.26895C15.8701 7.65082 16.5099 7.79415 17.0055 8.19728C17.6362 8.7079 18.1498 9.37082 18.7895 9.87249C19.1409 10.1502 19.6455 10.3383 20.105 10.3742C21.3214 10.4817 22.5469 10.5264 23.7723 10.5264C24.1147 10.5264 24.5292 10.3742 24.7724 10.1502C25.4843 9.49624 26.115 8.7527 26.8178 8.08978C27.2863 7.65082 27.9531 7.56124 28.2595 8.15249C28.4307 8.4929 28.2324 9.1827 27.9621 9.54999C27.4665 10.2308 26.8088 10.7862 26.2051 11.3954C27.025 12.2912 27.7188 13.1064 28.4937 13.841C28.71 14.0471 29.1785 14.0292 29.5389 14.056C32.4493 14.271 34.6929 15.57 36.0445 18.1769C37.333 20.6404 37.1437 23.086 35.603 25.3794C34.1252 27.5831 31.9627 28.6223 29.3137 28.7208C28.9623 28.7387 28.5027 28.8731 28.3045 29.1239C26.8989 30.8619 25.5654 32.6446 24.1777 34.4004C23.3668 35.4217 22.5198 36.4071 21.6098 37.491C19.4563 34.7677 17.3208 32.0264 15.1223 29.321C14.879 29.0254 14.3474 28.8104 13.9509 28.8104C10.3468 28.7567 7.39134 26.4454 6.63447 23.0233C5.89561 19.6908 7.6166 16.2598 10.7793 14.7727C11.0856 14.6294 11.41 14.4323 11.7254 14.4323C14.1672 14.486 15.6899 12.9362 17.5821 10.9564L17.5911 10.9475ZM17.2037 28.3267C18.2759 29.5271 19.3572 30.7812 20.4925 31.9817C21.0872 32.6087 21.8531 32.5908 22.5469 32.125C24.0967 31.0769 25.1509 29.6346 26.0159 27.9414C23.2587 26.5081 21.6548 24.161 20.069 21.7244C19.1139 20.2552 17.8705 18.8935 16.5099 17.7827C14.879 16.4569 12.5273 16.6898 11.0045 17.9887C9.09431 19.6192 8.73389 22.235 10.1575 24.2148C11.6082 26.2304 14.1492 26.7858 16.3207 25.4152C17.3749 24.7523 18.2759 23.8385 19.3031 22.9875C19.7987 23.6594 20.3033 24.3491 20.916 25.1733C19.7626 26.1498 18.6363 27.0994 17.2037 28.3177V28.3267ZM29.3227 16.8869C27.7369 16.86 26.5565 17.6931 25.4572 18.6785C22.9613 20.9271 22.9433 21.8229 25.3581 24.1252C25.8447 24.5821 26.3763 25.0031 26.9439 25.3614C28.6109 26.4364 30.7013 26.3289 32.188 25.1464C33.8009 23.8564 34.3956 21.8408 33.7108 19.9417C33.044 18.0873 31.305 16.8779 29.3227 16.8958V16.8869ZM22.0333 18.1589C22.9523 17.2362 24.2769 15.9104 25.6104 14.5667C23.6371 11.9598 19.4383 11.9777 18.0056 14.1187C19.4293 15.5521 20.7538 16.8869 22.0243 18.1589H22.0333Z" fill="#FDFEFE"/>
<path d="M17.2037 28.3267C18.6363 27.1083 19.7626 26.1587 20.916 25.1823C20.3033 24.3492 19.8077 23.6683 19.3031 22.9964C18.2759 23.8475 17.3749 24.7612 16.3207 25.4242C14.1582 26.7858 11.6082 26.2394 10.1575 24.2237C8.73389 22.2439 9.09431 19.6281 11.0045 17.9977C12.5273 16.6987 14.879 16.4658 16.5099 17.7917C17.8705 18.9025 19.1139 20.2642 20.069 21.7333C21.6548 24.161 23.2587 26.5081 26.0159 27.9504C25.1509 29.6435 24.0876 31.0858 22.5469 32.1339C21.8531 32.6087 21.0872 32.6177 20.4925 31.9906C19.3482 30.7902 18.2759 29.536 17.2037 28.3356V28.3267Z" fill="#2B65FA"/>
<path d="M29.3227 16.8869C31.305 16.8689 33.044 18.0873 33.7108 19.9417C34.3866 21.8408 33.8009 23.8654 32.188 25.1464C30.7013 26.3289 28.6019 26.4364 26.9439 25.3614C26.3853 25.0031 25.8447 24.5821 25.3581 24.1252C22.9433 21.8229 22.9613 20.9271 25.4572 18.6785C26.5565 17.6931 27.7369 16.851 29.3227 16.8869Z" fill="#2B65FA"/>
<path d="M22.0333 18.1589C20.7628 16.8869 19.4383 15.5521 18.0146 14.1187C19.4473 11.9777 23.6461 11.9598 25.6194 14.5667C24.2769 15.9104 22.9613 17.2362 22.0423 18.1589H22.0333Z" fill="#2B65FA"/>
<path d="M24.376 0.34082C25.0788 0.519987 25.7816 0.699154 26.4934 0.869362C36.7743 3.28811 43.6222 12.2464 43.2888 22.8442C42.9735 32.8058 35.3146 41.3162 25.0608 43.0989C24.8265 43.1437 24.6012 43.2602 24.376 43.3408H18.7445C18.4111 43.2244 18.0867 43.0542 17.7443 42.9914C8.67983 41.1371 2.26441 34.7587 0.408268 25.7467C0.336185 25.4062 0.173997 25.0837 0.0478516 24.7523C0.0478516 22.8083 0.0478516 20.8733 0.0478516 18.9294C0.183008 18.5262 0.354206 18.1231 0.45332 17.711C2.40858 9.12894 7.67967 3.62853 16.0954 1.05749C16.9694 0.788737 17.8614 0.573737 18.7445 0.34082C20.6186 0.34082 22.5018 0.34082 24.376 0.34082ZM17.5911 10.9475C15.6989 12.9273 14.1672 14.486 11.7344 14.4233C11.419 14.4233 11.0946 14.6204 10.7883 14.7637C7.62561 16.2508 5.91363 19.6819 6.64348 23.0144C7.40035 26.4364 10.3558 28.7477 13.9599 28.8014C14.3564 28.8014 14.888 29.0164 15.1313 29.3121C17.3298 32.0175 19.4653 34.7587 21.6188 37.4821C22.5198 36.3981 23.3758 35.4127 24.1868 34.3914C25.5744 32.6356 26.9079 30.8529 28.3135 29.115C28.5118 28.8642 28.9803 28.7298 29.3227 28.7119C31.9718 28.6044 34.1343 27.5742 35.612 25.3704C37.1528 23.0771 37.333 20.6314 36.0535 18.1679C34.6929 15.561 32.4583 14.2621 29.548 14.0471C29.1875 14.0202 28.728 14.0471 28.5027 13.8321C27.7279 13.0975 27.0341 12.2823 26.2141 11.3864C26.8088 10.7773 27.4756 10.2219 27.9711 9.54103C28.2324 9.17374 28.4397 8.48394 28.2685 8.14353C27.9621 7.55228 27.2954 7.64186 26.8268 8.08082C26.124 8.74374 25.4933 9.48728 24.7814 10.1412C24.5292 10.3652 24.1147 10.5175 23.7813 10.5175C22.5559 10.5175 21.3305 10.4817 20.114 10.3652C19.6635 10.3204 19.1589 10.1412 18.7985 9.86353C18.1588 9.36186 17.6452 8.69895 17.0145 8.18832C16.5189 7.7852 15.8792 7.64186 15.4286 8.25999C14.9601 8.89603 15.3295 9.3529 15.8972 9.72915C16.4829 10.1233 17.0505 10.5444 17.6001 10.9385L17.5911 10.9475Z" fill="#2B65FA"/>
<path d="M173.048 36.1742C171.777 36.1742 170.516 36.21 169.245 36.1383C165.47 35.9502 163.461 33.9525 163.371 30.19C163.299 27.171 163.353 24.1521 163.353 21.0167H159.893V16.0358H163.326V8.0629H168.444V15.8746C170.047 16 171.543 16.1164 173.048 16.2329V20.936H168.516C168.516 23.9281 168.489 26.7589 168.525 29.5898C168.534 30.5842 169.137 31.2023 170.137 31.265C171.102 31.3277 172.075 31.2471 173.039 31.2381V36.1652L173.048 36.1742Z" fill="#2B65FA"/>
<path d="M123.743 8.05395H128.834V17.9439C129.032 17.9439 129.122 17.9708 129.158 17.9439C134.357 13.5006 141.701 15.346 144.35 21.7692C146.575 27.1621 144.206 33.6389 139.07 35.8069C135.402 37.3567 131.978 36.8371 128.915 33.9346C128.879 34.6423 128.852 35.2514 128.825 35.9323H123.743V8.05395ZM139.953 26.105C139.971 22.7546 137.691 20.4164 134.384 20.4164C131.194 20.4164 128.897 22.6471 128.861 25.7914C128.825 29.2583 131.068 31.6681 134.339 31.695C137.538 31.7129 139.926 29.3389 139.944 26.1139L139.953 26.105Z" fill="#2B65FA"/>
<path d="M73.6449 25.6302C73.6449 19.646 78.2312 15.0862 84.2412 15.0862C90.2511 15.0862 94.8825 19.7267 94.8735 25.7467C94.8645 31.5696 90.161 36.1831 84.2502 36.1742C78.2402 36.1742 73.6449 31.5964 73.6539 25.6302H73.6449ZM78.8259 25.6123C78.8259 28.8194 81.0335 31.0948 84.1691 31.1127C87.3678 31.1306 89.6745 28.8283 89.6835 25.6302C89.6835 22.4679 87.3137 20.0671 84.1871 20.085C81.0785 20.1029 78.8349 22.4231 78.8259 25.6123Z" fill="#2B65FA"/>
<path d="M108.407 15.0862C114.426 15.0773 119.03 19.7087 119.021 25.7646C119.012 31.5785 114.3 36.1742 108.344 36.1742C102.487 36.1742 97.8019 31.5516 97.7929 25.7646C97.7838 19.6908 102.343 15.1042 108.407 15.0862ZM113.84 25.6571C113.84 22.45 111.543 20.076 108.398 20.085C105.299 20.085 102.992 22.4142 102.974 25.5585C102.956 28.8014 105.217 31.1127 108.407 31.1127C111.543 31.1127 113.822 28.8194 113.831 25.6571H113.84Z" fill="#2B65FA"/>
<path d="M61.6701 13.3304H54.1914V8.04499H74.7442V13.2767H67.2385V35.9054H61.6701V13.3304Z" fill="#2B65FA"/>
<path d="M155.162 35.9412H150.116V16.1075H155.162V35.9412Z" fill="#2B65FA"/>
<path d="M155.559 10.9564C155.577 12.5958 154.198 13.9754 152.567 13.9575C151.008 13.9485 149.621 12.56 149.621 11.0102C149.621 9.45144 150.981 8.04499 152.522 8.0002C154.135 7.94645 155.541 9.31707 155.559 10.9564Z" fill="#2B65FA"/>
<path d="M17.5911 10.9475C17.0415 10.5533 16.4738 10.1323 15.8882 9.73811C15.3205 9.36186 14.9511 8.90499 15.4196 8.26895C15.8701 7.65082 16.5099 7.79415 17.0055 8.19728C17.6362 8.7079 18.1498 9.37082 18.7895 9.87249C19.1409 10.1502 19.6455 10.3383 20.105 10.3742C21.3214 10.4817 22.5469 10.5264 23.7723 10.5264C24.1147 10.5264 24.5292 10.3742 24.7724 10.1502C25.4843 9.49624 26.115 8.7527 26.8178 8.08978C27.2863 7.65082 27.9531 7.56124 28.2595 8.15249C28.4307 8.4929 28.2324 9.1827 27.9621 9.54999C27.4665 10.2308 26.8088 10.7862 26.2051 11.3954C27.025 12.2912 27.7188 13.1064 28.4937 13.841C28.71 14.0471 29.1785 14.0292 29.5389 14.056C32.4493 14.271 34.6929 15.57 36.0445 18.1769C37.333 20.6404 37.1437 23.086 35.603 25.3794C34.1252 27.5831 31.9627 28.6223 29.3137 28.7208C28.9623 28.7387 28.5027 28.8731 28.3045 29.1239C26.8989 30.8619 25.5654 32.6446 24.1777 34.4004C23.3668 35.4217 22.5198 36.4071 21.6098 37.491C19.4563 34.7677 17.3208 32.0264 15.1223 29.321C14.879 29.0254 14.3474 28.8104 13.9509 28.8104C10.3468 28.7567 7.39134 26.4454 6.63447 23.0233C5.89561 19.6908 7.6166 16.2598 10.7793 14.7727C11.0856 14.6294 11.41 14.4323 11.7254 14.4323C14.1672 14.486 15.6899 12.9362 17.5821 10.9564L17.5911 10.9475ZM17.2037 28.3267C18.2759 29.5271 19.3572 30.7812 20.4925 31.9817C21.0872 32.6087 21.8531 32.5908 22.5469 32.125C24.0967 31.0769 25.1509 29.6346 26.0159 27.9414C23.2587 26.5081 21.6548 24.161 20.069 21.7244C19.1139 20.2552 17.8705 18.8935 16.5099 17.7827C14.879 16.4569 12.5273 16.6898 11.0045 17.9887C9.09431 19.6192 8.73389 22.235 10.1575 24.2148C11.6082 26.2304 14.1492 26.7858 16.3207 25.4152C17.3749 24.7523 18.2759 23.8385 19.3031 22.9875C19.7987 23.6594 20.3033 24.3491 20.916 25.1733C19.7626 26.1498 18.6363 27.0994 17.2037 28.3177V28.3267ZM29.3227 16.8869C27.7369 16.86 26.5565 17.6931 25.4572 18.6785C22.9613 20.9271 22.9433 21.8229 25.3581 24.1252C25.8447 24.5821 26.3763 25.0031 26.9439 25.3614C28.6109 26.4364 30.7013 26.3289 32.188 25.1464C33.8009 23.8564 34.3956 21.8408 33.7108 19.9417C33.044 18.0873 31.305 16.8779 29.3227 16.8958V16.8869ZM22.0333 18.1589C22.9523 17.2362 24.2769 15.9104 25.6104 14.5667C23.6371 11.9598 19.4383 11.9777 18.0056 14.1187C19.4293 15.5521 20.7538 16.8869 22.0243 18.1589H22.0333Z" fill="#FDFEFE"/>
</svg>
