<svg width="131" height="28" viewBox="0 0 131 28" fill="none" xmlns="http://www.w3.org/2000/svg">
<path d="M54.6597 0.62578C51.9755 0.62578 49.346 1.42376 47.1188 2.92681C44.8915 4.42986 43.1376 6.55873 42.1116 9.05105C41.0827 11.5434 40.8173 14.3008 41.3317 16.9434C41.8653 19.5861 43.1404 22.021 45.0447 23.9422C46.9491 25.8442 49.3679 27.156 51.9946 27.6889C54.6213 28.2218 57.3657 27.9348 59.8392 26.91C62.3155 25.8825 64.447 24.1335 65.9327 21.8707C67.4184 19.6271 68.2174 16.9817 68.2174 14.2817C68.2174 10.6498 66.7891 7.18727 64.2363 4.61843C61.7026 2.06871 58.2577 0.623047 54.6569 0.623047L54.6597 0.62578ZM54.6597 21.663C53.2122 21.663 51.8031 21.2258 50.6047 20.4278C49.4062 19.6107 48.4704 18.4683 47.9205 17.1183C47.3678 15.7683 47.2145 14.3035 47.5018 12.877C47.7891 11.4505 48.4732 10.1387 49.502 9.11118C50.5308 8.08364 51.825 7.3813 53.2533 7.09436C54.6624 6.81014 56.1481 6.96045 57.4807 7.51248C58.8132 8.06451 59.9569 9.01553 60.7559 10.2125C61.5548 11.4286 61.9926 12.836 61.9926 14.3008C61.9926 16.2602 61.232 18.124 59.8584 19.5123C58.4493 20.8814 56.6024 21.6603 54.6597 21.6603V21.663Z" fill="black"/>
<path d="M85.2608 0.62578C82.5766 0.62578 79.9471 1.42376 77.7198 2.92681C75.4926 4.42986 73.7387 6.55873 72.7126 9.05105C71.6838 11.5434 71.4184 14.3008 71.9328 16.9434C72.4472 19.5861 73.7415 22.021 75.6458 23.9422C77.5502 25.8442 79.969 27.156 82.5957 27.6889C85.2225 28.2218 87.9668 27.9348 90.4403 26.91C92.9166 25.8825 95.048 24.1335 96.5338 21.8707C98.0195 19.6271 98.8185 16.9817 98.8185 14.2817C98.8185 10.6498 97.3902 7.18727 94.8374 4.61843C92.3228 2.06871 88.8588 0.623047 85.258 0.623047L85.2608 0.62578ZM85.2608 21.663C83.8133 21.663 82.4042 21.2258 81.2057 20.4278C80.0073 19.6107 79.0715 18.4683 78.5216 17.1183C77.9688 15.7683 77.8156 14.3035 78.1029 12.877C78.3902 11.4505 79.0742 10.1387 80.103 9.11118C81.1318 8.08364 82.4261 7.3813 83.8544 7.09436C85.2635 6.81014 86.7492 6.96045 88.0817 7.51248C89.4143 8.06451 90.558 9.01553 91.3569 10.2125C92.1559 11.4286 92.5937 12.836 92.5937 14.3008C92.5937 16.2602 91.8331 18.124 90.4595 19.5123C89.0695 20.8814 87.2034 21.6603 85.2608 21.6603V21.663Z" fill="black"/>
<path d="M39.9577 0.855469H33.3499L30.3018 10.8794H36.8139L39.955 0.855469H39.9577Z" fill="black"/>
<path d="M24.8188 10.4039L28.094 18.1269L29.276 14.1889H35.769L32.1134 26.1723C31.8289 27.1042 30.9506 27.7519 29.9628 27.7519H26.269C25.3742 27.7519 24.537 27.1998 24.173 26.3253L20.1372 16.3779L16.1369 26.2871C15.814 27.1233 14.974 27.7136 14.041 27.7136H10.3088C9.31835 27.7136 8.44278 27.0659 8.15822 26.134L0.425781 0.855469H6.93788L12.0792 18.1077L15.4884 10.3274C16.2299 8.38711 18.096 7.13275 20.1345 7.13275C22.2304 7.13275 24.0964 8.42537 24.8188 10.4039Z" fill="black"/>
<path d="M113.2 6.99884L108.535 0.855469H100.422L109.145 12.3442L113.2 6.99884Z" fill="#62CF7F"/>
<path d="M129.538 0.874512H121.425L100.991 27.749H109.104L129.538 0.874512Z" fill="#62CF7F"/>
<path d="M121.997 27.749L117.332 21.6056L121.387 16.2603L130.109 27.749H121.997Z" fill="#62CF7F"/>
</svg>
