<svg width="152" height="31" viewBox="0 0 152 31" fill="none" xmlns="http://www.w3.org/2000/svg">
<path d="M23.589 21.6454L27.407 24.918C26.6652 25.9434 25.7925 26.8379 24.7889 27.6015C23.5454 28.5833 22.149 29.3687 20.6655 29.9359C19.0292 30.5686 17.2838 30.8959 15.5166 30.8741C12.833 30.9177 10.1931 30.2414 7.8805 28.9105C5.69877 27.6451 3.90974 25.8125 2.68797 23.5871C1.40075 21.2526 0.768048 18.6127 0.811682 15.9292C0.789865 13.922 1.16076 11.9366 1.88073 10.0603C2.57889 8.2495 3.62612 6.6132 4.95698 5.21689C6.26602 3.82058 7.85868 2.7079 9.62589 1.94429C11.5458 1.13705 13.5966 0.722518 15.6693 0.744336C18.1565 0.657066 20.6 1.22432 22.7817 2.40245C24.5708 3.44969 26.1416 4.846 27.3634 6.52593L23.5017 9.92944C22.6508 8.66403 21.56 7.59498 20.2946 6.7441C18.8983 5.89323 17.2838 5.4787 15.6693 5.54415C13.9239 5.50052 12.2222 5.9805 10.7822 6.94046C9.40772 7.90043 8.31685 9.20947 7.61869 10.7367C6.8769 12.3293 6.48419 14.0747 6.50601 15.8419C6.48419 17.5655 6.8769 19.2673 7.61869 20.8163C8.31685 22.2562 9.36408 23.4998 10.6949 24.3943C12.0912 25.2888 13.7057 25.747 15.3639 25.7034C16.7602 25.7688 18.1565 25.507 19.4437 24.9834C20.36 24.5689 21.2109 24.0016 21.9309 23.2817L23.589 21.6454Z" fill="#1C2951"/>
<path d="M28.8907 20.0307C28.8689 18.1544 29.3489 16.2999 30.2652 14.6636C31.1815 13.0491 32.5124 11.6964 34.1269 10.7583C37.6831 8.83838 41.9811 8.83838 45.5373 10.7583C47.1518 11.6964 48.4609 13.0491 49.3772 14.6636C52.2353 20.0089 50.2062 26.6631 44.861 29.5212C39.6903 32.292 33.2323 30.4812 30.2434 25.4414C29.327 23.8051 28.8471 21.9506 28.8689 20.0743L28.8907 20.0307ZM39.7775 26.4668C40.9339 26.5104 42.0684 26.1613 42.9847 25.485C43.8356 24.8523 44.4901 24.0014 44.9046 23.0196C45.3192 22.1033 45.5373 21.0997 45.5373 20.0743C45.5373 19.0707 45.2973 18.0671 44.9046 17.129C44.4901 16.1472 43.8138 15.2963 42.9847 14.6636C41.043 13.3546 38.4903 13.3546 36.5486 14.6636C35.7195 15.2963 35.065 16.1254 34.6723 17.0853C34.2578 18.0017 34.0396 19.0053 34.0178 20.0307C34.0396 21.0561 34.2578 22.0815 34.6723 22.9978C35.0868 23.9796 35.7632 24.8305 36.5922 25.4632C37.5304 26.1395 38.6649 26.4886 39.7994 26.445" fill="#1C2951"/>
<path d="M51.7773 1.44214H56.8826V6.80921H51.7773V1.44214ZM51.7773 9.9509H56.8826V30.1538H51.7773V9.9509Z" fill="#1C2951"/>
<path d="M58.8896 30.154V9.99478H63.7767L63.9076 12.2856C64.584 11.5875 65.3476 10.9984 66.1766 10.4966C67.3548 9.82024 68.6856 9.49298 70.0383 9.55844C72.1982 9.42753 74.3145 10.2348 75.8199 11.8056C77.238 13.5074 77.958 15.6891 77.8271 17.8927V30.1322H72.7V17.9145C72.7655 16.8236 72.3728 15.7327 71.631 14.9473C71.2819 14.5982 70.8456 14.3146 70.3656 14.1401C69.8856 13.9655 69.3838 13.8783 68.882 13.9001C67.5511 13.8565 66.2639 14.4237 65.3694 15.4273C64.4531 16.4745 63.9513 17.8272 63.9949 19.2235V30.154H58.8896Z" fill="#1C2951"/>
<path d="M140.857 14.7727L149.868 1.46408H141.337L136.668 8.90379L131.868 1.46408H122.421L122.858 2.05314L122.552 1.92224C120.327 1.09318 117.949 0.678653 115.571 0.70047C112.822 0.656836 110.116 1.33317 107.716 2.70767C106.015 3.68945 104.531 5.02031 103.397 6.61297C102.131 5.04212 100.517 3.82035 98.6841 3.03493C96.1533 1.98769 93.4479 1.46408 90.7207 1.50771H79.6157V30.1757H90.6771C93.4261 30.2193 96.1314 29.6957 98.6404 28.6049C100.473 27.8194 102.088 26.5977 103.353 25.0704C104.531 26.6849 106.037 28.0158 107.76 28.9757C110.138 30.2848 112.844 30.9393 115.571 30.8957C118.145 30.9393 120.698 30.3939 123.032 29.2812L122.421 30.1757H130.821L136.428 21.3615L142.21 30.1757H151.809L140.857 14.7727ZM96.2405 21.3179C94.6697 22.8014 92.5534 23.5869 90.4153 23.456H87.2954V8.14019H90.4371C92.6407 7.94383 94.8442 8.72925 96.4369 10.2783C97.7678 11.8055 98.4441 13.7909 98.3786 15.8199C98.4223 17.8489 97.6587 19.8343 96.2405 21.3179ZM126.981 23.3905L123.338 20.0088C122.487 21.0997 121.44 22.0378 120.261 22.7796C118.996 23.4341 117.556 23.7396 116.138 23.6741C114.72 23.7178 113.324 23.3469 112.102 22.6487C110.967 21.9724 110.029 20.9906 109.44 19.7906C108.807 18.5034 108.48 17.0853 108.502 15.6672C108.48 14.2709 108.786 12.8745 109.396 11.631C109.985 10.4528 110.902 9.47104 112.014 8.77289C113.28 8.0311 114.72 7.6602 116.182 7.70384C117.534 7.68202 118.865 8.00928 120.043 8.68562C121.178 9.36196 122.181 10.2565 122.967 11.3255L126.785 7.5293L132.348 15.4926L126.981 23.3905Z" fill="#F94A29"/>
</svg>
