<svg width="161" height="38" viewBox="0 0 161 38" fill="none" xmlns="http://www.w3.org/2000/svg">
<path fill-rule="evenodd" clip-rule="evenodd" d="M132.98 31.0406H137.528V13.5911H132.98V31.0406Z" fill="black"/>
<path fill-rule="evenodd" clip-rule="evenodd" d="M132.98 11.598H137.528V7.06372H132.98V11.598Z" fill="black"/>
<path fill-rule="evenodd" clip-rule="evenodd" d="M126.036 31.0403H130.583V26.5061H126.036V31.0403Z" fill="black"/>
<path fill-rule="evenodd" clip-rule="evenodd" d="M93.8764 28.6745C94.1437 29.3766 94.5464 29.9251 95.026 30.3566C95.513 30.7917 96.0841 31.1318 96.7614 31.3256C97.4497 31.5194 98.2112 31.5925 99.013 31.5925C99.8148 31.5925 100.587 31.5047 101.217 31.3365C101.806 31.1793 102.367 30.9563 102.89 30.6747V27.4678C102.055 27.8262 101.276 27.9578 100.39 27.998C99.4523 28.0419 98.8958 27.775 98.4345 27.3362C97.9513 26.8754 97.695 26.2758 97.695 25.2702V15.5764H102.894V11.598H97.695V7.06372H93.47V11.598H90.9365V15.5764H93.47V25.9869C93.47 27.0619 93.6055 27.9651 93.8728 28.6745H93.8764Z" fill="black"/>
<path fill-rule="evenodd" clip-rule="evenodd" d="M66.4689 17.4954H55.145V22.1869H61.5044C61.1712 23.5252 60.5159 24.7282 59.575 25.6863C58.1545 27.1343 56.1884 27.9315 54.032 27.9315C49.5618 27.9315 45.9226 24.3041 45.9226 19.843C45.9226 15.3819 49.5618 11.7545 54.032 11.7545C56.4264 11.7545 58.6304 12.7783 60.1571 14.5408L63.7963 11.5753C61.3836 8.75603 57.803 7.06665 54.032 7.06665C46.966 7.06665 41.2217 12.8003 41.2217 19.8466C41.2217 26.893 46.9697 32.6266 54.032 32.6266C57.4625 32.6266 60.6221 31.3943 62.9359 29.0394C64.8763 27.0612 66.1614 24.3041 66.4103 21.5397C66.5312 20.1904 66.5421 18.852 66.4726 17.5027L66.4689 17.4954Z" fill="black"/>
<path fill-rule="evenodd" clip-rule="evenodd" d="M114.515 15.2142C117.125 15.2142 119.347 16.8487 120.219 19.1487H108.814C109.682 16.8487 111.908 15.2142 114.518 15.2142H114.515ZM124.718 22.8565C124.795 22.3483 124.839 21.8254 124.839 21.2952C124.839 15.6091 120.215 10.998 114.515 10.998C108.814 10.998 104.194 15.6091 104.194 21.2952C104.194 26.9813 108.818 31.5923 114.515 31.5923C118.425 31.5923 121.83 29.4239 123.58 26.2243L119.765 24.3777C118.703 26.1695 116.752 27.3725 114.515 27.3725C111.688 27.3725 109.312 25.4528 108.624 22.8492H120.405C120.405 22.8492 120.405 22.8529 120.405 22.8565H124.722H124.718Z" fill="black"/>
<path fill-rule="evenodd" clip-rule="evenodd" d="M78.309 27.373C74.9445 27.373 72.2132 24.6525 72.2132 21.292C72.2132 17.9316 74.9408 15.211 78.309 15.211C81.6773 15.211 84.4048 17.9316 84.4048 21.292C84.4048 24.6525 81.6773 27.373 78.309 27.373ZM78.309 11.0168C72.6086 11.0168 67.9883 15.6279 67.9883 21.3103C67.9883 26.9927 72.6086 31.6038 78.309 31.6038C84.0094 31.6038 88.6298 26.9927 88.6298 21.3103C88.6298 15.6279 84.0094 11.0168 78.309 11.0168Z" fill="black"/>
<path fill-rule="evenodd" clip-rule="evenodd" d="M84.4053 31.0407H88.6302V11.5801H84.4053V31.0407Z" fill="black"/>
<path fill-rule="evenodd" clip-rule="evenodd" d="M150.218 27.3725C146.854 27.3725 144.123 24.652 144.123 21.2952C144.123 17.9384 146.85 15.2178 150.218 15.2178C153.587 15.2178 156.314 17.9384 156.314 21.2952C156.314 24.652 153.587 27.3725 150.218 27.3725ZM150.218 10.998C144.518 10.998 139.894 15.6091 139.894 21.2952C139.894 26.9813 144.518 31.5923 150.218 31.5923C155.919 31.5923 160.543 26.9813 160.543 21.2952C160.543 15.6091 155.919 10.998 150.218 10.998Z" fill="black"/>
<path fill-rule="evenodd" clip-rule="evenodd" d="M18.7535 29.0695C13.1849 29.0695 8.67067 24.5681 8.67067 19.0137C8.67067 13.4592 13.1849 8.95791 18.7535 8.95791V0.730469C8.6304 0.730469 0.425781 8.91403 0.425781 19.0137C0.425781 29.1133 8.6304 37.2969 18.7535 37.2969C28.8765 37.2969 37.0811 29.1097 37.0811 19.0137H28.8326C28.8326 24.5681 24.3184 29.0695 18.7535 29.0695Z" fill="#0051D2"/>
<path fill-rule="evenodd" clip-rule="evenodd" d="M18.7534 19.0091H28.8362V8.95337H18.7534V19.0091Z" fill="#14E0A1"/>
</svg>
