<svg width="108" height="42" viewBox="0 0 108 42" fill="none" xmlns="http://www.w3.org/2000/svg">
<path d="M56.1425 15.2537C54.7218 15.2537 53.3054 15.2537 51.8847 15.2537C51.4733 15.2537 51.2676 15.4646 51.2676 15.8866C51.2676 18.8898 51.2676 21.8888 51.2676 24.8921C51.2676 25.4091 51.2676 25.4091 50.754 25.4091C47.6643 25.4091 44.5787 25.4091 41.4889 25.4091C41.1493 25.4091 40.9781 25.2382 40.9754 24.8962C40.9754 21.8599 40.9754 18.8236 40.9754 15.7873C40.9754 15.2578 40.9754 15.2578 40.4328 15.2578C38.9169 15.2578 37.4052 15.2578 35.8893 15.2578C35.3633 15.2578 35.3633 15.2578 35.3633 15.7955C35.3633 19.8205 35.3633 23.8455 35.3633 27.8705C35.3633 31.9203 35.3633 35.9701 35.3633 40.0199C35.3633 40.4915 35.3757 40.5039 35.8396 40.5039C37.3762 40.5039 38.9169 40.5039 40.4535 40.5039C40.9712 40.5039 40.9754 40.4998 40.9754 39.9868C40.9754 36.9381 40.9754 33.8893 40.9754 30.8406C40.9754 30.3483 40.9754 30.3442 41.4765 30.3442C44.5538 30.3442 47.6312 30.3442 50.7043 30.3442C51.0771 30.3442 51.2635 30.5262 51.2635 30.8902C51.2635 33.939 51.2635 36.9877 51.2635 40.0364C51.2635 40.4791 51.2842 40.4998 51.7274 40.4998C53.206 40.4998 54.6846 40.4998 56.1632 40.4998C56.5691 40.4998 56.772 40.2943 56.772 39.8834C56.772 35.4075 56.772 30.9275 56.772 26.4516C56.772 22.9271 56.772 19.4027 56.772 15.8742C56.772 15.4577 56.5594 15.2495 56.1342 15.2495L56.1425 15.2537Z" fill="#00003E"/>
<path d="M12.4887 23.3943C13.7395 21.7727 15.04 20.1884 16.1624 18.4717C17.6493 16.2007 18.2996 13.7517 17.9351 11.0381C17.6369 8.82081 17.0363 6.70286 16.034 4.70899C15.3092 3.26529 14.4726 1.89605 13.2756 0.779153C13.1306 0.64678 12.9815 0.402728 12.7869 0.481325C12.5674 0.568195 12.6378 0.857721 12.6336 1.06042C12.6171 2.22696 12.5052 3.38524 12.3354 4.54351C11.7556 8.53953 10.0699 12.0061 7.36118 14.9927C6.13108 16.3496 4.7933 17.6154 3.64603 19.0508C1.45918 21.781 0.162816 24.8504 0.154532 28.3956C0.137965 28.983 0.171099 29.5662 0.253934 30.1412C0.796504 33.798 2.48634 36.8136 5.32758 39.1757C6.96358 40.5366 8.84807 41.3888 10.9355 41.7984C11.0846 41.8273 11.2503 41.8852 11.3663 41.7322C11.4822 41.5832 11.445 41.4095 11.3663 41.2564C11.271 41.0537 11.1592 40.8552 11.0473 40.6566C10.2356 39.2667 9.52318 37.8271 9.02617 36.2883C8.03629 33.2396 8.19368 30.2901 9.75098 27.4482C10.5379 26.0128 11.4822 24.685 12.4804 23.3902L12.4887 23.3943Z" fill="#00003E"/>
<path d="M107.355 40.1894C107.31 40.1191 107.256 40.0529 107.21 39.9867C104.448 36.1769 101.685 32.367 98.9227 28.5571C95.7874 24.2343 92.6521 19.9156 89.5251 15.5928C89.3428 15.3446 89.1523 15.237 88.8417 15.2453C87.9719 15.2618 87.1022 15.2536 86.2283 15.2536C85.3461 15.2536 84.4639 15.2536 83.5817 15.2536C83.445 15.2536 83.2628 15.1874 83.1799 15.3239C83.0971 15.4687 83.2628 15.5803 83.3414 15.6879C85.988 19.3902 88.6387 23.0926 91.2853 26.7908C91.6747 27.3368 91.6705 27.8801 91.2729 28.4206C88.4317 32.3215 85.5946 36.2224 82.7575 40.1274C82.6912 40.2142 82.5545 40.297 82.6291 40.4335C82.6829 40.5245 82.803 40.4955 82.8941 40.4955C84.7289 40.4955 86.5679 40.4914 88.4027 40.4955C88.6595 40.4955 88.821 40.3797 88.9618 40.1812C89.9186 38.845 90.8836 37.513 91.8486 36.181C92.8468 34.7993 93.8491 33.4218 94.839 32.036C94.9839 31.8333 95.0668 31.8044 95.2159 32.0319C95.4437 32.3794 95.7046 32.7103 95.9489 33.0454C97.6843 35.4364 99.4197 37.8274 101.151 40.2225C101.275 40.3962 101.408 40.5121 101.644 40.5121C103.491 40.5038 105.342 40.512 107.19 40.5079C107.281 40.5079 107.397 40.541 107.446 40.4376C107.496 40.3342 107.397 40.2639 107.347 40.1894H107.355Z" fill="#00003E"/>
<path d="M81.7598 15.7914C81.7598 15.4329 81.5831 15.2523 81.2297 15.2495C77.9039 15.2495 74.5739 15.2495 71.2481 15.2495C67.9098 15.2495 64.5716 15.2495 61.2333 15.2495C60.7239 15.2495 60.7197 15.2537 60.7197 15.7749C60.7197 17.1193 60.7197 18.4679 60.7197 19.8123C60.7197 20.2797 60.7322 20.288 61.2043 20.288C63.4119 20.288 65.6153 20.288 67.8228 20.288C68.1818 20.288 68.3613 20.4728 68.3613 20.8423C68.3613 27.2252 68.3613 33.608 68.3613 39.995C68.3613 40.4914 68.3695 40.4998 68.8541 40.4998C70.3824 40.4998 71.9066 40.4998 73.4349 40.4998C73.7994 40.4998 73.9816 40.3136 73.9816 39.9413C73.9816 33.5584 73.9816 27.1755 73.9816 20.7885C73.9816 20.4576 74.1431 20.2921 74.4662 20.2921C76.7442 20.2921 79.0221 20.2838 81.3001 20.3004C81.6604 20.3004 81.7764 20.1928 81.7723 19.8329C81.7557 18.4885 81.7681 17.1399 81.764 15.7955L81.7598 15.7914Z" fill="#00003E"/>
<path d="M24.4467 19.7295C23.7674 18.8029 22.9929 17.9673 22.1273 17.2103C21.7918 16.9166 21.7297 16.9496 21.6303 17.3964C21.5599 17.7108 21.4729 18.0211 21.3611 18.3189C20.541 20.5113 19.3399 22.4969 18.0063 24.4039C17.0122 25.8352 16.1011 27.3161 15.3845 28.9046C14.6307 30.58 14.0964 32.3091 14.1503 34.1747C14.1503 34.5305 14.1172 34.8904 14.1544 35.2461C14.4402 37.7529 15.8277 39.6848 17.472 41.476C17.7702 41.8028 18.056 41.7696 18.2962 41.4015C18.6524 40.8554 19.137 40.4583 19.7127 40.177C21.5516 39.2753 23.113 38.0342 24.3928 36.4375C26.6998 33.5542 27.5944 30.2614 27.201 26.6129C26.9276 24.0688 25.9543 21.7854 24.4467 19.7295Z" fill="#008CD6"/>
<path d="M99.5649 24.8585C99.7099 25.0612 99.83 25.2019 100.029 24.8999C100.236 24.5814 100.476 24.2835 100.7 23.9733C102.721 21.2141 104.738 18.455 106.755 15.6958C106.834 15.5882 107.003 15.4766 106.937 15.3359C106.867 15.1911 106.68 15.2615 106.544 15.2615C105.674 15.2573 104.804 15.2615 103.934 15.2615C103.077 15.2615 102.216 15.278 101.358 15.2532C101.023 15.2449 100.812 15.3566 100.617 15.6255C99.4696 17.2057 98.3099 18.7776 97.1502 20.3537C96.6532 21.028 96.7029 20.8832 97.142 21.4996C97.9455 22.6247 98.7573 23.7416 99.5608 24.8668L99.5649 24.8585Z" fill="#008CD6"/>
</svg>
