<svg width="147" height="32" viewBox="0 0 147 32" fill="none" xmlns="http://www.w3.org/2000/svg">
<path d="M59.1461 26.6066L57.1275 21.8438H47.1612L45.1426 26.6066H41.5962L50.615 6.14648H53.6737L62.6925 26.6066H59.1461ZM52.1459 10.1479L48.4452 18.8504H55.8436L52.1428 10.1479H52.1459Z" fill="#2F85EB"/>
<path d="M76.696 9.10898V26.6066H73.3934V9.10898H66.208V6.14648H83.9092V9.10898H76.6929H76.696Z" fill="#2F85EB"/>
<path d="M104.978 26.6066L102.959 21.8438H92.9927L90.9741 26.6066H87.4277L96.4465 6.14648H99.5053L108.524 26.6066H104.978ZM97.9774 10.1479L94.2767 18.8504H101.675L97.9744 10.1479H97.9774Z" fill="#2F85EB"/>
<path d="M134.022 26.6066H131.241L118.858 11.9174V26.6066H115.586V6.14648H118.367L130.72 21.0792V6.14648H134.022V26.6066Z" fill="#2F85EB"/>
<path d="M143.349 26.6066V6.14648H146.621V26.6066H143.349Z" fill="#2F85EB"/>
<path d="M26.4845 16.3749C25.4814 16.3749 24.4752 16.341 23.4751 16.3841C22.6016 16.4211 22.1417 16.0542 21.8115 15.2404C20.6942 12.4783 19.4904 9.75004 18.3546 6.991C18.1107 6.39912 17.7836 6.15867 17.1447 6.18641C16.1693 6.22957 15.1878 6.24498 14.2125 6.18333C13.4624 6.134 13.1013 6.46078 12.8297 7.11123C11.2062 10.9739 9.55492 14.8242 7.91289 18.6776C7.18756 20.3793 6.44371 22.0748 5.73381 23.7827C5.44985 24.467 4.96835 24.6766 4.24611 24.7691C2.84174 24.9479 2.14109 24.3437 1.53922 23.1137C-2.27263 15.2836 1.31081 5.75484 9.28947 2.26519C19.1663 -2.05372 29.0772 5.0304 30.5186 13.8686C30.5957 14.3495 30.6482 14.8366 30.6976 15.3205C30.7809 16.159 30.6328 16.3502 29.7994 16.3687C28.6944 16.3903 27.5864 16.3749 26.4814 16.3749C26.4814 16.3749 26.4814 16.3749 26.4814 16.3779L26.4845 16.3749Z" fill="#2F85EB"/>
<path d="M14.8358 31.7883C12.3666 31.6958 9.89426 31.107 7.65345 29.7013C6.86021 29.2019 6.85096 29.1495 7.59789 28.6409C8.46521 28.0521 8.9683 27.2012 9.36646 26.2671C11.3048 21.7324 13.2462 17.2008 15.1877 12.6692C15.2772 12.4627 15.2957 12.1267 15.5272 12.1051C15.8358 12.0743 15.8667 12.4411 15.9778 12.6538C16.9902 14.6206 17.8266 16.6644 18.6631 18.7083C19.5921 20.971 20.0613 21.2947 22.5305 21.3163C24.688 21.3348 26.8485 21.2793 29.006 21.4457C29.827 21.5074 29.9042 21.5876 29.6048 22.3767C28.3979 25.5458 26.1602 27.8178 23.2867 29.5009C20.728 30.9991 17.9346 31.7174 14.8296 31.7914L14.8358 31.7883Z" fill="#2F85EB"/>
</svg>
