<svg width="151" height="28" viewBox="0 0 151 28" fill="none" xmlns="http://www.w3.org/2000/svg">
<path d="M44.3701 19.8223L34.7333 3.13024C32.621 -0.345902 27.4742 -0.386894 25.433 3.27235L15.3256 20.6285C13.4376 23.8095 15.7743 27.8076 19.553 27.8076H39.8198C43.6286 27.8076 46.4879 23.7084 44.3728 19.8223H44.3701Z" fill="#3156AA"/>
<path d="M30.4758 21.1178L29.8848 20.0766C29.3349 19.1174 28.1091 17.0377 28.1091 17.0377L19.9525 2.9036C17.8484 -0.236407 12.8467 -0.50149 10.7343 3.46383L1.24527 19.8553C-0.713832 23.3013 1.61192 27.7777 5.88035 27.8078H39.746C34.5199 27.8488 32.8454 25.146 30.4758 21.1178Z" fill="#1972E2"/>
<path d="M30.4758 21.118L29.8848 20.0768C29.3348 19.1175 28.109 17.0379 28.109 17.0379L22.7899 7.82007L15.2846 20.6698C13.3966 23.8508 15.7333 27.8489 19.512 27.8489H39.7378C34.4788 27.8079 32.8453 25.1461 30.4786 21.118H30.4758Z" fill="url(#paint0_linear_4688_49767)"/>
<path d="M82.9751 26.269V3.69043H101.762V5.11696C101.762 6.24835 100.853 7.15564 99.7205 7.15564H87.6622V13.2225H99.7205V16.6904H87.6622V22.7573H99.7205C100.842 22.7573 101.762 23.6646 101.762 24.796V26.2225L82.9751 26.2635V26.269Z" fill="#151617"/>
<path d="M128.743 3.69043H124.321C123.495 3.69043 122.759 4.0375 122.239 4.69064L116.898 11.4106L111.557 4.74256C111.037 4.08942 110.301 3.74235 109.475 3.74235H105.053L114.039 15.0098L105.053 26.2772H109.475C110.301 26.2772 111.037 25.9301 111.557 25.277L116.898 18.6089L122.277 25.3289C122.797 25.9301 123.533 26.3291 124.36 26.3291H128.781L119.796 15.0617L128.74 3.69316L128.743 3.69043Z" fill="#151617"/>
<path d="M68.2621 23.8834L74.4185 13.1352V26.2172H79.1056V3.6496H76.1971C75.2886 3.6496 74.4213 4.12785 73.9807 4.95589L66.6095 18.385L59.2382 4.94496C58.8004 4.11965 57.9303 3.63867 57.0219 3.63867H54.1216V26.2145H58.8086V13.1325L64.965 23.8806H68.2621V23.8834Z" fill="#151617"/>
<path d="M140.984 26.5235C134.48 26.6055 129.183 21.4951 129.142 15.0019C129.142 11.4438 130.226 8.49509 132.267 6.46734C134.308 4.46965 137.26 3.38745 140.771 3.38745C144.894 3.38745 148.142 4.81398 150.49 7.58779L149.02 8.84215C148.112 9.61827 146.763 9.66746 145.764 8.93507C144.456 7.93486 142.815 7.45662 140.946 7.45662C136.352 7.45662 133.616 10.2304 133.616 14.9117C133.616 19.5931 136.434 22.539 140.946 22.539C142.856 22.539 144.459 22.0198 145.764 21.0715C146.725 20.3364 148.063 20.3774 149.02 21.1644L150.49 22.4188C148.142 25.1407 145.017 26.5289 140.984 26.5289V26.5235Z" fill="#151617"/>
<defs>
<linearGradient id="paint0_linear_4688_49767" x1="13.0272" y1="14.316" x2="34.904" y2="22.9153" gradientUnits="userSpaceOnUse">
<stop stop-color="#264CA2" stop-opacity="0"/>
<stop offset="1" stop-color="#234588"/>
</linearGradient>
</defs>
</svg>
