<svg width="126" height="28" viewBox="0 0 126 28" fill="none" xmlns="http://www.w3.org/2000/svg">
<path fill-rule="evenodd" clip-rule="evenodd" d="M3.0443 27.349C2.12768 27.349 1.66801 27.349 1.32051 27.1714C1.01406 27.0128 0.762331 26.7642 0.606369 26.4554C0.425781 26.1028 0.425781 25.6437 0.425781 24.7255V0.567383H4.62581C5.54243 0.567383 6.00211 0.567385 6.3496 0.745018C6.65605 0.900789 6.90778 1.15221 7.06375 1.46102C7.2416 1.81082 7.2416 2.26993 7.2416 3.18816V19.749C7.2416 20.2081 7.2416 20.4377 7.33189 20.6126C7.41124 20.7656 7.53437 20.8913 7.69033 20.9706C7.86544 21.0608 8.09528 21.0608 8.55223 21.0608H18.3341C19.2507 21.0608 19.7104 21.0608 20.0578 21.2384C20.3643 21.3969 20.616 21.6456 20.772 21.9544C20.9498 22.3042 20.9498 22.7633 20.9498 23.6815V27.3435H3.0443V27.349Z" fill="#212631"/>
<path fill-rule="evenodd" clip-rule="evenodd" d="M75.1562 3.19108C75.1562 2.27285 75.1562 1.81375 75.3341 1.46394C75.4901 1.15514 75.7418 0.903719 76.0482 0.747948C76.3985 0.570315 76.8554 0.570312 77.772 0.570312H80.1826C80.7353 0.570312 81.0117 0.570313 81.2579 0.652298C81.4768 0.723351 81.6766 0.840857 81.8489 0.996627C82.0432 1.17153 82.18 1.41201 82.4536 1.89299L90.8373 16.56V3.19655C90.8373 2.27832 90.8373 1.81921 91.0151 1.46941C91.1711 1.1606 91.4228 0.909181 91.7293 0.753411C92.0795 0.575778 92.5364 0.575779 93.4531 0.575779H97.3795V24.7311C97.3795 25.6494 97.3795 26.1085 97.2016 26.4583C97.0457 26.7671 96.7939 27.0185 96.4875 27.1743C96.1372 27.3519 95.6803 27.3547 94.7637 27.3547H92.3531C91.8004 27.3574 91.5241 27.3574 91.2751 27.2781C91.0562 27.2071 90.8537 27.0896 90.6841 26.9365C90.4898 26.7616 90.353 26.5211 90.0794 26.0402L81.6984 11.3731V24.7366C81.6984 25.6548 81.6985 26.1139 81.5206 26.4637C81.3646 26.7726 81.1129 27.024 80.8065 27.1797C80.4562 27.3574 79.9993 27.3574 79.0827 27.3574H75.1562V3.19928V3.19108Z" fill="#212631"/>
<path fill-rule="evenodd" clip-rule="evenodd" d="M104.45 0.567524H100.523V24.7202C100.523 25.6384 100.523 26.0975 100.701 26.4473C100.857 26.7561 101.109 27.0075 101.415 27.1633C101.766 27.3409 102.223 27.3409 103.139 27.3409H107.066V16.4179H108.138C108.595 16.4179 108.825 16.4179 109.038 16.4753C109.224 16.5272 109.402 16.6119 109.561 16.7239C109.739 16.8524 109.884 17.03 110.171 17.3853L117.455 26.3763C117.742 26.7315 117.887 26.9091 118.065 27.0376C118.224 27.1496 118.399 27.2344 118.588 27.2863C118.798 27.3437 119.028 27.3437 119.488 27.3437H125.683L116.049 15.4723C115.57 14.882 115.329 14.5869 115.239 14.2589C115.157 13.9693 115.157 13.6632 115.239 13.3735C115.332 13.0456 115.57 12.7504 116.049 12.1601L125.472 0.559326H119.346C118.889 0.559326 118.662 0.559328 118.451 0.616717C118.265 0.668641 118.087 0.750626 117.931 0.865405C117.753 0.991114 117.608 1.16875 117.321 1.52401L110.199 10.2554C109.911 10.6106 109.766 10.7855 109.588 10.914C109.43 11.026 109.255 11.1107 109.069 11.1627C108.858 11.22 108.628 11.22 108.174 11.22H107.071V3.18556C107.071 2.26734 107.071 1.80822 106.893 1.45842C106.737 1.14961 106.486 0.898195 106.179 0.742424C105.829 0.564791 105.372 0.564793 104.455 0.564793L104.45 0.567524Z" fill="#212631"/>
<path fill-rule="evenodd" clip-rule="evenodd" d="M24.0582 26.726C23.8804 26.3761 23.8804 25.917 23.8804 24.9988V2.91764C23.8804 1.99941 23.8804 1.54031 24.0582 1.19051C24.2142 0.881699 24.4659 0.630277 24.7724 0.474506C25.1226 0.296873 25.5795 0.296875 26.4962 0.296875H35.0604C37.3424 0.296875 38.4833 0.296874 39.4219 0.548294C41.9638 1.2315 43.9475 3.21825 44.6288 5.76524C44.8805 6.7026 44.8805 7.84764 44.8805 10.135C44.8805 11.6244 44.2074 12.171 43.6328 12.6355C43.206 12.9799 42.8339 13.2832 42.8339 13.8954C42.8339 14.5075 43.2662 14.7999 43.7696 15.1497C44.4619 15.6307 45.2882 16.2046 45.2882 17.7896C45.2882 20.0715 45.2882 21.2139 45.0392 22.1512C44.3579 24.6982 42.3742 26.6904 39.8295 27.3709C38.8938 27.6223 37.7555 27.6223 35.4763 27.6223H26.4962C25.5795 27.625 25.1199 27.625 24.7724 27.4474C24.4632 27.2889 24.2142 27.0402 24.0555 26.7314L24.0582 26.726ZM36.0865 9.25504C36.6009 8.44613 37.0441 7.74654 37.0441 6.8529C37.0441 5.04105 35.5748 3.57352 33.7634 3.57352C31.9521 3.57352 30.4828 5.10937 30.4828 6.8529C30.4828 7.74654 30.9397 8.44613 31.4678 9.25504C32.1901 10.3591 33.0438 11.6681 33.0438 13.9582C33.0438 16.2483 32.1901 17.5546 31.4678 18.6614C30.9397 19.4703 30.4828 20.1699 30.4828 21.0636C30.4828 22.8754 31.9521 24.3429 33.7634 24.3429C35.5748 24.3429 37.0441 22.8754 37.0441 21.0636C37.0441 20.1699 36.5981 19.4703 36.0865 18.6614C35.3833 17.5546 34.5515 16.2456 34.5515 13.9582C34.5515 11.6709 35.3833 10.3591 36.0865 9.25504Z" fill="#FFD634"/>
<path fill-rule="evenodd" clip-rule="evenodd" d="M55.2892 22.0199L54.1729 25.5234C53.9649 26.1793 53.8609 26.5072 53.6612 26.7504C53.4861 26.9663 53.259 27.1303 53.0018 27.2341C52.7117 27.3489 52.367 27.3489 51.6802 27.3489H46.7441L54.6681 2.26165C54.8761 1.60304 54.98 1.2751 55.1798 1.03188C55.3549 0.81599 55.582 0.649292 55.8392 0.548177C56.132 0.430666 56.474 0.430664 57.1635 0.430664H62.603C63.2925 0.430664 63.6373 0.430666 63.9273 0.548177C64.1845 0.649292 64.4116 0.818723 64.5868 1.03188C64.7865 1.2751 64.8905 1.60304 65.0984 2.26165L73.0279 27.3489H68.0863C67.3995 27.3489 67.0548 27.3489 66.7647 27.2341C66.5075 27.133 66.2804 26.9663 66.1053 26.7504C65.9056 26.5072 65.8016 26.1793 65.5937 25.5234L64.4773 22.0199H55.292H55.2892ZM56.6819 17.6474H63.0819L59.8805 7.60431L56.6819 17.6474Z" fill="#212631"/>
</svg>
