<svg width="130" height="33" viewBox="0 0 130 33" fill="none" xmlns="http://www.w3.org/2000/svg">
<path d="M58.045 23.8653C56.9215 24.7993 55.548 25.2663 53.9277 25.2663C52.5964 25.2663 51.356 24.9226 50.213 24.2383C49.0701 23.554 48.2258 22.5162 47.6835 21.1314C47.1413 19.7466 46.8718 18.125 46.8718 16.2667C46.8718 14.8268 47.0991 13.429 47.5569 12.0734C48.0147 10.7178 48.807 9.6378 49.937 8.83351C51.067 8.02922 52.4698 7.62708 54.1518 7.62708C55.6129 7.62708 56.8274 7.9903 57.7918 8.71351C58.7561 9.43997 59.4932 10.5945 59.9998 12.1837L62.8475 11.5123C62.2598 9.4951 61.2207 7.93194 59.7303 6.81955C58.2398 5.70716 56.3987 5.15259 54.2102 5.15259C52.2814 5.15259 50.515 5.59039 48.9077 6.47252C47.3004 7.3514 46.0633 8.63892 45.193 10.3318C44.3228 12.0247 43.8877 14.0095 43.8877 16.2829C43.8877 18.3682 44.2741 20.3206 45.0437 22.1367C45.8132 23.9529 46.9367 25.3409 48.4141 26.3009C49.8916 27.2608 51.8073 27.7376 54.1647 27.7376C56.5221 27.7376 58.3697 27.1149 59.9446 25.8696C61.5194 24.6242 62.6104 22.8146 63.2176 20.4406L60.3245 19.7109C59.9251 21.5497 59.1653 22.9345 58.0418 23.8686L58.045 23.8653Z" fill="#3EB8F1"/>
<path d="M69.526 5.52563H66.6328V27.3647H69.526V5.52563Z" fill="#3EB8F1"/>
<path d="M72.3486 8.10389H79.5507V27.3647H82.4439V8.10389H89.6784V5.52563H72.3486V8.10389Z" fill="#3EB8F1"/>
<path d="M94.9576 17.3532H107.053V14.7912H94.9576V8.10389H107.875V5.52563H92.0645V27.3647H108.381V24.7865H94.9576V17.3532Z" fill="#3EB8F1"/>
<path d="M121.283 15.8193L128.965 5.52563H125.819L121.419 11.3211C120.754 12.1837 120.176 13.014 119.688 13.8085C119.341 13.1826 118.753 12.2875 117.929 11.1265L113.961 5.52563H110.515L117.974 15.9847L109.519 27.3647H112.993L118.481 19.7531C118.688 19.4548 119.036 18.9099 119.526 18.1154C119.854 18.6407 120.172 19.1272 120.481 19.5748L125.985 27.3647H129.563L121.286 15.8193H121.283Z" fill="#3EB8F1"/>
<path d="M36.4161 15.9327C36.4096 15.8808 36.3967 15.8257 36.3804 15.7738C36.3772 15.7608 36.3707 15.7479 36.3674 15.7349C36.3512 15.6863 36.3285 15.6408 36.3057 15.5987C36.3025 15.5922 36.2992 15.5857 36.296 15.5792L27.5613 0.531216C27.386 0.23285 27.0678 0.0479965 26.7203 0.0479965H22.0997C22.0997 0.0479965 22.0705 0.0512459 22.0542 0.054489C22.012 0.054489 21.9698 0.0609483 21.9276 0.0674345C21.9016 0.0706776 21.8756 0.0771797 21.8497 0.0836659C21.8107 0.0933952 21.7717 0.109609 21.7328 0.122582C21.7068 0.132311 21.6808 0.145279 21.6548 0.158251C21.6451 0.164737 21.6321 0.167993 21.6224 0.171236C21.5964 0.187452 21.5737 0.206921 21.5477 0.223137C21.525 0.239352 21.5022 0.25233 21.4827 0.268545C21.4405 0.300976 21.4048 0.339882 21.3723 0.3788C21.3626 0.388529 21.3529 0.398247 21.3431 0.407977L21.3334 0.420962L18.463 4.00782L16.453 0.52797C16.2809 0.226361 15.9594 0.0415039 15.612 0.0415039H9.86788C9.80944 0.0415039 9.75425 0.048006 9.69905 0.0577353C9.68606 0.0577353 9.66982 0.0641914 9.65683 0.0674345C9.60163 0.0804069 9.54966 0.0966304 9.49771 0.116089C9.49122 0.116089 9.48797 0.122582 9.48148 0.122582C9.43602 0.14204 9.39057 0.167976 9.34836 0.19392C9.33537 0.200407 9.32563 0.210158 9.31264 0.216644C9.26718 0.249075 9.22497 0.281489 9.186 0.320406C9.186 0.320406 9.1795 0.326902 9.17625 0.330145C9.14053 0.365819 9.10807 0.404732 9.07884 0.446892C9.0691 0.459865 9.0626 0.472836 9.05286 0.485808C9.04637 0.495537 9.03662 0.505259 9.03013 0.518231L0.181794 15.5663C0.00320401 15.8711 0.00320401 16.2473 0.181794 16.5522L9.30614 31.9926C9.32238 32.0218 9.34186 32.0477 9.36134 32.0737C9.36458 32.0802 9.37109 32.0866 9.37434 32.0931C9.41006 32.1385 9.44577 32.1775 9.48798 32.2132C9.49772 32.2229 9.5107 32.2326 9.52044 32.2423C9.5659 32.278 9.61136 32.3137 9.66006 32.3428C9.6763 32.3526 9.69254 32.3591 9.70878 32.3656C9.72826 32.3753 9.75099 32.3883 9.77047 32.3947C9.7997 32.4045 9.82568 32.4142 9.8549 32.4239C9.86789 32.4272 9.87762 32.4337 9.88737 32.4337C9.96854 32.4564 10.053 32.4661 10.1374 32.4661C10.1374 32.4661 10.1374 32.4661 10.1406 32.4661H15.4139C15.4139 32.4661 15.4139 32.4661 15.4172 32.4661C15.4204 32.4661 15.4172 32.4661 15.4204 32.4661H21.8172C21.8172 32.4661 21.8172 32.4661 21.8204 32.4661C21.8237 32.4661 21.8204 32.4661 21.8237 32.4661H26.532C26.8794 32.4661 27.1976 32.2812 27.373 31.9829L30.1168 27.2544C30.1362 27.222 30.1525 27.1896 30.1655 27.1571C30.1655 27.1539 30.1687 27.1474 30.172 27.1442C30.1947 27.0923 30.2077 27.0404 30.2207 26.9852C30.2207 26.9723 30.2272 26.9593 30.2304 26.9431C30.2402 26.888 30.2467 26.8296 30.2467 26.7712C30.2467 26.7712 30.2467 26.7712 30.2467 26.768C30.2467 26.7647 30.2467 26.7582 30.2467 26.755C30.2467 26.7031 30.2402 26.648 30.2304 26.5961C30.2304 26.5831 30.2272 26.5701 30.2239 26.5572C30.2109 26.5053 30.1947 26.4534 30.1752 26.4015C30.1687 26.3885 30.1622 26.3788 30.159 26.3658C30.1492 26.3431 30.1395 26.3236 30.1298 26.3009L28.5517 23.4211H32.091C32.4514 23.4211 32.7826 23.22 32.9515 22.9022L36.3122 16.5068C36.3122 16.5068 36.3155 16.4938 36.3187 16.4905C36.3252 16.4808 36.3285 16.4678 36.3317 16.4581C36.3512 16.416 36.3674 16.3705 36.3804 16.3284C36.3837 16.3187 36.3869 16.3057 36.3902 16.296C36.4031 16.2441 36.4129 16.1889 36.4161 16.137C36.4161 16.1241 36.4161 16.1144 36.4161 16.1014C36.4161 16.056 36.4161 16.0106 36.4129 15.9652C36.4129 15.9522 36.4129 15.9392 36.4096 15.9262L36.4161 15.9327ZM21.9633 2.74624L23.1063 4.76349H20.3495L21.9633 2.74624ZM24.7721 6.70286C25.1162 6.70286 25.4377 6.51801 25.613 6.22289C25.7884 5.92452 25.7884 5.55477 25.6195 5.25641L23.7687 1.99061H26.1618L33.7697 15.0993H31.1104L28.7757 10.5557C28.6101 10.2314 28.2757 10.027 27.912 10.027H16.4238L14.4236 6.70286H24.7721ZM28.9251 15.096H24.9961L23.1582 11.9664H27.3145L28.9218 15.096H28.9251ZM22.7426 15.096H19.4728L17.5895 11.9664H20.9048L22.7426 15.096ZM14.7418 11.0032L9.39382 20.0807L7.12408 16.2798L12.6799 7.57524L14.7418 11.0032ZM15.047 1.99061L16.6478 4.76349H13.2546L11.5856 1.99061H15.047ZM10.1276 29.5733L2.1463 16.069L9.87763 2.92139L11.5629 5.72019L5.16285 15.7446C4.96477 16.0527 4.95828 16.4484 5.14662 16.763L8.56579 22.4838C8.74114 22.779 9.05936 22.9573 9.4003 22.9573C9.74449 22.9573 10.0595 22.7757 10.2348 22.4773L15.8783 12.8972L17.7941 16.0819L10.1212 29.5733H10.1276ZM14.8684 30.5397H11.8129L19.489 17.0386H22.7491L14.8652 30.5397H14.8684ZM25.98 30.5397H23.4894L25.0578 27.7539H27.597L25.98 30.5397ZM26.1521 25.8112L26.9086 24.4654L27.6457 25.8112H26.1521ZM26.0839 21.9714L23.7687 26.0869C23.6388 26.2134 23.5447 26.3788 23.4992 26.5636L21.2619 30.5397H17.1187L25.0026 17.0386H28.8601L26.0839 21.9714ZM31.5098 21.4947H28.5809L31.0877 17.0386H33.8509L31.5098 21.4947Z" fill="#3EB8F1"/>
</svg>
