<svg width="153" height="29" viewBox="0 0 153 29" fill="none" xmlns="http://www.w3.org/2000/svg">
<path d="M30.658 15.5412C28.9566 24.4903 23.8778 28.9634 15.4216 28.9634H10.0626L8.93302 28.8983L10.4646 22.7287H15.0706C19.6511 22.7287 22.4284 20.0935 23.3966 14.8258C23.4645 14.4865 23.5211 14.1472 23.5636 13.8051L30.9128 9.51574C31.0063 10.1915 31.0544 10.9012 31.0544 11.6477C31.0544 12.7589 30.9242 14.0567 30.6609 15.5383L30.658 15.5412ZM28.3593 3.88615L21.7687 7.73441C20.8487 7.11518 19.5974 6.80415 18.012 6.80415H7.37598L7.40711 6.64864L8.66407 0.688232H19.6993C21.2422 0.688232 22.6322 0.86637 23.8806 1.22264C25.5368 1.69766 26.9296 2.4837 28.0677 3.58643C28.1668 3.6854 28.2659 3.78436 28.3593 3.88615Z" fill="#6E45B7"/>
<path d="M17.8507 12.1113L16.874 18.2781H12.3076L10.0739 28.8983L10.0598 28.9633H0.00976562L3.78348 23.8172L6.2606 12.1113H17.8507Z" fill="#00D8CD"/>
<path d="M39.4935 21.0857H44.6657C47.5165 21.0857 50.2484 18.7388 50.7495 15.8548C51.2534 12.9735 49.3397 10.6239 46.4889 10.6239H41.3167L39.4935 21.0828V21.0857ZM46.9956 7.72002C51.4318 7.72002 54.41 11.3449 53.6258 15.8322C53.2776 17.8312 52.2443 19.6663 50.8033 21.0857C50.6363 21.2497 50.4466 21.4108 50.2597 21.5748C48.5527 23.0621 46.3926 23.9697 44.1873 23.9697H36.1416L38.9783 7.69741L46.9956 7.72002ZM53.3795 23.9669L56.2162 7.69458H59.0896L56.253 23.9669H53.3795ZM61.6941 15.8322C61.193 18.7134 63.1039 21.0631 65.9548 21.0631H71.127L71.6705 17.9471H66.4983L67.0051 15.0405H75.0507L73.4937 23.9669H65.448C61.0119 23.9669 58.0393 20.3166 58.8207 15.8322C59.602 11.3449 63.8485 7.69741 68.2847 7.69741H76.3303L75.8236 10.6041H67.7779C64.9271 10.6041 62.1952 12.9509 61.6941 15.835M74.6431 23.9697L77.4797 7.69741H80.3532L77.5165 23.9697H74.6431Z" fill="#6E45B7"/>
<path d="M97.6169 7.69751L97.1102 10.6042H85.3644C84.5604 10.6042 83.7763 11.2771 83.6347 12.0915L83.3714 13.6014H93.7159L93.2091 16.508H82.842L81.5398 23.9698H78.689L80.7613 12.0915C81.1831 9.67394 83.4592 7.69751 85.8485 7.69751H97.6169ZM95.907 23.9698L98.7437 7.69751H101.617L98.7805 23.9698H95.907ZM118.855 7.72295L116.018 23.9953L113.533 21.7644L104.595 13.6975L102.801 23.9953H99.927L102.755 7.77101L105.238 10.0019L114.175 18.0688L115.984 7.70032L118.855 7.72295ZM122.116 12.0943L121.853 13.6042H132.197L131.691 16.5109H121.346L120.811 19.5787C120.67 20.3931 121.219 21.066 122.023 21.066H133.769L133.262 23.9727H121.516C119.127 23.9727 117.539 21.9963 117.96 19.5787L119.266 12.0943C119.687 9.67677 121.963 7.70032 124.353 7.70032H136.099L135.592 10.607H123.846C123.042 10.607 122.258 11.28 122.116 12.0943ZM152.807 7.72295L145.155 15.8831L149.948 23.9953H146.316L142.927 18.2526L137.534 23.9953H133.902L141.5 15.8831L136.693 7.72295H140.325L143.731 13.5109L149.155 7.72295H152.81H152.807Z" fill="#00D8CD"/>
</svg>
