<svg width="108" height="33" viewBox="0 0 108 33" fill="none" xmlns="http://www.w3.org/2000/svg">
<path d="M31.3663 0.359375C21.4841 0.359375 11.6051 0.359375 1.72292 0.359375C0.65545 0.359375 0.429016 0.588772 0.425781 1.64201C0.425781 11.5541 0.425781 21.4662 0.425781 31.3783C0.425781 32.4283 0.65545 32.6609 1.71969 32.6609C11.6019 32.6609 21.4809 32.6609 31.3631 32.6609C32.4791 32.6609 32.6829 32.4509 32.6829 31.3459C32.6829 26.4222 32.6829 21.4985 32.6829 16.5747C32.6829 11.651 32.6829 6.64004 32.6829 1.67431C32.6829 0.566148 32.4791 0.359375 31.3631 0.359375H31.3663ZM21.8658 20.8136C21.8658 21.5599 21.6491 21.7666 20.8954 21.7699C19.4527 21.7763 18.0132 21.7699 16.5705 21.7699C15.1084 21.7699 13.643 21.7569 12.1809 21.7763C11.5825 21.7828 11.3108 21.5405 11.3108 20.9395C11.3172 17.9963 11.3108 15.0498 11.3172 12.1066C11.3172 11.399 11.4855 11.2504 12.2165 11.2472C15.1213 11.2407 18.0262 11.2407 20.931 11.2472C21.6394 11.2472 21.8626 11.4669 21.8658 12.1712C21.8755 15.0498 21.8723 17.9317 21.8658 20.8103V20.8136Z" fill="black"/>
<path d="M59.5244 12.358C59.5244 11.3144 59.2688 11.0657 58.2272 11.0657C55.3645 11.0657 52.5017 11.0463 49.6389 11.0786C48.992 11.0851 48.785 10.9041 48.7947 10.245C48.827 7.38579 48.8108 4.52654 48.8076 1.66729C48.8076 0.620508 48.5553 0.365262 47.5169 0.362032C44.7836 0.358801 42.0502 0.362032 39.3168 0.362032C38.1361 0.362032 37.9097 0.581735 37.9097 1.74482C37.9097 6.66855 37.9097 11.5923 37.9097 16.516C37.9097 21.4397 37.9097 26.4055 37.9097 31.3518C37.9097 32.3857 38.1685 32.6506 39.21 32.6538C41.9661 32.6603 44.7221 32.6603 47.4749 32.6538C48.5553 32.6538 48.8044 32.3954 48.8076 31.3195C48.8076 28.4603 48.8238 25.601 48.7947 22.7418C48.7882 22.1118 48.9985 21.9373 49.6098 21.9405C52.4952 21.9664 55.3774 21.9567 58.2628 21.9502C59.2624 21.9502 59.5244 21.6853 59.5244 20.6837C59.5276 17.9117 59.5276 15.1365 59.5244 12.3644V12.358Z" fill="black"/>
<path d="M70.2445 1.53157C70.238 0.652794 69.9533 0.362024 69.0832 0.362024C66.2236 0.355562 63.3641 0.355562 60.5046 0.362024C59.6377 0.362024 59.353 0.659262 59.353 1.53804C59.3465 4.37145 59.3465 7.20809 59.353 10.0415C59.353 10.959 59.6312 11.2401 60.5434 11.2433C63.3803 11.2498 66.2204 11.2498 69.0573 11.2433C69.9663 11.2433 70.2412 10.959 70.2445 10.035C70.2542 8.63932 70.2445 7.24363 70.2445 5.84793C70.2445 4.41022 70.2509 2.96927 70.2445 1.53157Z" fill="black"/>
<path d="M69.0712 21.776C67.6511 21.7663 66.2343 21.776 64.8142 21.776C63.3748 21.776 61.9321 21.7696 60.4926 21.776C59.6516 21.7825 59.3572 22.0668 59.354 22.8971C59.3443 25.7758 59.3443 28.6512 59.354 31.5298C59.354 32.3601 59.6516 32.6541 60.4926 32.6541C63.3521 32.6638 66.2117 32.6638 69.0712 32.6541C69.9543 32.6541 70.2422 32.3666 70.2454 31.4975C70.2519 28.6415 70.2519 25.7855 70.2454 22.9294C70.2454 22.0571 69.9511 21.7793 69.0712 21.7728V21.776Z" fill="black"/>
<path d="M76.5725 11.2437C79.4547 11.2502 82.3368 11.2502 85.219 11.2437C86.0309 11.2437 86.2897 10.9691 86.293 10.1485C86.2962 7.24725 86.2994 4.34923 86.293 1.44798C86.293 0.666125 86.0309 0.372111 85.2643 0.365649C82.3401 0.352726 79.4158 0.352726 76.4884 0.365649C75.7541 0.36888 75.4888 0.666117 75.4824 1.39951C75.4759 2.85983 75.4824 4.32015 75.4824 5.78047C75.4824 7.24079 75.4759 8.70111 75.4824 10.1614C75.4856 10.9724 75.7444 11.2373 76.5725 11.2373V11.2437Z" fill="black"/>
<path d="M86.2893 22.8359C86.286 22.0606 86.0208 21.7795 85.2444 21.7795C82.3396 21.7698 79.438 21.7698 76.5332 21.7795C75.7472 21.7795 75.4819 22.0541 75.4819 22.8295C75.4754 25.7501 75.4754 28.6708 75.4819 31.5946C75.4819 32.37 75.7472 32.6543 76.5235 32.6576C79.4283 32.6705 82.3299 32.6705 85.2347 32.6576C86.0337 32.6576 86.286 32.3668 86.2893 31.5365C86.2957 30.0988 86.2893 28.6578 86.2893 27.2201C86.2893 25.7598 86.2957 24.2995 86.2893 22.8392V22.8359Z" fill="black"/>
<path d="M107.73 1.37657C107.726 0.681946 107.451 0.371792 106.759 0.368561C103.793 0.352407 100.823 0.352407 97.8572 0.368561C97.194 0.371792 96.9256 0.678717 96.9223 1.3378C96.9126 4.30044 96.9126 7.26632 96.9223 10.229C96.9223 10.9559 97.2037 11.2337 97.951 11.237C100.853 11.2467 103.757 11.2467 106.659 11.237C107.471 11.237 107.73 10.9526 107.733 10.1352C107.739 8.69755 107.733 7.25662 107.733 5.81891C107.733 4.33598 107.739 2.85627 107.73 1.37333V1.37657Z" fill="black"/>
<path d="M106.668 21.7795C103.766 21.7698 100.862 21.7698 97.96 21.7795C97.1869 21.7795 96.9249 22.0573 96.9184 22.8392C96.9119 24.2995 96.9184 25.7598 96.9184 27.2201C96.9184 28.6578 96.9152 30.0988 96.9184 31.5365C96.9216 32.3862 97.1772 32.6543 98.0376 32.6576C100.897 32.6673 103.757 32.6673 106.616 32.6576C107.467 32.6576 107.729 32.3765 107.729 31.5268C107.732 28.6482 107.732 25.7695 107.729 22.8941C107.729 22.0735 107.467 21.786 106.665 21.7827L106.668 21.7795Z" fill="black"/>
<path d="M97.0127 16.5419C97.0127 15.0816 97.016 13.6213 97.0127 12.161C97.0095 11.3436 96.7539 11.0722 95.9291 11.0722C93.0469 11.0625 90.168 11.0625 87.2858 11.0722C86.4577 11.0722 86.2054 11.3436 86.2021 12.161C86.1989 15.059 86.1989 17.9603 86.2021 20.8583C86.2021 21.6757 86.4577 21.9438 87.2825 21.9471C90.1647 21.9568 93.0437 21.9568 95.9258 21.9471C96.7475 21.9471 97.0062 21.6692 97.0095 20.8615C97.016 19.4238 97.0095 17.9829 97.0095 16.5452L97.0127 16.5419Z" fill="black"/>
</svg>
