<svg width="269" height="178" viewBox="0 0 269 178" fill="none" xmlns="http://www.w3.org/2000/svg">
<mask id="path-1-inside-1_1_17" fill="white">
<path d="M65.9876 161.118C52.5554 157.348 40.7501 149.9 32.1951 140.792C24.6375 132.751 19.9377 123.46 18.3544 113.959C17.0249 105.974 17.7654 97.8862 20.4311 90.439C23.1909 82.7259 28.0207 75.6165 35.0109 69.9927C42.4256 64.0254 52.1592 60.0887 62.9148 58.481C75.866 56.5468 90.0722 57.8261 103.068 61.6572C116.632 65.6557 129.032 72.6802 137.73 82.0449C139.835 84.3128 141.647 86.7231 143.221 89.2121C150.848 89.0614 158.066 86.8594 162.941 82.6044C163.47 82.1417 164.634 82.2724 165.278 82.6529C166.045 83.1064 166.484 83.7916 166.358 84.4982C165.676 88.3977 164.308 92.1842 162.261 95.6753C160.353 98.9317 157.629 101.838 154.652 104.492C153.226 105.764 151.562 106.887 149.606 107.643C150.186 113.14 150.073 118.641 149.256 123.999C148.428 129.412 146.854 134.862 143.668 139.565C140.366 144.445 135.459 148.659 130.083 152.137C124.58 155.704 118.317 158.643 111.571 160.721C97.5953 165.026 81.1913 165.383 65.9884 161.114L65.9876 161.118ZM77.7206 160.449C85.1881 161.367 92.6372 161.189 99.7956 160.044C106.706 158.938 113.253 156.801 119.173 154.025C125.043 151.274 130.508 147.695 134.936 143.559C136.949 141.675 138.9 139.506 140.382 137.22C141.831 134.988 142.766 132.858 143.578 130.406C145.335 125.124 146.024 119.609 146.04 114.079C146.05 111.486 145.903 108.883 145.589 106.277C145.527 105.764 145.867 105.246 146.465 105.064C150.164 103.929 152.494 101.271 154.807 98.8992C157.546 96.0875 159.504 92.7843 160.812 89.3537C160.937 89.0153 161.052 88.6747 161.173 88.3353C155.947 91.0725 149.372 92.4447 142.848 92.3236C142.819 92.3222 142.786 92.3197 142.757 92.3184C141.922 92.3421 140.947 91.9295 140.579 91.3157C140.575 91.3062 140.566 91.2956 140.562 91.286C140.531 91.2445 140.505 91.1999 140.48 91.1554C137.238 85.7987 133.04 81.1776 127.59 76.9734C125.07 75.0292 122.762 73.5092 119.763 71.8099C118.336 71.0031 116.872 70.233 115.376 69.5089C113.875 68.7794 112.642 68.227 111.295 67.6691C108.189 66.3863 104.986 65.2724 101.724 64.3351C98.4358 63.388 95.5966 62.738 92.2576 62.1533C85.5796 60.9838 79.0426 60.5313 72.5297 60.8069C69.5271 60.9348 66.5568 61.2139 63.6539 61.6689C62.2052 61.897 61.2584 62.0777 60.0488 62.3411C58.7434 62.6245 57.4579 62.9514 56.1947 63.3091C53.7403 64.0084 51.3711 64.8522 49.1071 65.8268C48.5986 66.0481 48.0947 66.2748 47.5954 66.5068C47.324 66.6315 47.0572 66.7616 46.7904 66.8916C46.7777 66.8978 46.765 66.904 46.7523 66.9102C46.5872 66.9907 46.4267 67.0765 46.2615 67.157C45.2202 67.6912 44.2122 68.2585 43.2275 68.8524C41.3287 70.0019 39.5338 71.2602 37.8691 72.6106C37.0263 73.2946 36.2077 74.0011 35.4296 74.7333C35.2321 74.9169 35.041 75.0973 34.849 75.282C34.7858 75.3393 34.7273 75.402 34.6633 75.4636C34.6345 75.4928 34.4993 75.6232 34.4777 75.6451C34.1039 76.0209 33.741 76.3989 33.382 76.7865C30.5673 79.8283 28.2585 83.17 26.4504 86.6965C26.2415 87.1057 26.0381 87.516 25.8403 87.9274C25.8021 88.003 25.7702 88.0754 25.7375 88.1521C25.7188 88.1877 25.6462 88.3484 25.6356 88.3725C25.5187 88.6382 25.4019 88.9039 25.2851 89.1695C24.9129 90.0454 24.5683 90.9269 24.2494 91.8223C23.5925 93.6795 23.054 95.5738 22.6428 97.4895C22.2418 99.3547 21.9563 101.243 21.7927 103.152C21.7892 103.226 21.7793 103.303 21.7758 103.377C21.7681 103.415 21.7623 103.584 21.7555 103.618C21.7407 103.861 21.7259 104.103 21.7111 104.346C21.6869 104.832 21.6692 105.315 21.6569 105.799C21.6332 106.763 21.6426 107.734 21.6811 108.702C21.7591 110.576 21.9441 112.459 22.2552 114.342C22.4131 115.286 22.5938 116.23 22.8138 117.177C22.842 117.293 22.8693 117.412 22.8974 117.527C22.9025 117.559 22.9285 117.657 22.9441 117.721C22.9819 117.873 23.0197 118.026 23.063 118.179C23.1963 118.68 23.335 119.181 23.4856 119.681C24.0948 121.703 24.8499 123.71 25.7663 125.684C26.0332 126.26 26.3165 126.839 26.6079 127.407C26.7677 127.72 26.9339 128.03 27.1 128.34C27.1827 128.497 27.2662 128.649 27.3552 128.803C27.4058 128.893 27.4556 128.986 27.5062 129.075C27.5239 129.101 27.5399 129.135 27.5653 129.179C28.2837 130.408 29.0449 131.623 29.8733 132.817C31.494 135.157 33.3272 137.41 35.3392 139.571C35.3763 139.614 35.4004 139.636 35.419 139.657C35.4431 139.68 35.4663 139.706 35.5089 139.75C35.6416 139.887 35.7742 140.023 35.9068 140.159C36.1302 140.385 36.3537 140.61 36.5771 140.835C37.1629 141.418 37.7623 141.991 38.3753 142.554C39.4605 143.554 40.5864 144.523 41.7521 145.465C44.3248 147.543 46.4107 149 49.2671 150.724C51.9455 152.336 54.7626 153.801 57.6921 155.079C57.7923 155.121 58.0184 155.22 58.0184 155.22C58.2079 155.302 58.3981 155.38 58.5884 155.458C58.9689 155.614 59.3494 155.77 59.7363 155.923C60.5054 156.224 61.2817 156.517 62.0615 156.793C63.6687 157.365 65.2989 157.879 66.9465 158.336C70.4693 159.313 74.0218 160.002 77.7143 160.453L77.7206 160.449Z"/>
</mask>
<path d="M65.9876 161.118C52.5554 157.348 40.7501 149.9 32.1951 140.792C24.6375 132.751 19.9377 123.46 18.3544 113.959C17.0249 105.974 17.7654 97.8862 20.4311 90.439C23.1909 82.7259 28.0207 75.6165 35.0109 69.9927C42.4256 64.0254 52.1592 60.0887 62.9148 58.481C75.866 56.5468 90.0722 57.8261 103.068 61.6572C116.632 65.6557 129.032 72.6802 137.73 82.0449C139.835 84.3128 141.647 86.7231 143.221 89.2121C150.848 89.0614 158.066 86.8594 162.941 82.6044C163.47 82.1417 164.634 82.2724 165.278 82.6529C166.045 83.1064 166.484 83.7916 166.358 84.4982C165.676 88.3977 164.308 92.1842 162.261 95.6753C160.353 98.9317 157.629 101.838 154.652 104.492C153.226 105.764 151.562 106.887 149.606 107.643C150.186 113.14 150.073 118.641 149.256 123.999C148.428 129.412 146.854 134.862 143.668 139.565C140.366 144.445 135.459 148.659 130.083 152.137C124.58 155.704 118.317 158.643 111.571 160.721C97.5953 165.026 81.1913 165.383 65.9884 161.114L65.9876 161.118ZM77.7206 160.449C85.1881 161.367 92.6372 161.189 99.7956 160.044C106.706 158.938 113.253 156.801 119.173 154.025C125.043 151.274 130.508 147.695 134.936 143.559C136.949 141.675 138.9 139.506 140.382 137.22C141.831 134.988 142.766 132.858 143.578 130.406C145.335 125.124 146.024 119.609 146.04 114.079C146.05 111.486 145.903 108.883 145.589 106.277C145.527 105.764 145.867 105.246 146.465 105.064C150.164 103.929 152.494 101.271 154.807 98.8992C157.546 96.0875 159.504 92.7843 160.812 89.3537C160.937 89.0153 161.052 88.6747 161.173 88.3353C155.947 91.0725 149.372 92.4447 142.848 92.3236C142.819 92.3222 142.786 92.3197 142.757 92.3184C141.922 92.3421 140.947 91.9295 140.579 91.3157C140.575 91.3062 140.566 91.2956 140.562 91.286C140.531 91.2445 140.505 91.1999 140.48 91.1554C137.238 85.7987 133.04 81.1776 127.59 76.9734C125.07 75.0292 122.762 73.5092 119.763 71.8099C118.336 71.0031 116.872 70.233 115.376 69.5089C113.875 68.7794 112.642 68.227 111.295 67.6691C108.189 66.3863 104.986 65.2724 101.724 64.3351C98.4358 63.388 95.5966 62.738 92.2576 62.1533C85.5796 60.9838 79.0426 60.5313 72.5297 60.8069C69.5271 60.9348 66.5568 61.2139 63.6539 61.6689C62.2052 61.897 61.2584 62.0777 60.0488 62.3411C58.7434 62.6245 57.4579 62.9514 56.1947 63.3091C53.7403 64.0084 51.3711 64.8522 49.1071 65.8268C48.5986 66.0481 48.0947 66.2748 47.5954 66.5068C47.324 66.6315 47.0572 66.7616 46.7904 66.8916C46.7777 66.8978 46.765 66.904 46.7523 66.9102C46.5872 66.9907 46.4267 67.0765 46.2615 67.157C45.2202 67.6912 44.2122 68.2585 43.2275 68.8524C41.3287 70.0019 39.5338 71.2602 37.8691 72.6106C37.0263 73.2946 36.2077 74.0011 35.4296 74.7333C35.2321 74.9169 35.041 75.0973 34.849 75.282C34.7858 75.3393 34.7273 75.402 34.6633 75.4636C34.6345 75.4928 34.4993 75.6232 34.4777 75.6451C34.1039 76.0209 33.741 76.3989 33.382 76.7865C30.5673 79.8283 28.2585 83.17 26.4504 86.6965C26.2415 87.1057 26.0381 87.516 25.8403 87.9274C25.8021 88.003 25.7702 88.0754 25.7375 88.1521C25.7188 88.1877 25.6462 88.3484 25.6356 88.3725C25.5187 88.6382 25.4019 88.9039 25.2851 89.1695C24.9129 90.0454 24.5683 90.9269 24.2494 91.8223C23.5925 93.6795 23.054 95.5738 22.6428 97.4895C22.2418 99.3547 21.9563 101.243 21.7927 103.152C21.7892 103.226 21.7793 103.303 21.7758 103.377C21.7681 103.415 21.7623 103.584 21.7555 103.618C21.7407 103.861 21.7259 104.103 21.7111 104.346C21.6869 104.832 21.6692 105.315 21.6569 105.799C21.6332 106.763 21.6426 107.734 21.6811 108.702C21.7591 110.576 21.9441 112.459 22.2552 114.342C22.4131 115.286 22.5938 116.23 22.8138 117.177C22.842 117.293 22.8693 117.412 22.8974 117.527C22.9025 117.559 22.9285 117.657 22.9441 117.721C22.9819 117.873 23.0197 118.026 23.063 118.179C23.1963 118.68 23.335 119.181 23.4856 119.681C24.0948 121.703 24.8499 123.71 25.7663 125.684C26.0332 126.26 26.3165 126.839 26.6079 127.407C26.7677 127.72 26.9339 128.03 27.1 128.34C27.1827 128.497 27.2662 128.649 27.3552 128.803C27.4058 128.893 27.4556 128.986 27.5062 129.075C27.5239 129.101 27.5399 129.135 27.5653 129.179C28.2837 130.408 29.0449 131.623 29.8733 132.817C31.494 135.157 33.3272 137.41 35.3392 139.571C35.3763 139.614 35.4004 139.636 35.419 139.657C35.4431 139.68 35.4663 139.706 35.5089 139.75C35.6416 139.887 35.7742 140.023 35.9068 140.159C36.1302 140.385 36.3537 140.61 36.5771 140.835C37.1629 141.418 37.7623 141.991 38.3753 142.554C39.4605 143.554 40.5864 144.523 41.7521 145.465C44.3248 147.543 46.4107 149 49.2671 150.724C51.9455 152.336 54.7626 153.801 57.6921 155.079C57.7923 155.121 58.0184 155.22 58.0184 155.22C58.2079 155.302 58.3981 155.38 58.5884 155.458C58.9689 155.614 59.3494 155.77 59.7363 155.923C60.5054 156.224 61.2817 156.517 62.0615 156.793C63.6687 157.365 65.2989 157.879 66.9465 158.336C70.4693 159.313 74.0218 160.002 77.7143 160.453L77.7206 160.449Z" fill="#272525" stroke="white" stroke-width="0.06" mask="url(#path-1-inside-1_1_17)"/>
<path d="M24.9366 62.3998C20.2735 55.8031 15.6149 49.212 10.9518 42.6153C10.4308 41.878 9.67536 42.7357 9.48651 43.2632C9.17708 44.1259 9.27144 45.1376 9.79639 45.8856C14.4595 52.4823 19.1181 59.0734 23.7812 65.6701C24.3023 66.4074 25.0577 65.5497 25.2465 65.0222C25.5559 64.1595 25.4616 63.1478 24.9366 62.3998Z" fill="#272525"/>
<path d="M35.8261 58.9681C34.8273 53.2691 33.5029 47.6355 31.8655 42.0892C31.2302 39.9324 27.7201 41.403 28.3193 43.4273C29.9566 48.9737 31.2805 54.6124 32.2799 60.3062C32.4476 61.2596 33.7524 61.5633 34.5233 61.2412C35.4776 60.8425 36.0021 59.984 35.8261 58.9681Z" fill="#272525"/>
<path d="M19.1763 68.4697C14.6806 64.8278 9.98219 61.4489 5.10513 58.3413C3.20966 57.132 1.52825 60.5461 3.30948 61.6793C8.18654 64.7869 12.8879 68.1699 17.3807 71.8077C18.1333 72.4165 19.3167 71.7887 19.6866 71.0395C20.1444 70.1123 19.9762 69.1203 19.1763 68.4697Z" fill="#272525"/>
<path d="M57.0649 98.4644V104.104H62.3237C63.564 104.104 64.4673 103.879 65.0337 103.43C65.6001 102.981 65.8833 102.273 65.8833 101.306C65.8833 100.3 65.605 99.5777 65.0483 99.1382C64.4917 98.689 63.5737 98.4644 62.2944 98.4644H57.0649ZM57.0649 90.1734V94.773H62.1333C63.2271 94.773 64.0278 94.5875 64.5356 94.2164C65.0435 93.8355 65.2974 93.2398 65.2974 92.4293C65.2974 91.6382 65.0483 91.067 64.5503 90.7154C64.062 90.3541 63.2466 90.1734 62.104 90.1734H57.0649ZM55.5122 108.001C54.4966 108.001 53.7935 107.766 53.4028 107.297C53.0122 106.819 52.8169 105.925 52.8169 104.617V89.8218C52.8169 88.5035 53.0122 87.6099 53.4028 87.1412C53.7935 86.6627 54.4966 86.4234 55.5122 86.4234H62.9829C65.1899 86.4234 66.8696 86.8922 68.022 87.8297C69.1841 88.7574 69.7651 90.1099 69.7651 91.8873C69.7651 92.981 69.5503 93.8941 69.1206 94.6265C68.6909 95.359 68.0464 95.9254 67.187 96.3257C68.3003 96.775 69.1304 97.4244 69.6772 98.274C70.2339 99.1138 70.5122 100.164 70.5122 101.423C70.5122 103.523 69.8286 105.144 68.4614 106.287C67.0942 107.429 65.1558 108.001 62.646 108.001H55.5122ZM73.8081 88.5035C73.8081 87.7027 73.9888 87.107 74.3501 86.7164C74.7212 86.3257 75.2827 86.1304 76.0347 86.1304C76.7769 86.1304 77.3384 86.3306 77.7192 86.731C78.1001 87.1216 78.2905 87.7125 78.2905 88.5035V99.9C78.2905 101.57 78.6226 102.791 79.2866 103.562C79.9507 104.324 81.0054 104.705 82.4507 104.705C83.9155 104.705 84.98 104.324 85.644 103.562C86.3179 102.8 86.6548 101.58 86.6548 99.9V88.5035C86.6548 87.7027 86.8354 87.107 87.1968 86.7164C87.5679 86.3257 88.1245 86.1304 88.8667 86.1304C89.6089 86.1304 90.1655 86.3306 90.5366 86.731C90.9077 87.1216 91.0933 87.7125 91.0933 88.5035V100.383C91.0933 103.03 90.3511 105.061 88.8667 106.477C87.3921 107.893 85.2632 108.601 82.48 108.601C79.6772 108.601 77.5288 107.898 76.0347 106.492C74.5503 105.076 73.8081 103.04 73.8081 100.383V88.5035ZM94.4185 90.3052C94.1743 89.8853 93.9985 89.5045 93.8911 89.1627C93.7837 88.8209 93.73 88.4888 93.73 88.1666C93.73 87.5611 93.9204 87.0728 94.3013 86.7017C94.6919 86.3209 95.1997 86.1304 95.8247 86.1304C96.4204 86.1304 96.9087 86.2769 97.2896 86.5699C97.6802 86.8531 98.1147 87.4683 98.5933 88.4156L102.241 95.7252L105.786 87.9615C106.069 87.3267 106.406 86.8629 106.796 86.5699C107.187 86.2769 107.651 86.1304 108.188 86.1304C108.823 86.1304 109.345 86.3013 109.755 86.6431C110.166 86.9752 110.371 87.3951 110.371 87.9029C110.371 88.147 110.332 88.4156 110.253 88.7086C110.175 89.0015 110.058 89.3043 109.902 89.6168L104.467 99.9586V105.906C104.467 106.697 104.282 107.288 103.911 107.678C103.549 108.069 102.993 108.264 102.241 108.264C101.508 108.264 100.957 108.069 100.585 107.678C100.214 107.278 100.029 106.687 100.029 105.906V99.9586L94.4185 90.3052Z" fill="black"/>
<path d="M49.6821 135.628C49.6821 136.526 49.5015 137.19 49.1401 137.62C48.7788 138.049 48.2271 138.264 47.4849 138.264C46.7231 138.264 46.1665 138.054 45.8149 137.634C45.4731 137.214 45.3022 136.545 45.3022 135.628V119.514C45.3022 118.206 45.4976 117.317 45.8882 116.848C46.2788 116.37 46.9819 116.13 47.9976 116.13C49.1597 116.13 50.3218 117.112 51.4839 119.075C51.5913 119.251 51.6694 119.382 51.7183 119.47L58.7056 131.248V118.767C58.7056 117.869 58.8813 117.205 59.2329 116.775C59.5942 116.345 60.1509 116.13 60.9028 116.13C61.6548 116.13 62.2065 116.345 62.5581 116.775C62.9097 117.195 63.0854 117.859 63.0854 118.767V134.939C63.0854 136.189 62.9048 137.058 62.5435 137.546C62.1919 138.025 61.5718 138.264 60.6831 138.264C59.9019 138.264 59.2866 138.128 58.8374 137.854C58.3882 137.581 57.8462 136.912 57.2114 135.847L49.6821 123.176V135.628ZM77.1333 119.734C75.2388 119.734 73.7642 120.388 72.7095 121.697C71.6548 123.005 71.1274 124.851 71.1274 127.234C71.1274 129.607 71.6548 131.453 72.7095 132.771C73.7642 134.08 75.2388 134.734 77.1333 134.734C79.0474 134.734 80.5366 134.08 81.6011 132.771C82.6655 131.453 83.1978 129.607 83.1978 127.234C83.1978 124.861 82.6655 123.02 81.6011 121.711C80.5366 120.393 79.0474 119.734 77.1333 119.734ZM77.1333 115.867C80.356 115.867 82.9194 116.892 84.8237 118.943C86.7378 120.994 87.6948 123.757 87.6948 127.234C87.6948 130.711 86.7378 133.474 84.8237 135.525C82.9194 137.576 80.356 138.601 77.1333 138.601C73.9009 138.601 71.3374 137.581 69.4429 135.54C67.5483 133.489 66.6011 130.72 66.6011 127.234C66.6011 123.738 67.5483 120.969 69.4429 118.928C71.3374 116.887 73.9009 115.867 77.1333 115.867ZM100.146 135.393C99.9116 136.585 99.6138 137.361 99.2524 137.722C98.9009 138.084 98.2856 138.264 97.4067 138.264C96.6157 138.264 96.0591 138.132 95.7368 137.869C95.4243 137.595 95.0728 136.78 94.6821 135.422L90.1851 119.822C90.0776 119.412 90.0044 119.109 89.9653 118.914C89.936 118.709 89.9165 118.533 89.9067 118.386C89.9067 117.712 90.1069 117.17 90.5073 116.76C90.9175 116.34 91.4399 116.13 92.0747 116.13C92.6899 116.13 93.1636 116.316 93.4956 116.687C93.8374 117.058 94.1255 117.732 94.3599 118.709L97.5093 131.643L100.175 118.738C100.38 117.742 100.688 117.058 101.098 116.687C101.518 116.316 102.158 116.13 103.017 116.13C103.867 116.13 104.492 116.306 104.892 116.658C105.292 117.009 105.61 117.752 105.844 118.884L108.481 131.643L111.484 119.192C111.787 117.952 112.109 117.131 112.451 116.731C112.802 116.331 113.291 116.13 113.916 116.13C114.58 116.13 115.078 116.316 115.41 116.687C115.751 117.048 115.922 117.595 115.922 118.328C115.922 118.474 115.903 118.665 115.864 118.899C115.825 119.133 115.766 119.402 115.688 119.705L111.162 135.378C111.123 135.496 111.079 135.647 111.03 135.833C110.571 137.454 109.731 138.264 108.51 138.264C107.641 138.264 107.036 138.098 106.694 137.766C106.352 137.434 106.059 136.653 105.815 135.422L102.988 121.477L100.146 135.393ZM119.775 123.059C119.736 122.639 119.707 122.224 119.687 121.814C119.667 121.404 119.658 120.999 119.658 120.598C119.658 119.592 119.667 118.894 119.687 118.503C119.716 118.103 119.755 117.776 119.804 117.522C119.882 117.092 120.122 116.751 120.522 116.497C120.922 116.233 121.406 116.101 121.972 116.101C122.851 116.101 123.457 116.34 123.789 116.819C124.121 117.297 124.287 118.45 124.287 120.276C124.287 120.803 124.272 121.311 124.243 121.799C124.223 122.278 124.194 122.698 124.155 123.059L123.291 130.676C123.222 131.194 123.095 131.545 122.91 131.731C122.724 131.907 122.412 131.995 121.972 131.995C121.542 131.995 121.23 131.902 121.035 131.716C120.839 131.531 120.712 131.184 120.654 130.676L119.775 123.059ZM119.57 135.906C119.57 135.242 119.804 134.675 120.273 134.207C120.742 133.738 121.308 133.503 121.972 133.503C122.646 133.503 123.212 133.738 123.671 134.207C124.14 134.666 124.375 135.232 124.375 135.906C124.375 136.55 124.135 137.107 123.657 137.576C123.188 138.035 122.626 138.264 121.972 138.264C121.337 138.264 120.776 138.03 120.288 137.561C119.809 137.092 119.57 136.541 119.57 135.906Z" fill="#1CBC96"/>
<path d="M158.928 53.0251C158.92 53.5244 158.888 53.1955 158.843 52.2863C158.798 51.3771 158.794 50.9621 158.846 51.372C158.899 51.7819 158.936 52.5258 158.928 53.0251Z" fill="#F8F9F7"/>
<path d="M200.406 21.1647C201.561 20.9324 202.917 20.6773 203.42 20.5866C203.923 20.5129 204.946 20.3635 205.685 20.2803C206.424 20.1801 207.938 20.0776 209.05 20.0376C210.162 19.9975 213.158 19.7964 215.697 19.5955C218.658 19.3643 220.814 19.2748 221.678 19.3479C222.948 19.4605 223.149 19.4378 224.984 18.9243C226.502 18.4807 227.105 18.3786 227.665 18.4519C228.072 18.5083 228.925 18.736 229.593 18.9676C230.26 19.1992 231.259 19.6832 231.83 20.0449C232.402 20.4066 233.326 21.1376 233.904 21.6689C234.466 22.2022 235.42 23.2367 236.006 23.9716C236.717 24.846 237.35 25.8825 237.868 27.0001C238.277 27.9425 238.69 28.9527 238.753 29.2524C238.832 29.5332 239.517 30.615 240.283 31.6194C241.247 32.8914 242.058 33.7544 242.876 34.361C243.52 34.8509 244.773 35.7835 245.626 36.4372C246.497 37.0891 247.582 38.0406 248.041 38.5512C248.518 39.06 249.143 39.9099 249.434 40.4395C249.743 40.9672 250.113 41.7776 250.266 42.2205C250.475 42.7765 250.599 43.751 250.657 45.1931C250.729 46.9405 250.687 47.5758 250.437 48.4732C250.276 49.0708 249.88 50.1379 249.571 50.8205C249.261 51.503 248.644 52.5099 248.192 53.0209C247.741 53.5489 246.919 54.4767 246.354 55.1028C245.789 55.7289 244.603 57.277 243.744 58.5498C242.502 60.377 242.109 61.0859 241.859 62.0003C241.7 62.6319 241.323 63.748 241.032 64.4795C240.742 65.211 240.244 66.2386 239.926 66.7345C239.627 67.2455 238.989 68.1525 238.524 68.7672C238.077 69.38 237.092 70.4794 236.363 71.2262C235.635 71.973 234.513 73.0197 233.86 73.5704C233.225 74.1193 231.932 75.117 230.982 75.8205C230.032 76.5071 227.633 78.0897 225.642 79.3366C223.651 80.5834 221.972 81.6247 221.905 81.6323C221.821 81.6417 221.457 81.8191 221.077 82.0153C220.681 82.2303 218.261 83.73 215.679 85.3673C213.096 87.0046 210.067 88.8627 208.93 89.5192C207.792 90.1587 206.385 90.8455 205.786 91.0493C205.187 91.2532 203.837 91.6609 202.786 91.9498C201.735 92.2556 200.267 92.6766 199.535 92.9125C198.801 93.1315 197.519 93.5487 196.704 93.8449C195.889 94.1243 194.605 94.5075 193.87 94.6925C193.135 94.8776 192.12 95.2305 191.625 95.4909C191.129 95.7512 190.568 96.07 190.388 96.2096C190.208 96.3492 189.793 96.4983 189.473 96.5342C189.154 96.5702 188.631 96.561 188.341 96.4914C187.78 96.3841 187.78 96.3841 187.641 97.1156C187.557 97.5341 187.398 98.1827 187.279 98.571C187.159 98.9594 186.829 99.559 186.54 99.8984C186.249 100.221 185.791 100.579 185.508 100.662C185.224 100.745 184.649 101.117 184.191 101.475C183.75 101.832 183.209 102.217 183.012 102.358C182.765 102.505 181.642 102.7 177.342 103.167L175.628 102.525C174.686 102.171 173.549 101.6 173.095 101.243C172.642 100.885 172.26 100.621 172.261 100.638C172.262 100.672 171.947 100.4 171.578 100.033C171.209 99.6825 170.464 98.7949 169.945 98.0524C169.425 97.3099 168.814 96.3903 168.595 95.9889C168.376 95.5874 168.067 94.6337 167.934 93.8477C167.761 92.9128 167.64 91.188 167.528 85.1163L168.076 83.2649C168.432 82.0489 168.641 80.9687 168.657 80.1317C168.687 79.208 168.539 78.0657 168.135 76.0149C167.835 74.4467 167.446 72.7691 167.291 72.2753C167.136 71.7815 166.87 71.0445 166.701 70.6374C166.549 70.2284 166.214 69.4482 165.971 68.879C165.729 68.3268 165.517 67.669 165.506 67.3975C165.496 67.143 165.589 66.536 165.705 66.0628C165.923 65.2201 165.904 65.1541 165.523 64.4983C165.289 64.1327 165.057 63.8349 164.99 63.8425C164.906 63.852 164.851 63.7558 164.846 63.6371C164.826 63.5372 164.718 63.3789 164.596 63.2903C164.458 63.2037 164.039 62.4498 163.667 61.6055C163.278 60.763 162.601 59.4589 162.148 58.7088C161.713 57.9568 161.28 57.2897 161.209 57.1955C161.155 57.0994 160.915 56.598 160.69 56.0609C160.335 55.1977 160.265 54.7283 160.156 52.0648C160.054 49.5539 160.08 48.9545 160.294 48.402C160.447 48.0269 161.583 46.5014 162.821 44.9984C164.059 43.4955 165.343 41.8851 165.663 41.4401C166.189 40.6991 166.295 40.3974 166.516 38.7875C166.644 37.7846 166.827 36.4687 166.903 35.8466C167.029 34.8098 167.091 34.6665 167.883 33.8103C168.352 33.3143 169.443 32.3393 170.293 31.6641C171.142 30.9719 172.174 30.225 172.587 30.008C173 29.7911 173.626 29.3968 173.987 29.1516C174.347 28.8894 175.271 28.3594 176.047 27.9481C176.823 27.5368 178.53 26.7651 179.858 26.2405C181.187 25.7159 182.9 25.0968 183.683 24.8552C184.466 24.6136 185.701 24.287 186.436 24.1019C187.172 23.9338 188.893 23.5184 190.28 23.1747C191.649 22.8329 194.025 22.3437 195.55 22.0697C197.074 21.7957 199.251 21.3801 200.406 21.1647Z" fill="#0C0D0C"/>
<path fill-rule="evenodd" clip-rule="evenodd" d="M225.777 20.347L227.389 20.5575C228.441 20.6946 229.277 20.9243 229.778 21.2088C230.21 21.4499 231.011 22.0416 231.587 22.5221C232.147 23.0215 233.083 24.041 233.672 24.8269C234.261 25.6129 235.673 27.9425 236.837 30.0102C237.985 32.0798 239.25 34.1532 239.623 34.6055C240.012 35.0389 240.316 35.4479 240.318 35.4988C240.32 35.5497 239.43 35.667 238.338 35.773C237.262 35.8772 236.121 36.0398 235.821 36.1417C235.538 36.2418 235.291 36.3889 235.295 36.4907C235.3 36.5925 236.159 36.5639 237.537 36.4087C238.746 36.2725 239.858 36.2154 239.978 36.2701C240.116 36.3398 240.053 36.4491 239.741 36.6548C239.477 36.8208 238.593 37.0738 237.773 37.2344C236.952 37.395 236.502 37.5139 236.77 37.4837C237.04 37.4704 238.037 37.4944 238.966 37.5261C239.896 37.5578 240.925 37.5611 241.831 37.425L240.47 37.1522L241.621 36.4259L242.654 36.9231C243.222 37.1831 244.208 37.7709 244.867 38.225C245.51 38.664 246.403 39.4667 246.847 39.9963C247.291 40.5429 247.814 41.3703 248.018 41.8246C248.206 42.2977 248.481 43.2384 248.592 43.8907C248.743 44.7088 248.776 45.5063 248.691 46.317C248.633 46.9713 248.423 48.0347 248.246 48.6682C248.07 49.3017 247.682 50.1465 247.395 50.5539C247.108 50.9612 246.551 51.791 246.154 52.3982C245.757 53.0055 245.112 53.7429 244.737 54.0579C244.361 54.356 243.803 54.7427 242.979 55.2275L243.335 55.6987C243.531 55.9494 243.677 56.2057 243.644 56.2435C243.629 56.2793 243.22 56.172 241.9 55.6729L242.776 56.4606L242.003 57.3829C241.586 57.9072 241.25 58.3711 241.253 58.439C241.257 58.5238 241.022 58.9764 240.739 59.4855C240.44 60.0135 240.076 61.0261 239.892 61.8821C239.722 62.7023 239.394 63.762 239.179 64.2636C238.962 64.7482 238.475 65.6213 238.109 66.1739C237.726 66.7283 236.925 67.7561 236.328 68.437C235.714 69.1197 234.367 70.4306 233.341 71.3473C232.316 72.264 231.091 73.2713 230.648 73.5769C230.188 73.9013 229.025 74.7483 228.025 75.4746C227.025 76.2009 225.364 77.2743 224.326 77.8856C223.287 78.4799 221.459 79.5892 220.291 80.3344C219.124 81.0796 217.146 82.2569 215.925 82.9399C214.704 83.6229 212.944 84.7416 212.011 85.4433C211.094 86.1262 210.29 86.694 210.206 86.7035C210.139 86.711 209.827 86.9336 209.517 87.1902C209.207 87.4467 208.531 87.8297 208.033 88.0392C207.535 88.2487 205.98 88.6113 204.606 88.8513C202.344 89.2425 201.911 89.3766 200.27 90.1238C199.26 90.5956 198.417 91.0315 198.369 91.088C198.321 91.1446 198.026 91.3653 197.713 91.554C197.4 91.7427 196.603 92.0541 195.968 92.2278C195.335 92.4185 194.619 92.6525 194.387 92.7639C194.155 92.8582 193.072 93.2188 191.971 93.5303C190.871 93.8588 189.701 94.127 188.79 94.1444L190.32 92.3527C191.157 91.355 192.291 90.1875 192.83 89.7518C193.369 89.3161 194.286 88.6332 194.879 88.2596C195.471 87.8861 196.095 87.4748 196.277 87.3692C196.457 87.2466 197.086 86.9371 197.682 86.6654C198.278 86.3767 199.125 86.0426 199.576 85.9236C200.009 85.7896 200.408 85.6424 200.423 85.5896C200.455 85.5349 200.082 85.4917 199.608 85.4768C199.119 85.4638 198.396 85.5452 197.978 85.6264C197.56 85.7247 196.778 86.0172 196.232 86.2833C195.686 86.5493 194.796 87.0757 194.255 87.4605C193.713 87.8284 192.605 88.7885 191.809 89.5599C191.014 90.3313 189.976 91.3517 188.731 92.7021L188.478 89.7989C188.314 87.8571 188.129 86.6336 187.941 86.1435C187.772 85.7363 187.379 84.7919 187.078 84.0247C186.777 83.2575 186.354 82.0096 186.137 81.233C185.937 80.4544 185.748 79.5552 185.735 79.2328C185.721 78.8935 185.899 78.2939 186.539 77.0116L186.473 72.0758C186.417 69.048 186.304 66.6914 186.173 65.9732C186.062 65.3209 185.752 64.3331 185.492 63.7488C185.215 63.1664 184.958 62.6669 184.889 62.6235C184.837 62.5783 184.572 62.3013 184.307 62.0073C184.059 61.7114 183.845 61.4287 183.843 61.3778C183.84 61.3269 184.349 61.3719 184.977 61.4716C185.605 61.5543 186.808 61.6744 187.637 61.7174C188.465 61.7604 189.932 61.7146 190.872 61.6086C191.83 61.5007 193.154 61.2664 193.805 61.1078C194.473 60.9303 195.171 60.6641 195.35 60.5076C195.66 60.2341 195.643 60.236 195.122 60.2777C194.836 60.3098 194.583 60.3043 194.58 60.2534C194.578 60.2025 194.828 59.6971 195.125 59.1182C195.423 58.5562 195.761 57.7511 195.896 57.3438C196.058 56.763 196.068 56.5915 195.9 56.6104C195.799 56.6218 195.156 56.984 193.298 58.182L192.696 57.9088C192.369 57.7582 192.109 57.5829 192.106 57.5151C192.103 57.4302 192 57.3907 191.882 57.4039C191.782 57.4322 191.33 57.1082 190.892 56.7143C190.454 56.3205 189.8 55.593 188.733 54.2643L189.108 53.5062C189.309 53.0575 189.662 52.6256 189.96 52.4727C190.241 52.3218 190.979 51.7955 192.744 50.3864L192.684 48.092C192.655 46.5442 192.706 45.7372 192.834 45.5524C192.946 45.4034 193.586 44.9563 194.26 44.5394C194.935 44.1225 195.622 43.5849 195.781 43.3284C195.939 43.0719 196.077 42.7325 196.054 42.5817C196.045 42.3611 195.855 42.2632 195.399 42.2464C195.06 42.2164 194.341 42.3656 192.81 42.896L192.09 42.227C191.617 41.7861 190.874 41.3754 189.916 41.0402C189.111 40.7558 188.392 40.496 188.29 40.4904C188.188 40.4678 187.543 40.37 186.846 40.261C186.15 40.1519 185.302 40.0429 184.98 40.028C184.659 40.013 183.751 40.0813 182.961 40.1702C182.172 40.2592 181.084 40.5009 180.536 40.7161C179.987 40.9143 179.292 41.2483 178.979 41.4369C178.666 41.6256 178.261 42.0292 178.054 42.3423C177.864 42.6534 177.599 43.1777 177.444 43.519C177.182 44.128 177.2 44.1601 177.494 44.3315C177.683 44.4125 178.466 44.58 179.263 44.6777C180.06 44.7584 181.884 44.7916 183.316 44.7325C184.749 44.6904 186.503 44.6803 187.197 44.7215C187.89 44.7627 188.653 44.8302 188.89 44.8546C189.127 44.879 189.621 44.9769 190.677 45.2158L190.921 48.7337L189.902 49.8032C189.335 50.3954 188.606 51.1423 188.266 51.4874C187.942 51.8137 187.664 52.0325 187.661 51.9647C187.657 51.8798 187.576 51.9572 187.465 52.1231C187.353 52.2891 186.704 52.9077 186.036 53.4943C185.368 54.081 184.046 55.2014 183.099 55.9729C182.152 56.7444 181.251 57.4084 181.083 57.4273C180.931 57.4443 180.351 57.2711 179.801 57.0432C179.269 56.8135 178.211 56.5236 177.462 56.3862C176.714 56.2489 175.646 56.1306 175.09 56.1421C174.195 56.1237 173.928 56.2049 172.755 56.8313C172.028 57.203 170.825 57.918 168.723 59.331L167.555 58.8489C166.92 58.5795 166.214 58.2329 165.972 58.0897C165.729 57.9296 165.37 57.8166 165.152 57.8582C164.951 57.8809 164.752 57.9715 164.706 58.079C164.659 58.1864 164.838 58.422 165.099 58.6312C165.377 58.8215 165.858 59.023 166.181 59.0889C166.504 59.1378 167.098 59.2242 167.489 59.2825C168.219 59.3878 168.219 59.3878 168.25 60.1513C168.279 60.8809 168.248 60.9356 167.572 61.3356C167.194 61.5658 166.847 61.7582 166.797 61.7639C166.747 61.7865 166.306 61.3078 165.826 60.7311C165.33 60.1563 164.636 59.2799 164.297 58.8069C163.94 58.3357 163.597 57.7947 163.522 57.6157C163.464 57.4347 163.497 56.9879 163.634 56.6315C163.799 56.1356 163.833 55.2966 163.753 53.3284C163.685 51.6825 163.713 50.6908 163.813 50.6795C163.897 50.67 164.121 50.3551 164.275 49.9968C164.445 49.6197 164.809 49.0162 165.115 48.6579C165.404 48.3014 166.052 47.6319 166.54 47.1848C167.191 46.6001 167.949 46.1567 169.292 45.5623C170.32 45.1056 171.164 44.7037 171.162 44.6528C171.16 44.6019 170.419 44.6512 167.883 44.9539L166.418 46.2611C165.62 46.9816 164.715 47.9529 164.397 48.4319C164.095 48.8921 163.693 49.7896 163.498 50.4081C163.217 51.3603 163.186 51.8581 163.271 53.9451C163.365 56.2357 163.353 56.3563 163.034 56.3923C162.714 56.4283 162.693 56.3114 162.424 49.728L163.051 48.5494C163.396 47.8969 164.481 46.3599 165.46 45.1246C166.487 43.8328 167.539 42.2996 168.616 40.1668L168.454 36.6055L169.954 34.9024C170.776 33.9575 172.075 32.6863 172.843 32.0714C173.611 31.4564 174.594 30.7321 175.055 30.4415C175.499 30.1699 176.59 29.6038 177.452 29.2169C178.313 28.8131 179.659 28.3035 180.443 28.0788C181.244 27.8523 182.836 27.5707 184.13 27.4419C185.373 27.3019 186.82 27.207 187.328 27.2351C187.835 27.2632 188.95 27.291 189.778 27.317C191.13 27.3523 191.717 27.2691 195.263 26.4946C197.438 26.028 199.175 25.5937 199.139 25.5296C199.102 25.4485 198.508 25.379 197.832 25.3359C196.8 25.2817 196.246 25.3611 194.275 25.8559C192.988 26.1713 191.332 26.5283 190.595 26.6625C189.623 26.8231 188.966 26.846 188.234 26.7068C187.674 26.6166 187.059 26.4472 186.87 26.3492C186.576 26.1778 186.726 26.1268 188.116 25.8679C188.987 25.7186 190.425 25.3862 191.294 25.169C192.162 24.9349 194.12 24.5268 195.644 24.2528C197.169 23.9788 198.742 23.6652 199.159 23.533C199.575 23.4009 205.721 22.6404 225.777 20.347V20.347ZM182.781 41.9632C183.606 41.9214 184.332 41.9249 184.385 41.9701C184.437 42.0153 184.375 42.1586 184.263 42.2906C184.133 42.4246 183.549 42.5756 182.675 42.674C181.918 42.7422 181.144 42.7784 180.614 42.6334L180.939 42.3241C181.201 42.1072 181.586 42.0297 182.781 41.9632ZM184.827 55.3179L185.139 55.9136C185.32 56.234 185.471 56.6091 185.475 56.7109C185.497 56.8278 185.534 56.9258 185.585 56.9202C185.635 56.9145 186.082 56.6937 187.502 55.9371L190.022 58.1249C191.404 59.3328 192.493 60.3862 192.43 60.4786C192.367 60.588 191.46 60.7072 190.214 60.7793C188.851 60.8647 187.515 60.8106 186.412 60.6622C185.479 60.5287 184.218 60.2276 183.617 59.9884C183.017 59.7662 182.084 59.2236 180.62 58.076L181.334 57.7911C181.732 57.6269 182.686 57.0081 183.454 56.4101L184.827 55.3179ZM175.119 57.2809C175.22 57.2695 175.956 57.5105 176.744 57.8137C177.721 58.181 178.223 58.4824 178.282 58.6973C178.307 58.8821 178.777 59.2382 179.294 59.5038C179.829 59.7845 180.665 60.4402 181.177 60.9962C181.69 61.5521 182.331 62.3833 182.586 62.8488C182.841 63.3144 183.285 64.2531 183.533 64.9581C183.797 65.6443 183.975 66.272 183.926 66.3116C183.894 66.3663 183.951 66.5133 184.073 66.6189C184.214 66.7564 184.307 67.3767 184.331 68.3796C184.365 69.228 184.307 70.2914 184.189 70.7137C184.089 71.1512 183.992 71.6565 183.966 71.8469C183.94 72.0373 183.91 73.3872 183.919 74.8351C183.914 76.3698 184.051 78.502 184.21 79.9159C184.383 81.2601 184.632 82.8003 184.789 83.3451C184.946 83.8899 185.205 84.4403 185.345 84.5609C185.485 84.6985 185.742 85.198 185.897 85.6918C186.053 86.2027 186.357 87.0378 186.565 87.5769C186.902 88.3912 186.97 88.8267 186.974 90.1728C186.96 91.0777 186.917 92.0713 186.879 92.3994C186.826 92.7463 186.765 93.3157 186.713 93.6966C186.678 94.0755 186.628 94.5073 186.616 94.6449C186.606 94.7995 186.537 95.1823 186.483 95.5122C186.413 95.861 186.25 96.4078 186.095 96.7491C185.941 97.1074 185.576 97.6769 185.286 98.0164C184.98 98.3748 184.46 98.8765 184.133 99.1349C183.789 99.3952 183.047 99.8197 182.484 100.088C181.673 100.469 181.038 100.626 179.593 100.788C178.266 100.938 177.474 100.959 176.725 100.805C176.164 100.697 175.136 100.319 174.43 99.9723C173.723 99.6087 172.89 99.0378 172.572 98.6986C172.271 98.3575 171.682 97.5546 171.283 96.8836C170.885 96.2295 170.406 95.2437 170.215 94.7027C169.911 93.8507 169.83 93.1267 169.678 88.9678C169.571 86.3548 169.51 84.0264 169.551 83.7832C169.592 83.557 169.798 82.8009 169.989 82.1145C170.269 81.1284 170.313 80.5439 170.254 79.1017C170.215 78.1345 170.02 76.6565 169.817 75.8271C169.615 75.0146 169.06 72.9975 168.589 71.3632C167.786 68.6581 167.703 68.2754 167.733 66.9424C167.752 66.1563 167.89 64.9817 168.034 64.3689C168.245 63.3564 168.356 63.1734 169.009 62.6396C169.418 62.3039 170.406 61.2891 171.195 60.365C172.001 59.439 172.924 58.4827 173.267 58.2055C173.594 57.947 174.121 57.632 174.42 57.5131C174.719 57.3942 175.035 57.2903 175.119 57.2809V57.2809Z" fill="#F8F9F7"/>
<path fill-rule="evenodd" clip-rule="evenodd" d="M207.739 22.9576C208.713 22.8478 210.228 22.7793 211.107 22.8167C211.986 22.854 213.288 22.9288 213.982 22.9869C214.676 23.0451 215.9 23.282 216.702 23.5153C217.505 23.7487 218.616 24.1006 219.18 24.2757C219.744 24.4677 221.133 25.0268 222.267 25.5295C223.401 26.0322 224.727 26.7007 225.195 27.0058C225.681 27.326 226.307 27.7837 226.586 28.0078C226.865 28.232 227.571 28.5954 228.137 28.8213C228.703 29.0472 229.367 29.1939 229.636 29.1637C229.888 29.1353 230.093 29.2143 230.097 29.3161C230.102 29.4348 230.028 29.6818 229.917 29.8477C229.726 30.1248 229.607 30.1041 228.592 29.6221C227.973 29.334 226.939 28.8199 226.269 28.5036C225.597 28.1703 224.476 27.5639 223.767 27.1327C223.058 26.7184 221.46 25.9953 220.243 25.536C219.026 25.0597 217.316 24.4857 216.479 24.2391C215.643 24.0096 214.636 23.7311 214.261 23.62C213.886 23.526 212.852 23.4209 211.973 23.3836C211.078 23.3481 209.159 23.462 207.598 23.638C205.465 23.8782 204.511 24.0709 203.413 24.4502C202.632 24.7257 201.579 24.9805 201.075 25.0373C200.538 25.0978 199.861 25.0548 198.783 24.6821L200.794 24.3363C201.9 24.1606 203.522 23.8075 204.39 23.5904C205.259 23.3733 206.765 23.0843 207.739 22.9576V22.9576ZM207.105 26.0279C208.214 25.937 210.034 25.8853 211.147 25.8792C212.261 25.89 214.072 26.0268 215.175 26.1922C216.261 26.3425 217.638 26.6133 218.219 26.7864C218.817 26.9576 219.759 27.3115 220.326 27.5714C220.893 27.8143 222.098 28.4112 222.995 28.8895C223.892 29.3847 225.228 30.2907 225.962 30.9236C226.68 31.5584 227.383 32.246 227.779 32.8659L227.26 32.5495C226.983 32.3762 226.357 31.9185 225.887 31.5455C225.399 31.1745 224.428 30.5341 223.719 30.1029C223.01 29.6716 221.257 28.8808 219.851 28.3405C218.429 27.8021 216.396 27.1792 215.324 26.9422C214.252 26.7221 212.607 26.4986 211.677 26.4669C210.477 26.3977 208.912 26.5058 206.293 26.8009C202.901 27.2 202.449 27.2851 200.853 27.8568C199.889 28.2209 198.022 28.7551 196.684 29.0591C194.729 29.5009 193.437 29.6805 189.974 29.9854C187.133 30.2203 184.927 30.3325 183.44 30.2785C182.224 30.2281 180.807 30.2344 180.32 30.2892C179.631 30.3668 179.167 30.5724 178.165 31.2136C177.474 31.6662 176.896 31.9529 176.892 31.8681C176.888 31.7663 177.128 31.4327 177.401 31.0952C177.691 30.7728 178.197 30.358 178.511 30.1863C178.824 30.0147 179.658 29.7675 180.345 29.656C181.198 29.4916 182.311 29.4685 183.798 29.5395C185.016 29.6068 186.267 29.6704 186.588 29.6853C186.909 29.7003 188.472 29.5583 190.035 29.3993C191.63 29.2195 193.959 28.8379 195.313 28.532C196.65 28.228 198.788 27.6975 200.074 27.3652C201.359 27.033 203.013 26.6252 203.748 26.4571C204.484 26.3061 205.994 26.1019 207.105 26.0279V26.0279ZM208.434 28.843C209.575 28.6973 211.427 28.608 212.559 28.6339C213.707 28.6579 215.466 28.7834 216.502 28.9394C217.537 29.0784 219.016 29.3718 219.818 29.5881C221.081 29.94 221.425 30.1227 222.406 31.0005C223.036 31.56 223.761 32.3813 224.032 32.8279C224.321 33.2895 224.505 33.6607 224.455 33.6664C224.404 33.672 223.825 33.1069 223.155 32.3986C222.097 31.2909 221.768 31.0724 220.517 30.5999C219.729 30.2968 218.312 29.8941 217.377 29.7098C216.441 29.5255 214.914 29.3057 213.983 29.2231C212.629 29.1201 211.568 29.1714 208.595 29.4893C206.563 29.7182 204.629 29.8679 204.307 29.8191C203.765 29.7609 203.798 29.7401 204.884 29.4984C205.536 29.3568 206.121 29.2058 206.22 29.1605C206.319 29.1152 207.309 28.9697 208.434 28.843V28.843ZM205.744 30.3216L204.971 31.2096C204.553 31.7168 203.886 32.7461 203.512 33.5039C203.139 34.2786 202.794 34.9139 202.743 34.9195C202.693 34.9252 202.746 34.5615 202.845 34.0903C202.961 33.6341 203.233 32.8538 203.449 32.3693C203.682 31.866 204.061 31.244 204.269 30.948C204.558 30.6086 204.854 30.4219 205.744 30.3216ZM181.419 33.2495L185.871 32.799C189.08 32.4716 190.561 32.3899 191.173 32.4915C191.92 32.6117 192.025 32.7022 192.11 33.1356C192.178 33.5709 192.147 33.6256 191.873 33.5202C191.684 33.4562 191.004 33.3283 190.359 33.2136C189.714 33.1159 188.378 33.0448 187.4 33.0528C186.371 33.0664 184.725 33.2349 183.452 33.4465C182.178 33.6581 181.042 33.9394 180.696 34.1318C180.382 34.3034 179.742 34.7334 179.301 35.0898C178.843 35.4481 178.274 35.9722 177.999 36.2588C177.725 36.5624 177.308 37.1034 176.607 38.1195L176.704 37.5975C176.759 37.3015 176.923 36.7549 177.075 36.3629C177.211 35.9727 177.511 35.4618 177.721 35.2337C177.931 35.0056 178.854 34.4586 179.764 34.0323L181.419 33.2495ZM189.646 34.3503C189.747 34.339 190.093 34.5556 190.441 34.823C190.824 35.1206 191.165 35.6105 191.354 36.1174C191.544 36.6243 191.661 37.429 191.676 38.2111C191.688 38.9253 191.672 39.7621 191.618 40.0919C191.554 40.6102 191.522 40.648 191.41 40.371C191.318 40.1938 191.179 39.2554 191.071 38.2792C190.909 36.781 190.829 36.4663 190.478 36.131C190.267 35.9332 189.947 35.5262 189.783 35.2379C189.62 34.9497 189.489 34.6406 189.485 34.5389C189.481 34.4541 189.545 34.3617 189.646 34.3503V34.3503ZM214.445 34.351C216.345 34.1881 217.425 34.2027 218.409 34.3474C219.156 34.4677 220.232 34.7726 220.798 35.0154C221.365 35.2583 222.248 35.8064 222.737 36.2283C223.243 36.6484 223.985 37.4509 224.378 37.986C224.771 38.521 225.096 39.0467 225.099 39.1315C225.103 39.2333 224.73 39.5821 223.386 40.5514L221.526 40.4542C220.494 40.383 219.242 40.3025 218.735 40.2744C218.228 40.2464 217.621 40.2466 217.386 40.2901C217.151 40.3166 215.945 40.5376 214.706 40.7624C213.467 40.9872 212.065 41.3496 211.617 41.5364C211.153 41.742 210.723 41.9608 210.624 42.0231C210.526 42.0853 210.327 42.1758 210.16 42.2287C210.01 42.2627 208.836 42.838 205.25 44.6902L203.955 43.9501C202.848 43.291 202.62 43.0781 201.915 41.4878L202.307 40.7621C202.527 40.3624 203.006 39.6951 203.377 39.2784C203.764 38.8429 204.544 38.1245 205.132 37.6493C205.721 37.1911 206.375 36.6914 206.605 36.5462C206.836 36.401 207.132 36.2312 207.266 36.1991C207.399 36.1501 208.114 35.8822 208.845 35.6123C209.575 35.3256 210.508 35.0161 210.925 34.9179C211.343 34.8197 211.71 34.7103 211.758 34.6537C211.806 34.5971 213.015 34.4609 214.445 34.351V34.351ZM225.877 37.1014C225.91 37.0976 226.977 37.182 230.516 37.5159L229.456 38.4191C228.868 38.8943 228.297 39.3676 228.199 39.4468C228.067 39.5128 227.827 39.4206 227.634 39.2378C227.458 39.0532 227.276 38.7329 227.268 38.5463C227.261 38.3598 227.185 38.1468 227.113 38.0526C227.043 37.9754 226.729 37.7211 226.399 37.5026C226.07 37.2841 225.843 37.0882 225.877 37.1014V37.1014ZM174.108 43.4277C174.494 43.3842 174.851 43.4462 175.009 43.5988C175.237 43.8286 175.239 43.8795 174.946 44.1341C174.766 44.2736 174.435 44.4302 174.2 44.4567C173.965 44.4832 173.675 44.3966 173.552 44.2741C173.445 44.1328 173.368 43.9199 173.413 43.7616C173.457 43.6033 173.704 43.4731 174.108 43.4277ZM226.269 39.2723C226.42 39.2553 226.712 39.3928 226.939 39.5717C227.149 39.7525 227.329 40.0389 227.336 40.2085C227.344 40.4121 227.214 40.512 226.928 40.5442C226.693 40.5707 226.351 40.4558 226.159 40.2901C225.966 40.1243 225.788 39.8888 225.766 39.772C225.745 39.6551 225.789 39.4968 225.87 39.4195C225.951 39.3422 226.117 39.2724 226.269 39.2723V39.2723ZM242.743 37.8254C242.98 37.8668 243.238 37.9741 243.31 38.0853C243.381 38.1795 243.457 38.3924 243.464 38.562C243.471 38.7316 243.358 38.8636 243.224 38.8787C243.09 38.8939 242.818 38.8563 242.629 38.7753C242.407 38.6981 242.28 38.4909 242.286 38.2007C242.303 37.8068 242.352 37.7672 242.743 37.8254V37.8254ZM214.943 41.1957L215.563 41.5008C215.908 41.6835 216.96 42.2465 217.908 42.7531C218.858 43.2766 220.061 43.8226 220.573 43.9863C221.223 44.1858 221.832 44.2365 222.52 44.1419C223.192 44.0663 223.941 43.8228 224.768 43.4116C225.446 43.0796 226.631 42.3667 227.403 41.8538C228.175 41.3239 229.361 40.6449 230.04 40.3299C230.718 39.9979 231.883 39.5941 232.618 39.4091C233.352 39.2241 234.291 39.0842 234.713 39.0878C235.135 39.0914 235.931 39.1721 236.491 39.2453C237.051 39.3356 238.041 39.599 238.709 39.8644C239.378 40.1299 240.259 40.644 240.697 41.0377C241.134 41.4144 241.757 42.1963 242.084 42.7728C242.41 43.3324 242.767 44.2124 242.888 44.7099C243.01 45.2243 243.098 46.1346 243.072 46.7339C243.063 47.3483 242.899 48.2869 242.718 48.8184C242.555 49.365 241.975 50.4527 241.435 51.2633C240.671 52.4058 240.413 52.6904 240.304 52.4983C240.215 52.372 240.179 51.916 240.212 51.4863C240.246 51.0735 240.339 50.4497 240.426 50.0991C240.513 49.7655 240.6 49.4149 240.613 49.3112C240.626 49.2245 240.769 48.595 240.944 47.9108C241.136 47.2417 241.249 46.2918 241.229 45.7999C241.209 45.308 241.047 44.6447 240.881 44.3056C240.699 43.9683 239.923 43.1526 239.154 42.4895C238.087 41.5533 237.55 41.2219 236.903 41.0732C236.324 40.934 235.497 40.9419 232.609 41.2673L231.582 42.1328C231.027 42.6042 230.192 43.2265 229.748 43.515C229.288 43.8054 228.244 44.2639 227.429 44.5431C226.23 44.9507 225.276 45.1264 222.656 45.4215C219.634 45.7621 219.296 45.766 218.19 45.5158C217.168 45.2731 216.857 45.1036 214.98 43.3385L214.943 41.1957ZM169.222 47.3178C169.267 47.6023 169.196 47.9171 169.082 48.0321C168.969 48.1471 168.377 48.5205 166.628 49.4843L166.711 51.5197C166.74 52.641 166.734 53.7492 166.677 53.9942C166.593 54.4126 166.576 54.4145 166.428 54.1074C166.337 53.9303 166.19 52.8052 165.916 49.3942L166.8 48.7323C167.291 48.3702 167.966 47.9534 168.314 47.795C168.661 47.6365 168.988 47.3612 169.047 47.1671C169.119 46.8693 169.154 46.8994 169.222 47.3178ZM244.521 39.2438C244.708 39.2739 244.919 39.4886 244.979 39.7204C245.039 39.9522 245.015 40.1934 244.933 40.2538C244.869 40.3292 244.633 40.3387 244.428 40.2766C244.19 40.2183 244.013 40.0167 243.986 39.7811C243.961 39.5625 244.002 39.3363 244.05 39.2798C244.115 39.2213 244.317 39.1986 244.521 39.2438ZM174.367 48.5613C175.164 48.642 176.115 48.8074 176.491 48.9185C176.867 49.0465 177.76 49.44 178.467 49.8034C179.174 50.1838 179.81 50.47 179.894 50.4605C179.961 50.453 180.323 50.2248 180.716 49.9419C181.093 49.6779 181.755 49.3478 182.205 49.2289C182.989 49.0043 182.989 49.0043 183.008 49.4792C183.019 49.7336 182.919 50.1878 182.796 50.4744C182.673 50.7778 182.286 51.2133 181.959 51.4547C181.615 51.7149 181.269 51.9243 181.169 51.9526C181.086 51.979 180.519 52.1451 179.919 52.315C179.318 52.4849 178.432 52.6699 177.962 52.7229C177.206 52.808 177.036 52.7761 176.872 52.4708C176.762 52.2617 176.389 51.8095 176.071 51.4535C175.735 51.0823 175.162 50.6699 174.785 50.5249C174.408 50.38 173.881 50.2859 173.595 50.3181C173.327 50.3484 172.094 50.7258 170.896 51.1334C169.682 51.5599 168.467 51.9863 167.685 52.2448L167.983 51.7001C168.14 51.4098 168.649 50.6538 169.91 48.893L171.419 48.6549C172.408 48.5094 173.436 48.4788 174.367 48.5613V48.5613ZM245.525 41.5332C245.559 41.5294 245.704 42.1776 245.855 42.9955C245.99 43.8152 246.095 45.1665 246.067 46.1239C246.054 47.0455 245.966 47.788 245.865 47.7994C245.781 47.8089 245.629 47.383 245.54 46.8648C245.451 46.3296 245.373 45.2478 245.358 44.4657C245.343 43.6836 245.353 42.6942 245.387 42.2814C245.439 41.8837 245.492 41.5369 245.525 41.5332ZM206.037 49.4919C206.509 49.4898 207.222 49.5969 207.649 49.7362C208.077 49.8925 208.626 50.1203 208.903 50.2766C209.369 50.5478 209.371 50.5817 209.514 54.1096L209.069 54.3642C208.805 54.4963 208.54 54.6283 208.44 54.6566C208.358 54.7 207.762 54.9886 207.117 55.2999C206.489 55.6262 205.943 55.8752 205.926 55.8771C205.892 55.8808 205.952 55.7037 206.045 55.4888C206.137 55.2569 206.49 54.8252 206.831 54.4971C207.173 54.186 207.543 53.7524 207.636 53.5545C207.777 53.283 207.765 52.9947 207.605 52.3653C207.387 51.5889 207.335 51.5437 206.742 51.4912C206.404 51.4612 205.763 51.4652 205.326 51.5144C204.873 51.5655 204.213 51.5206 203.838 51.4265C203.463 51.3324 203.154 51.1969 203.151 51.129C203.148 51.0442 203.339 50.7671 203.58 50.4843C203.839 50.2166 204.298 49.8752 204.613 49.7375C204.928 49.6168 205.581 49.4921 206.037 49.4919V49.4919ZM210.121 49.134C210.308 49.1471 210.47 49.4184 210.591 49.8989C210.692 50.3135 210.86 50.6866 210.963 50.7431C211.067 50.7996 212.497 50.7066 214.142 50.5212C216.997 50.1996 217.115 50.2033 217.129 50.5256C217.142 50.8478 217.042 50.8762 214.152 51.1676C211.547 51.41 211.109 51.4252 210.863 51.1973C210.705 51.0447 210.413 50.9073 210.226 50.8772C209.938 50.8415 209.881 50.6945 209.868 49.9633C209.857 49.266 209.901 49.1077 210.121 49.134V49.134ZM166.443 54.8725C166.577 54.8574 167.132 55.2379 167.658 55.7239C168.183 56.1929 168.59 56.6413 168.543 56.7318C168.495 56.8053 168.262 56.8827 168.01 56.911C167.707 56.9281 167.312 56.7511 166.892 56.3895C166.473 56.0278 166.239 55.6792 166.21 55.3758C166.198 55.0705 166.275 54.8915 166.443 54.8725V54.8725ZM202.47 53.046C203.128 53.04 203.837 53.0623 204.074 53.0867C204.312 53.1281 204.721 53.2353 204.978 53.3087C205.336 53.4217 205.461 53.578 205.459 53.9361C205.469 54.1905 205.402 54.6071 205.163 55.3667L202.101 55.5922C200.419 55.7136 198.838 55.8236 198.586 55.8519C198.25 55.8898 198.113 55.8201 198.104 55.6166C198.097 55.447 198.415 54.9681 198.786 54.5515C199.254 54.0217 199.746 53.6766 200.377 53.4351C201.008 53.1766 201.644 53.0708 202.47 53.046ZM245.261 48.2934L245.453 48.8681C245.55 49.181 245.606 49.7199 245.586 50.046C245.548 50.3739 245.401 50.8847 245.227 51.1769C245.071 51.4842 244.342 52.2308 243.625 52.8568C242.908 53.4828 242.171 54.0089 241.986 54.0297C241.733 54.0412 241.86 53.8394 242.541 53.1494C243.026 52.6516 243.738 51.9069 244.126 51.4883C244.724 50.8417 244.847 50.5551 245.041 49.511L245.261 48.2934ZM175.264 60.2004C176.153 60.0831 176.644 60.13 177.294 60.3465C177.756 60.5159 178.412 60.885 178.745 61.1713C179.06 61.4595 179.666 62.2602 180.066 62.9649C180.466 63.6696 181.02 64.8341 181.827 66.8559L182.291 78.22L182.884 80.3682C183.219 81.5573 183.65 83.4172 183.863 84.5177C184.121 85.8859 184.291 87.5537 184.518 93.1339L183.887 94.2103C183.557 94.8098 182.9 95.6506 182.462 96.0918C182.008 96.5349 181.471 97.0214 181.242 97.1835C181.013 97.3627 180.533 97.5871 180.165 97.6796C179.799 97.7891 179.041 97.8403 178.484 97.8179C177.926 97.7786 176.989 97.5774 176.391 97.3722C175.74 97.1388 174.909 96.619 174.28 96.0765C173.703 95.5792 173.229 95.1384 173.227 95.0875C173.225 95.0366 173.097 94.7954 172.951 94.5222C172.806 94.266 172.538 93.4953 172.36 92.8508C172.181 92.1894 171.958 91.2773 171.855 90.8119C171.769 90.3615 171.65 89.08 171.605 87.9945C171.516 86.2154 171.55 85.8196 171.947 84.3777C172.341 82.868 172.378 82.54 172.286 80.2842C172.194 78.0114 172.148 77.7098 171.64 76.4379C171.339 75.671 170.756 74.2032 170.327 73.1781C169.597 71.4201 169.554 71.2034 169.53 69.7748C169.54 68.7854 169.662 67.6301 169.919 66.4935C170.133 65.5323 170.503 64.2638 170.732 63.6757C170.978 63.0857 171.419 62.3034 171.741 61.9433C172.047 61.5851 172.701 61.0684 173.196 60.8081C173.807 60.4837 174.457 60.2912 175.264 60.2004V60.2004ZM226.214 71.4485C226.254 71.5974 226.211 71.7897 226.146 71.8481C226.081 71.9066 225.091 72.4611 223.953 73.0835C222.814 73.7059 220.442 75.1147 218.681 76.1991C216.921 77.3005 215.441 78.251 215.394 78.3245C215.345 78.3811 213.709 79.2129 211.757 80.1655C209.806 81.118 207.271 82.2556 206.125 82.7084C204.98 83.1612 203.697 83.5613 203.244 83.6123C202.723 83.671 202.452 83.6334 202.446 83.4977C202.441 83.362 202.87 83.1432 203.554 82.9469C204.17 82.7582 205.467 82.2884 206.429 81.8733C207.391 81.4753 208.949 80.7886 209.91 80.3566C210.87 79.9077 211.68 79.5097 211.728 79.4361C211.776 79.3796 211.958 79.2909 212.141 79.2362C212.325 79.1984 214.169 78.0876 216.259 76.7957C218.332 75.4888 220.82 74.0328 221.778 73.533C222.737 73.0501 224.107 72.3164 224.816 71.9128C225.97 71.2545 226.136 71.2017 226.214 71.4485V71.4485ZM231.314 70.7547C231.582 70.7075 231.785 70.7187 231.787 70.7696C231.789 70.8205 231.301 71.2504 230.678 71.7124C230.074 72.1894 228.761 73.104 227.775 73.7264C226.772 74.3676 225.373 75.2408 224.648 75.6632C223.924 76.1027 223.152 76.6156 222.923 76.7947C222.695 76.9908 222.249 77.2285 221.933 77.3323C221.616 77.4361 221.087 77.6832 220.774 77.8887C220.462 78.0943 218.891 78.8677 217.302 79.609C215.713 80.3504 213.544 81.3784 212.502 81.8707C211.46 82.38 209.966 82.9743 209.182 83.1989C208.398 83.4235 207.513 83.6425 207.211 83.6766C206.925 83.7088 206.671 83.6862 206.668 83.6184C206.665 83.5336 207.394 83.2129 208.275 82.8921C209.173 82.5695 210.5 82.0111 211.228 81.6564C211.956 81.3018 213.213 80.7001 214.041 80.3171C214.852 79.9361 216.242 79.2684 217.102 78.8477C217.962 78.4271 219.431 77.6142 220.352 77.0503C221.291 76.5014 222.082 76.0375 222.133 76.0318C222.183 76.0261 223.385 75.2944 224.799 74.4024C226.23 73.5084 227.578 72.6409 227.809 72.4957C228.038 72.3335 228.252 72.1902 228.302 72.1845C228.352 72.1619 228.6 72.0318 228.88 71.8639C229.143 71.7149 229.705 71.4131 230.118 71.2132C230.531 70.9963 231.062 70.7831 231.314 70.7547V70.7547ZM205.408 83.7264C205.676 83.6961 206.051 83.7732 206.209 83.9258C206.505 84.165 206.507 84.1989 206.229 84.4177C206.082 84.5534 205.751 84.693 205.482 84.7233C205.23 84.7517 204.91 84.7537 204.773 84.718C204.637 84.6822 204.495 84.5108 204.471 84.343C204.447 84.1584 204.523 83.9623 204.656 83.9133C204.788 83.8473 205.122 83.7585 205.408 83.7264ZM202.587 84.8791C202.906 84.8431 203.229 84.909 203.284 85.022C203.339 85.1181 203.297 85.3273 203.185 85.4763C203.039 85.629 202.772 85.7101 202.484 85.6744C202.179 85.6406 202.022 85.522 202.013 85.2845C202.002 85.0131 202.116 84.9321 202.587 84.8791V84.8791Z" fill="#0C0D0C"/>
<path d="M205.687 39.3256C206.241 38.8722 207.442 38.2097 208.898 37.5697C210.171 37.0013 211.262 36.5213 211.346 36.5119C211.412 36.4874 211.568 37.0139 211.678 37.6475C211.806 38.2963 211.897 38.898 211.901 38.9826C211.905 39.0841 211.856 39.1236 211.788 39.0973C211.703 39.0729 211.235 39.1596 210.736 39.3178C210.187 39.4816 208.936 40.1667 207.607 41.0134C206.393 41.7962 205.259 42.4511 205.108 42.4681C204.84 42.4983 204.8 42.3497 204.79 40.0387L205.687 39.3256Z" fill="#F8F9F7"/>
<path d="M219.514 37.8699C219.27 37.6594 219.073 37.3755 219.068 37.2401C219.062 37.1047 219.192 36.9712 219.359 36.9523C219.51 36.9353 219.984 37.0009 220.408 37.0891C220.833 37.1773 221.52 37.5249 222.735 38.4082L221.722 38.3522C221.166 38.3299 220.541 38.2813 220.339 38.2701C220.119 38.2608 219.759 38.0804 219.514 37.8699Z" fill="#F8F9F7"/>
<path d="M172.773 63.9623C173.259 63.4826 174.157 62.8034 174.781 62.427C175.389 62.0525 175.948 61.7345 176.049 61.7232C176.132 61.7137 176.374 61.8565 176.583 62.037C176.776 62.2362 177.164 62.6686 177.977 63.5972L176.917 63.6145C176.344 63.611 175.874 63.647 175.877 63.6977C175.879 63.7485 176.154 64.3125 176.5 64.9536C176.829 65.5797 177.311 66.2564 177.571 66.4481C177.814 66.6248 178.055 66.7676 178.106 66.7619C178.156 66.7563 178.168 66.2279 178.141 65.5678C178.106 64.7047 178.144 64.3944 178.296 64.4113C178.415 64.4319 178.745 64.6838 179.009 64.977C179.325 65.2984 179.547 65.7835 179.748 67.0019L175.438 67.3855L175.487 66.1218L175.085 66.9832C174.868 67.4497 174.598 67.8372 174.48 67.8335C174.379 67.8448 174.04 67.781 173.24 67.5651L173.649 64.7987L173.98 65.4925C174.258 66.1073 174.344 66.1655 174.881 66.1051C175.199 66.0693 175.496 65.9338 175.526 65.8284C175.554 65.7062 175.615 65.1383 175.752 63.5417L175.271 63.7149C175.006 63.8128 174.145 64.1648 173.334 64.4942C172.539 64.8218 171.891 65.0308 171.888 64.9631C171.902 64.8766 172.305 64.4401 172.773 63.9623Z" fill="#F8F9F7"/>
<path d="M171.138 67.6149C171.121 67.1918 171.168 66.6934 171.261 66.4959C171.371 66.3135 171.532 66.1423 171.65 66.1291C171.767 66.1159 171.955 66.1797 172.077 66.285C172.199 66.3902 172.3 66.8039 172.317 67.2101C172.341 67.8024 172.28 67.9623 171.934 68.1373C171.703 68.2653 171.438 68.3632 171.354 68.3726C171.253 68.3839 171.172 68.0361 171.138 67.6149Z" fill="#F8F9F7"/>
<path d="M171.997 68.8782C172.716 68.7462 173.45 68.5955 173.634 68.5578C173.817 68.5032 175.207 68.3296 179.481 67.8821L179.824 69.2886C180.085 70.3133 180.255 71.9944 180.803 80.4844L181.329 81.4113C181.799 82.2253 181.82 82.325 181.556 82.4398C181.406 82.4906 180.888 82.583 180.437 82.6509C179.967 82.7037 179.382 82.8036 179.1 82.8865C178.816 82.9524 178.074 83.342 177.451 83.7353C176.63 84.2358 175.997 84.8172 175.211 85.7728C174.618 86.5026 173.935 87.5146 173.669 88.0037C173.404 88.5096 173.151 88.9121 173.067 88.9216C173 88.9291 172.968 88.1506 172.997 87.1953C173.027 85.8828 173.13 85.1061 173.46 84.1168C173.878 82.8116 173.876 82.7608 173.557 75.3501L172.731 74.083C172.265 73.3874 171.681 72.2631 171.418 71.5957C171.172 70.9263 170.902 70.0897 170.711 69.1251L171.997 68.8782Z" fill="#F8F9F7"/>
<path d="M177.344 84.8354C177.786 84.5306 178.561 84.1203 179.058 83.9283C179.555 83.7363 180.388 83.5234 181.812 83.3461L182.065 84.2016C182.203 84.6792 182.399 85.7791 182.683 88.1954L178.709 88.592C176.53 88.8035 174.684 88.9435 174.597 88.8683C174.527 88.8081 174.626 88.3549 174.841 87.8377C175.056 87.3374 175.53 86.5869 175.883 86.1561C176.253 85.7234 176.919 85.1383 177.344 84.8354Z" fill="#F8F9F7"/>
<path d="M173.77 91.3076C173.638 90.9485 173.535 90.501 173.527 90.2979C173.546 89.9387 173.58 89.9349 174.527 90.0492C175.085 90.1223 175.978 90.1238 177.536 89.9483L177.475 91.3493C177.417 92.4099 177.333 92.8274 177.122 93.0212C176.96 93.1585 176.729 93.2695 176.611 93.2828C176.494 93.296 176.384 93.0704 176.371 92.7657C176.342 92.463 176.331 92.1753 176.328 92.1245C176.326 92.0737 176.183 91.8688 176.006 91.6508C175.829 91.4327 175.589 91.3237 175.474 91.3877C175.342 91.4536 175.14 91.8843 175.024 92.3394C174.908 92.7946 174.772 93.1669 174.722 93.1726C174.671 93.1783 174.492 92.9094 174.327 92.571C174.145 92.2345 173.903 91.6667 173.77 91.3076Z" fill="#F8F9F7"/>
<path d="M178.344 91.1834C178.327 90.7773 178.357 90.2808 178.415 90.0532C178.486 89.7222 178.601 89.6413 179.105 89.6355C179.711 89.6183 179.711 89.6183 179.795 90.4588C179.833 90.9647 179.783 91.3953 179.671 91.5439C179.559 91.6756 179.211 91.8168 178.909 91.8338C178.389 91.8923 178.372 91.8773 178.344 91.1834Z" fill="#F8F9F7"/>
<path d="M181.169 91.5452C181.002 91.156 180.793 90.5675 180.712 90.2365L180.585 89.6048L181.658 89.484C182.244 89.4179 182.799 89.3895 182.884 89.4308C182.987 89.4702 182.76 90.0909 182.419 90.8094C182.061 91.5297 181.715 92.1298 181.633 92.173C181.566 92.1975 181.353 91.9155 181.169 91.5452Z" fill="#F8F9F7"/>
<path d="M176.61 94.082C177.191 93.8805 178.084 93.4739 178.594 93.1954C179.087 92.9019 179.683 92.6477 179.917 92.6213C180.135 92.5968 180.679 92.7225 181.107 92.9123C181.518 93.087 181.93 93.2786 182 93.3388C182.07 93.3989 181.769 93.8579 180.516 95.3252L177.27 95.8098L176.069 95.265C175.109 94.8291 174.934 94.6788 175.2 94.5809C175.382 94.5093 176.013 94.2853 176.61 94.082Z" fill="#F8F9F7"/>
</svg>
